<svg xmlns="http://www.w3.org/2000/svg" xmlns:xlink="http://www.w3.org/1999/xlink" width="375" height="1250" viewBox="0 0 375 1250"><defs><clipPath id="a"><rect width="375" height="1250" transform="translate(0 810)" fill="#fff" stroke="#707070" stroke-width="1"/></clipPath><linearGradient id="b" x1="0.5" y1="1" x2="0.5" gradientUnits="objectBoundingBox"><stop offset="0" stop-color="#949494"/><stop offset="0.04" stop-color="#9a9a9a"/><stop offset="0.28" stop-color="#b5b5b5"/><stop offset="0.52" stop-color="#c9c9c9"/><stop offset="0.76" stop-color="#d5d5d5"/><stop offset="1" stop-color="#d9d9d9"/></linearGradient><linearGradient id="c" x1="0.5" y1="0.999" x2="0.5" gradientUnits="objectBoundingBox"><stop offset="0" stop-color="#0a0a0a"/><stop offset="0.45" stop-color="#181818"/><stop offset="1" stop-color="#303030"/></linearGradient><linearGradient id="d" y1="0.504" x2="1" y2="0.504" gradientUnits="objectBoundingBox"><stop offset="0" stop-color="#0a0a0a"/><stop offset="0.06" stop-color="#101010"/><stop offset="0.13" stop-color="#202020"/><stop offset="0.22" stop-color="#3c3c3c"/><stop offset="0.32" stop-color="#626262"/><stop offset="0.42" stop-color="#939393"/><stop offset="0.52" stop-color="#cecece"/><stop offset="0.55" stop-color="#e0e0e0"/><stop offset="1" stop-color="#545454"/></linearGradient><linearGradient id="e" x1="0" y1="0.5" x2="1" y2="0.5" xlink:href="#d"/><linearGradient id="f" x1="0.5" y1="0.997" x2="0.5" y2="0" xlink:href="#c"/><linearGradient id="h" x1="0" y1="0.498" x2="1" y2="0.498" xlink:href="#d"/><linearGradient id="n" x1="0" y1="0.502" x2="1" y2="0.502" xlink:href="#d"/><linearGradient id="o" x1="0.5" y1="0.996" x2="0.5" y2="0" xlink:href="#c"/><linearGradient id="q" x1="0" y1="0.506" x2="1" y2="0.506" xlink:href="#d"/><linearGradient id="v" x1="0" y1="0.492" x2="1" y2="0.492" xlink:href="#d"/><linearGradient id="y" x1="0" y1="0.482" x2="1" y2="0.482" xlink:href="#d"/><linearGradient id="ab" x1="0" y1="0.494" x2="1" y2="0.494" xlink:href="#d"/><linearGradient id="ad" x1="0.5" y1="1.001" x2="0.5" y2="0.003" xlink:href="#c"/><linearGradient id="ag" x1="0.5" y1="0.997" x2="0.5" y2="0" xlink:href="#c"/><linearGradient id="al" x1="0" y1="0.478" x2="1" y2="0.478" xlink:href="#d"/><linearGradient id="ao" x1="0" y1="0.49" x2="1" y2="0.49" xlink:href="#d"/><linearGradient id="ay" x1="0.5" y1="0.995" x2="0.5" y2="-0.004" xlink:href="#c"/></defs><g transform="translate(0 -810)" clip-path="url(#a)"><g transform="translate(0 774.695)" opacity="0.21"><rect width="1077.954" height="1357.852" transform="translate(32.765)" fill="url(#b)"/><path d="M41.616,30.028A14.518,14.518,0,1,1,27.1,15.51,14.518,14.518,0,0,1,41.616,30.028Z" transform="translate(33.782 41.641)" fill="url(#c)"/><path d="M66.879,20.437a4.643,4.643,0,0,1-4.68,4.643H4.68A4.643,4.643,0,0,1,0,20.437H0A4.68,4.68,0,0,1,4.68,15.72H62.2a4.68,4.68,0,0,1,4.68,4.717Z" transform="translate(0.007 42.205)" fill="url(#d)"/><path d="M66.879,25.3a4.68,4.68,0,0,1-4.68,4.68H4.68A4.68,4.68,0,0,1,0,25.3H0a4.643,4.643,0,0,1,4.68-4.68H62.2a4.643,4.643,0,0,1,4.68,4.68Z" transform="translate(0.007 55.361)" fill="url(#e)"/><path d="M41.616,47.281a14.481,14.481,0,1,1-4.255-10.253,14.518,14.518,0,0,1,4.255,10.253Z" transform="translate(33.782 88.062)" fill="url(#f)"/><path d="M66.879,37.717a4.68,4.68,0,0,1-4.68,4.717H4.68A4.68,4.68,0,0,1,0,37.717H0A4.68,4.68,0,0,1,4.68,33H62.2a4.68,4.68,0,0,1,4.68,4.68Z" transform="translate(0.007 88.599)" fill="url(#e)"/><path d="M66.879,42.607a4.68,4.68,0,0,1-4.68,4.68H4.68A4.68,4.68,0,0,1,0,42.607H0A4.68,4.68,0,0,1,4.68,37.89H62.2a4.68,4.68,0,0,1,4.68,4.717Z" transform="translate(0.007 101.727)" fill="url(#h)"/><path d="M41.616,64.551A14.481,14.481,0,1,1,37.362,54.3a14.518,14.518,0,0,1,4.254,10.253Z" transform="translate(33.782 134.428)" fill="url(#f)"/><path d="M66.879,54.97a4.68,4.68,0,0,1-4.68,4.717H4.68A4.68,4.68,0,0,1,0,54.97H0a4.68,4.68,0,0,1,4.68-4.68H62.2A4.68,4.68,0,0,1,66.879,54.97Z" transform="translate(0.007 135.019)" fill="url(#h)"/><path d="M66.879,59.85a4.68,4.68,0,0,1-4.68,4.717H4.68A4.68,4.68,0,0,1,0,59.85H0a4.68,4.68,0,0,1,4.68-4.68H62.2A4.68,4.68,0,0,1,66.879,59.85Z" transform="translate(0.007 148.121)" fill="url(#h)"/><path d="M41.616,81.831a14.481,14.481,0,1,1-4.255-10.253A14.518,14.518,0,0,1,41.616,81.831Z" transform="translate(33.782 180.822)" fill="url(#f)"/><path d="M66.879,72.25a4.68,4.68,0,0,1-4.68,4.717H4.68A4.68,4.68,0,0,1,0,72.25H0a4.68,4.68,0,0,1,4.68-4.68H62.2A4.68,4.68,0,0,1,66.879,72.25Z" transform="translate(0.007 181.413)" fill="url(#h)"/><path d="M66.879,77.13a4.68,4.68,0,0,1-4.68,4.717H4.68A4.68,4.68,0,0,1,0,77.13H0a4.68,4.68,0,0,1,4.68-4.68H62.2A4.68,4.68,0,0,1,66.879,77.13Z" transform="translate(0.007 194.514)" fill="url(#n)"/><path d="M41.616,99.121a14.481,14.481,0,1,1-4.255-10.253,14.518,14.518,0,0,1,4.255,10.253Z" transform="translate(33.782 227.242)" fill="url(#o)"/><path d="M66.879,89.53a4.68,4.68,0,0,1-4.68,4.68H4.68A4.68,4.68,0,0,1,0,89.53H0a4.68,4.68,0,0,1,4.68-4.68H62.2A4.68,4.68,0,0,1,66.879,89.53Z" transform="translate(0.007 227.806)" fill="url(#e)"/><path d="M66.879,94.437a4.68,4.68,0,0,1-4.68,4.68H4.68A4.68,4.68,0,0,1,0,94.437H0A4.68,4.68,0,0,1,4.68,89.72H62.2a4.68,4.68,0,0,1,4.68,4.717Z" transform="translate(0.007 240.881)" fill="url(#q)"/><path d="M41.616,116.391a14.481,14.481,0,1,1-4.255-10.253,14.518,14.518,0,0,1,4.255,10.253Z" transform="translate(33.782 273.609)" fill="url(#f)"/><path d="M66.879,106.81a4.68,4.68,0,0,1-4.68,4.68H4.68A4.68,4.68,0,0,1,0,106.81H0a4.643,4.643,0,0,1,4.68-4.68H62.2a4.643,4.643,0,0,1,4.68,4.68Z" transform="translate(0.007 274.199)" fill="url(#e)"/><path d="M66.88,111.717a4.68,4.68,0,0,1-4.68,4.68H4.68A4.68,4.68,0,0,1,0,111.717H0A4.643,4.643,0,0,1,4.68,107H62.2a4.643,4.643,0,0,1,4.68,4.68Z" transform="translate(0.007 287.274)" fill="url(#n)"/><path d="M41.616,133.671a14.481,14.481,0,1,1-4.255-10.253,14.518,14.518,0,0,1,4.255,10.253Z" transform="translate(33.782 320.002)" fill="url(#f)"/><path d="M66.885,124.08a4.643,4.643,0,0,1-4.68,4.9H4.685a4.643,4.643,0,0,1-4.68-4.9h0a4.68,4.68,0,0,1,4.68-4.68H62.2A4.68,4.68,0,0,1,66.885,124.08Z" transform="translate(0.002 320.566)" fill="url(#v)"/><path d="M66.879,128.97a4.643,4.643,0,0,1-4.68,4.68H4.68A4.643,4.643,0,0,1,0,128.97H0a4.643,4.643,0,0,1,4.68-4.68H62.2a4.643,4.643,0,0,1,4.68,4.68Z" transform="translate(0.007 333.695)" fill="url(#e)"/><path d="M41.616,150.978A14.481,14.481,0,1,1,37.375,140.7a14.518,14.518,0,0,1,4.241,10.277Z" transform="translate(33.782 366.369)" fill="url(#c)"/><path d="M66.879,141.41a4.68,4.68,0,0,1-4.68,4.717H4.68A4.68,4.68,0,0,1,0,141.41H0a4.68,4.68,0,0,1,4.68-4.68H62.2A4.68,4.68,0,0,1,66.879,141.41Z" transform="translate(0.007 367.094)" fill="url(#y)"/><path d="M66.879,146.25a4.68,4.68,0,0,1-4.68,4.717H4.68A4.68,4.68,0,0,1,0,146.25H0a4.68,4.68,0,0,1,4.68-4.68H62.2A4.68,4.68,0,0,1,66.879,146.25Z" transform="translate(0.007 380.088)" fill="url(#h)"/><path d="M41.616,168.221a14.481,14.481,0,1,1-4.255-10.253,14.518,14.518,0,0,1,4.255,10.253Z" transform="translate(33.782 412.762)" fill="url(#c)"/><path d="M66.879,158.532a4.68,4.68,0,0,1-4.68,4.717H4.68A4.68,4.68,0,0,1,0,158.532H0A4.68,4.68,0,0,1,4.68,154H62.2a4.68,4.68,0,0,1,4.68,4.68Z" transform="translate(0.007 413.461)" fill="url(#ab)"/><path d="M66.879,163.557a4.68,4.68,0,0,1-4.68,4.68H4.68A4.68,4.68,0,0,1,0,163.557H0a4.68,4.68,0,0,1,4.68-4.717H62.2a4.68,4.68,0,0,1,4.68,4.716Z" transform="translate(0.007 426.455)" fill="url(#n)"/><path d="M41.615,185.739a14.518,14.518,0,1,1-4.172-10.408,14.518,14.518,0,0,1,4.172,10.408Z" transform="translate(33.783 459.102)" fill="url(#ad)"/><path d="M66.879,175.92a4.68,4.68,0,0,1-4.68,4.717H4.68A4.68,4.68,0,0,1,0,175.92H0a4.68,4.68,0,0,1,4.68-4.68H62.2A4.68,4.68,0,0,1,66.879,175.92Z" transform="translate(0.007 459.747)" fill="url(#h)"/><path d="M66.879,180.837a4.68,4.68,0,0,1-4.68,4.68H4.68A4.68,4.68,0,0,1,0,180.837H0a4.68,4.68,0,0,1,4.68-4.717H62.2a4.68,4.68,0,0,1,4.68,4.717Z" transform="translate(0.007 472.848)" fill="url(#n)"/><path d="M41.616,202.754A14.518,14.518,0,1,1,27.1,188.31a14.518,14.518,0,0,1,14.518,14.444Z" transform="translate(33.782 505.576)" fill="url(#ag)"/><path d="M66.879,193.2a4.68,4.68,0,0,1-4.68,4.717H4.68A4.68,4.68,0,0,1,0,193.2H0a4.68,4.68,0,0,1,4.68-4.68H62.2a4.68,4.68,0,0,1,4.68,4.68Z" transform="translate(0.007 506.14)" fill="url(#h)"/><path d="M66.882,198.117a4.68,4.68,0,0,1-4.68,4.864H4.682A4.68,4.68,0,0,1,0,198.117H0a4.68,4.68,0,0,1,4.68-4.717H62.2a4.68,4.68,0,0,1,4.68,4.717Z" transform="translate(0.005 519.242)" fill="url(#v)"/><path d="M41.616,220.035A14.518,14.518,0,1,1,27.1,205.59a14.518,14.518,0,0,1,14.518,14.445Z" transform="translate(33.782 551.97)" fill="url(#o)"/><path d="M66.879,210.48A4.68,4.68,0,0,1,62.2,215.2H4.68A4.68,4.68,0,0,1,0,210.48H0a4.68,4.68,0,0,1,4.68-4.68H62.2a4.68,4.68,0,0,1,4.68,4.68Z" transform="translate(0.007 552.534)" fill="url(#h)"/><path d="M66.879,215.41a4.68,4.68,0,0,1-4.68,4.716H4.68A4.68,4.68,0,0,1,0,215.41H0a4.68,4.68,0,0,1,4.68-4.68H62.2a4.68,4.68,0,0,1,4.68,4.68Z" transform="translate(0.007 565.77)" fill="url(#al)"/><path d="M41.616,237.341A14.518,14.518,0,1,1,27.1,222.86,14.518,14.518,0,0,1,41.616,237.341Z" transform="translate(33.782 598.336)" fill="url(#c)"/><path d="M66.879,227.76a4.68,4.68,0,0,1-4.68,4.68H4.68A4.68,4.68,0,0,1,0,227.76H0a4.643,4.643,0,0,1,4.68-4.68H62.2a4.643,4.643,0,0,1,4.68,4.68Z" transform="translate(0.007 598.927)" fill="url(#e)"/><path d="M66.879,232.532a4.68,4.68,0,0,1-4.68,4.717H4.68A4.68,4.68,0,0,1,0,232.532H0A4.68,4.68,0,0,1,4.68,228H62.2a4.68,4.68,0,0,1,4.68,4.68Z" transform="translate(0.007 612.136)" fill="url(#ao)"/><path d="M41.616,254.621a14.481,14.481,0,1,1-4.255-10.253,14.518,14.518,0,0,1,4.255,10.253Z" transform="translate(33.782 644.73)" fill="url(#f)"/><path d="M66.879,245.03a4.68,4.68,0,0,1-4.68,4.716H4.68A4.68,4.68,0,0,1,0,245.03H0a4.68,4.68,0,0,1,4.68-4.68H62.2a4.68,4.68,0,0,1,4.68,4.68Z" transform="translate(0.007 645.294)" fill="url(#n)"/><path d="M66.879,249.92a4.68,4.68,0,0,1-4.68,4.68H4.68A4.68,4.68,0,0,1,0,249.92H0a4.68,4.68,0,0,1,4.68-4.68H62.2A4.68,4.68,0,0,1,66.879,249.92Z" transform="translate(0.007 658.422)" fill="url(#e)"/><path d="M41.616,271.9a14.481,14.481,0,1,1-4.254-10.253A14.518,14.518,0,0,1,41.616,271.9Z" transform="translate(33.782 691.123)" fill="url(#f)"/><path d="M66.879,262.347a4.643,4.643,0,0,1-4.68,4.68H4.68A4.643,4.643,0,0,1,0,262.347H0a4.68,4.68,0,0,1,4.68-4.717H62.2a4.68,4.68,0,0,1,4.68,4.717Z" transform="translate(0.007 691.687)" fill="url(#n)"/><path d="M66.879,267.2a4.68,4.68,0,0,1-4.68,4.716H4.68A4.68,4.68,0,0,1,0,267.2H0a4.68,4.68,0,0,1,4.68-4.68H62.2a4.68,4.68,0,0,1,4.68,4.68Z" transform="translate(0.007 704.816)" fill="url(#h)"/><path d="M41.616,289.208a14.481,14.481,0,1,1-4.241-10.277,14.518,14.518,0,0,1,4.241,10.277Z" transform="translate(33.782 737.49)" fill="url(#c)"/><path d="M66.879,279.627a4.68,4.68,0,0,1-4.68,4.68H4.68A4.68,4.68,0,0,1,0,279.627H0a4.68,4.68,0,0,1,4.68-4.716H62.2a4.679,4.679,0,0,1,4.68,4.716Z" transform="translate(0.007 738.081)" fill="url(#n)"/><path d="M66.879,284.507a4.68,4.68,0,0,1-4.68,4.68H4.68A4.68,4.68,0,0,1,0,284.506H0a4.68,4.68,0,0,1,4.68-4.717H62.2a4.68,4.68,0,0,1,4.68,4.717Z" transform="translate(0.007 751.182)" fill="url(#n)"/><path d="M41.616,306.371A14.518,14.518,0,1,1,27.1,292a14.518,14.518,0,0,1,14.518,14.371Z" transform="translate(33.782 783.964)" fill="url(#ay)"/><path d="M66.879,296.87a4.68,4.68,0,0,1-4.68,4.716H4.68A4.68,4.68,0,0,1,0,296.87H0a4.68,4.68,0,0,1,4.68-4.68H62.2a4.68,4.68,0,0,1,4.68,4.68Z" transform="translate(0.007 784.474)" fill="url(#n)"/><path d="M66.879,301.787a4.68,4.68,0,0,1-4.68,4.68H4.68A4.68,4.68,0,0,1,0,301.787H0a4.68,4.68,0,0,1,4.68-4.717H62.2a4.68,4.68,0,0,1,4.68,4.717Z" transform="translate(0.007 797.576)" fill="url(#n)"/><path d="M41.616,323.768a14.481,14.481,0,1,1-4.241-10.277,14.518,14.518,0,0,1,4.241,10.277Z" transform="translate(33.782 830.277)" fill="url(#c)"/><path d="M66.879,314.187a4.68,4.68,0,0,1-4.68,4.606H4.68A4.68,4.68,0,0,1,0,314.186H0a4.68,4.68,0,0,1,4.68-4.717H62.2a4.68,4.68,0,0,1,4.68,4.717Z" transform="translate(0.007 830.868)" fill="url(#n)"/><path d="M66.879,319.03a4.68,4.68,0,0,1-4.68,4.716H4.68A4.68,4.68,0,0,1,0,319.03H0a4.68,4.68,0,0,1,4.68-4.68H62.2a4.68,4.68,0,0,1,4.68,4.68Z" transform="translate(0.007 843.97)" fill="url(#n)"/><path d="M41.616,341.011a14.481,14.481,0,1,1-4.254-10.253,14.518,14.518,0,0,1,4.254,10.253Z" transform="translate(33.782 876.67)" fill="url(#f)"/><path d="M66.879,331.41a4.68,4.68,0,0,1-4.68,4.716H4.68A4.68,4.68,0,0,1,0,331.41H0a4.68,4.68,0,0,1,4.68-4.68H62.2a4.679,4.679,0,0,1,4.68,4.68Z" transform="translate(0.007 877.207)" fill="url(#q)"/><path d="M66.879,336.31a4.68,4.68,0,0,1-4.68,4.716H4.68A4.68,4.68,0,0,1,0,336.31H0a4.68,4.68,0,0,1,4.68-4.68H62.2A4.68,4.68,0,0,1,66.879,336.31Z" transform="translate(0.007 890.363)" fill="url(#n)"/><path d="M41.616,358.328a14.481,14.481,0,1,1-4.241-10.277,14.518,14.518,0,0,1,4.241,10.277Z" transform="translate(33.782 923.064)" fill="url(#f)"/><path d="M66.88,348.79a4.68,4.68,0,0,1-4.68,4.716H4.681A4.68,4.68,0,0,1,0,348.79H0A4.68,4.68,0,0,1,4.681,344H62.2a4.68,4.68,0,0,1,4.68,4.68Z" transform="translate(0.006 923.574)" fill="url(#d)"/><path d="M66.879,353.59a4.68,4.68,0,0,1-4.68,4.716H4.68A4.68,4.68,0,0,1,0,353.59H0a4.68,4.68,0,0,1,4.68-4.68H62.2a4.679,4.679,0,0,1,4.68,4.68Z" transform="translate(0.007 936.756)" fill="url(#h)"/></g></g></svg>