<svg xmlns="http://www.w3.org/2000/svg" viewBox="0 0 44.91 140.97"><defs><style>.cls-1{isolation:isolate;}.cls-2{fill:#41bff0;}.cls-3{fill:#97ceea;mix-blend-mode:multiply;}.cls-4{fill:#fff;mix-blend-mode:lighten;opacity:0.4;}.cls-5{fill:none;stroke:#41bff0;stroke-miterlimit:10;stroke-width:0.52px;}</style></defs><g class="cls-1"><g id="レイヤー_2" data-name="レイヤー 2"><g id="Capa_1" data-name="Capa 1"><path class="cls-2" d="M22.65,57.77S20,60.31,20.73,62.13a7.24,7.24,0,0,0,5.34,0s.8-1.49-2.11-4.3Z"/><path class="cls-2" d="M0,23.84C0,7.77,10.05,0,22.45,0S44.91,8.27,44.91,24.34,34.85,58.22,22.45,58.22,0,39.92,0,23.84Z"/><path class="cls-3" d="M37.93,5.76c.52,2.28.84,4.61,1.17,6.93A63.08,63.08,0,0,1,39.89,24a35.82,35.82,0,0,1-6.43,19.64,26.53,26.53,0,0,1-6.17,6.68,16.42,16.42,0,0,1-7.46,2.73A18.46,18.46,0,0,1,9.55,51.17c3.65,4.3,8.1,7,12.9,7,12.4,0,22.46-17.8,22.46-33.88C44.91,16.05,42.22,9.84,37.93,5.76Z"/><path class="cls-4" d="M22.05,8.43c-.2-2.21-2.94-3.66-4.77-3.76C12.4,4.42,9.5,7.22,7,10.85A15.37,15.37,0,0,0,5,24.27c.43,1.26,1.43,3.73,3.16,3.61C15.31,27.36,22.93,18.3,22.05,8.43Z"/><path class="cls-5" d="M24.06,60.89S17.82,69,22.63,80.14s5.07,12.22,1.82,21.45-7.54,14.69-3.9,24.44,5.59,8.71,2.6,14.83"/></g></g></g></svg>