<svg xmlns="http://www.w3.org/2000/svg" viewBox="0 0 60.21 189.01"><defs><style>.cls-1{isolation:isolate;}.cls-2{fill:#41bff0;}.cls-3{fill:#97ceea;mix-blend-mode:multiply;}.cls-4{fill:#fff;mix-blend-mode:lighten;opacity:0.4;}.cls-5{fill:none;stroke:#41bff0;stroke-miterlimit:10;stroke-width:0.7px;}</style></defs><g class="cls-1"><g id="レイヤー_2" data-name="レイヤー 2"><g id="Capa_1" data-name="Capa 1"><path class="cls-2" d="M30.37,77.46s-3.6,3.41-2.58,5.84a9.69,9.69,0,0,0,7.16,0s1.07-2-2.83-5.77Z"/><path class="cls-2" d="M0,32C0,10.41,13.48,0,30.1,0S60.21,11.08,60.21,32.64,46.73,78.06,30.1,78.06,0,53.52,0,32Z"/><path class="cls-3" d="M50.85,7.73c.71,3,1.14,6.17,1.57,9.28a84,84,0,0,1,1.06,15.18c-.4,9.43-3,18.64-8.61,26.33-2.34,3.24-4.94,6.69-8.28,9a21.93,21.93,0,0,1-10,3.66A24.86,24.86,0,0,1,12.8,68.61c4.9,5.76,10.86,9.45,17.3,9.45,16.63,0,30.11-23.87,30.11-45.42C60.21,21.52,56.61,13.19,50.85,7.73Z"/><path class="cls-4" d="M29.56,11.3c-.26-3-3.94-4.91-6.39-5-6.55-.34-10.44,3.42-13.78,8.28a20.61,20.61,0,0,0-2.66,18c.58,1.69,1.92,5,4.24,4.84C20.53,36.69,30.74,24.54,29.56,11.3Z"/><path class="cls-5" d="M32.26,81.64s-8.36,10.81-1.91,25.8,6.8,16.39,2.44,28.77S22.68,155.91,27.56,169s7.49,11.68,3.48,19.88"/></g></g></g></svg>