<svg xmlns="http://www.w3.org/2000/svg" viewBox="0 0 39.88 124.56"><defs><style>.cls-1{isolation:isolate;}.cls-2{fill:#3b1f84;}.cls-3{fill:#fff;mix-blend-mode:lighten;opacity:0.2;}.cls-4{fill:#9d83a9;mix-blend-mode:multiply;}.cls-5{fill:none;stroke:#3b1f84;stroke-miterlimit:10;stroke-width:0.46px;}</style></defs><g class="cls-1"><g id="レイヤー_2" data-name="レイヤー 2"><g id="Capa_1" data-name="Capa 1"><path class="cls-2" d="M20.12,51s-2.39,2.26-1.71,3.86a6.4,6.4,0,0,0,4.74,0s.71-1.32-1.88-3.82Z"/><path class="cls-2" d="M39.88,30.53C39.88,44.8,31,51.7,19.94,51.7S0,44.36,0,30.08,8.93,0,19.94,0,39.88,16.25,39.88,30.53Z"/><path class="cls-3" d="M4.13,21.89c.18,2,2.61,3.25,4.24,3.34,4.33.22,6.91-2.27,9.12-5.49A13.63,13.63,0,0,0,19.25,7.82c-.38-1.12-1.26-3.31-2.8-3.2C10.12,5.08,3.35,13.12,4.13,21.89Z"/><path class="cls-4" d="M29,3.78c.42.9.82,1.8,1.18,2.72,2.46,6.12,2.62,12.78,2.06,19.32A23,23,0,0,1,29.9,34a26.22,26.22,0,0,1-4.41,6.89c-3.53,3.61-8.23,6.16-13.2,6.18a17,17,0,0,1-6.55-.93,19.51,19.51,0,0,0,14.2,5.55c11,0,19.94-6.9,19.94-21.17C39.88,20.47,35.44,9.43,29,3.78Z"/><path class="cls-5" d="M20.83,53.5a54.24,54.24,0,0,1-2,29c-4.39,12-2,30.71,5.89,42"/></g></g></g></svg>