<svg xmlns="http://www.w3.org/2000/svg" viewBox="0 0 63.28 197.66"><defs><style>.cls-1{isolation:isolate;}.cls-2{fill:#3b1f84;}.cls-3{fill:#fff;mix-blend-mode:lighten;opacity:0.2;}.cls-4{fill:#9d83a9;mix-blend-mode:multiply;}.cls-5{fill:none;stroke:#3b1f84;stroke-miterlimit:10;stroke-width:0.73px;}</style></defs><g class="cls-1"><g id="レイヤー_2" data-name="レイヤー 2"><g id="Capa_1" data-name="Capa 1"><path class="cls-2" d="M31.92,80.86S28.14,84.44,29.21,87a10.24,10.24,0,0,0,7.53,0s1.12-2.1-3-6.06Z"/><path class="cls-2" d="M63.28,48.44C63.28,71.1,49.11,82,31.64,82S0,70.39,0,47.74,14.17,0,31.64,0,63.28,25.79,63.28,48.44Z"/><path class="cls-3" d="M6.56,34.74c.28,3.11,4.14,5.16,6.72,5.29,6.88.35,11-3.59,14.48-8.71a21.69,21.69,0,0,0,2.8-18.9c-.61-1.78-2-5.27-4.46-5.09C16.05,8.06,5.32,20.83,6.56,34.74Z"/><path class="cls-4" d="M46,6c.66,1.42,1.3,2.86,1.88,4.32C51.74,20,52,30.6,51.1,41a36.43,36.43,0,0,1-3.65,13c-1.9,3.86-4,7.87-7,10.92-5.6,5.73-13,9.77-20.94,9.81-3.43,0-7.14-.13-10.38-1.48C14.85,79.07,22.82,82,31.64,82c17.47,0,31.64-10.94,31.64-33.6C63.28,32.48,56.24,15,46,6Z"/><path class="cls-5" d="M33.06,84.89a86.17,86.17,0,0,1-3.18,46c-7,19-3.11,48.74,9.35,66.57"/></g></g></g></svg>