<svg xmlns="http://www.w3.org/2000/svg" viewBox="0 0 313.48 189.07"><defs><style>.cls-1{isolation:isolate;}.cls-2,.cls-20{fill:#fff;}.cls-14,.cls-3{fill:#89cfb0;}.cls-10,.cls-11,.cls-12,.cls-13,.cls-14,.cls-15,.cls-16,.cls-17,.cls-18,.cls-19,.cls-21,.cls-22,.cls-23,.cls-24,.cls-25,.cls-26,.cls-3,.cls-4,.cls-5,.cls-6,.cls-7,.cls-8,.cls-9{mix-blend-mode:multiply;}.cls-25,.cls-4{fill:#b0e2cc;}.cls-22,.cls-5{fill:#f7afc8;}.cls-6{fill:#ffd75e;}.cls-7{fill:#f2f2f2;}.cls-18,.cls-8{fill:#fc8681;}.cls-9{fill:#fec61e;}.cls-10{fill:#b0b0b0;}.cls-11,.cls-21{fill:#fff4d1;}.cls-12,.cls-13{fill:#fece3d;}.cls-13,.cls-14,.cls-18,.cls-20,.cls-21,.cls-22,.cls-23,.cls-24,.cls-25,.cls-26{fill-rule:evenodd;}.cls-15,.cls-24{fill:#fde9ef;}.cls-16{fill:#e3e3e3;}.cls-17{fill:#adadad;}.cls-19,.cls-26{fill:#fbd0dc;}.cls-23{fill:#fec829;}</style></defs><g class="cls-1"><g id="レイヤー_2" data-name="レイヤー 2"><g id="Layer_1" data-name="Layer 1"><path class="cls-2" d="M241.77,29.19a10.61,10.61,0,0,0-1.44-3.31.92.92,0,0,1-.12-.34q-2.07-6.55-4.12-13.11c-.57-1.85-1.09-3.72-1.67-5.57a1.07,1.07,0,0,1,.38-1.33,6.06,6.06,0,0,1,1.95-1.09C238,4,239.3,3.66,240.58,3.3c.45-.13.75.06.93.56.3.82.58,1.65.89,2.46,1.25,3.28,2.5,6.57,3.78,9.84.52,1.33,1.13,2.62,1.68,3.94A14,14,0,0,1,249,23.84a6.4,6.4,0,0,0,.36,1.33c1,3,26.17,81.25,27.47,86.38.18.7.39,1.4.54,2.11s.11.71-.55.92-1.43.48-2.16.65c-1.61.37-3.21.73-4.83,1-1.25.22-1.24.16-1.59-1-.61-2.09-1.26-4.17-1.89-6.26Z"/><path class="cls-3" d="M239,2.34c.78-.19,1.56-.38,2.34-.54.39-.09.66.12.84.61.28.77.53,1.55.83,2.32,1.25,3.28,2.5,6.57,3.78,9.84.56,1.42,1.21,2.8,1.79,4.21.31.76.58,1.54.85,2.32.17.51.1.65-.38.84l-1.91.71-5.4,1.92c-.51.19-.69.1-.88-.5-.51-1.62-1-3.23-1.53-4.86-1.42-4.6-2.82-9.22-4.26-13.82A1.15,1.15,0,0,1,235.49,4a9.69,9.69,0,0,1,2.7-1.37c.27-.11.56-.17.84-.26Z"/><path class="cls-4" d="M250.17,24.57c-.2-.59-.47-1.15-.71-1.74a2,2,0,0,0-.32,0c-2.08.72-4.17,1.44-6.24,2.18a12.48,12.48,0,0,0-1.29.59c.2.67.37,1.25.56,1.83.29.89.62,1.78.9,2.68.65,2.06,24.43,79.23,25.42,82.45.23.74.41,1.5.61,2.25s.24.7.9.67a6.78,6.78,0,0,0,1-.1c.7-.12,1.39-.24,2.07-.41,1.5-.39,3-.79,4.48-1.23.69-.2.72-.26.54-.93-.55-2.08-1.07-4.17-1.72-6.23C274.76,101.44,252.61,31.58,250.17,24.57Zm20.73,88.9c.07.22.11.46.16.69-.52.2-.53.2-.68-.3-1.18-3.82-2.31-7.66-3.55-11.46-2.47-7.53-4.56-15.18-6.83-22.77-1.46-4.9-3-9.77-4.54-14.65-.4-1.28-.81-2.55-1.16-3.83-1-3.66-2.3-7.2-3.49-10.79q-1.68-5.11-3.26-10.25c-1.42-4.64-2.83-9.27-4.49-13.83,0-.13.05-.21.1-.23s.25-.06.42-.1c.15.36.31.68.43,1,.39,1.1.78,2.19,1.13,3.3,1.81,5.76,3.57,11.53,5.4,17.28.88,2.77,1.88,5.5,2.8,8.26.37,1.08.69,2.17,1,3.26.93,3,1.87,6,2.77,9,2.07,6.9,4.1,13.8,6.19,20.69,1.76,5.8,3.58,11.58,5.36,17.37C269.44,108.59,270.16,111,270.9,113.47Zm.81-2.93c.19.92.43,1.84.65,2.76l.16.75-.58.08c-.27-1.07-.58-2.1-.78-3.14a133.38,133.38,0,0,0-4.22-15.18c-2.21-6.78-4.37-13.56-6.6-20.33-3.28-10-6.32-20-9.36-30.05-1.59-5.27-3.26-10.51-4.9-15.76-.36-1.18-.71-2.37-1.07-3.55,0-.14-.06-.28-.11-.53l.57-.08a3.72,3.72,0,0,1,.14.37c1.68,5.39,3.38,10.77,5,16.17,2.5,8.13,5,16.28,7.46,24.4,1.23,4,2.55,7.94,3.84,11.9q3.44,10.62,6.88,21.23A98.72,98.72,0,0,1,271.71,110.54Zm-2-15.64c.86,3,1.74,6,2.56,9.09.7,2.58,1.34,5.16,2,7.74.17.63.38,1.25.56,1.85-.53.3-.56.31-.69-.13-.29-.93-.54-1.87-.8-2.8l-3.18-11.72c-.58-2.13-1.12-4.27-1.77-6.37-1.09-3.55-2.24-7.07-3.38-10.6-.63-1.93-1.3-3.86-1.94-5.79q-3-8.92-6-17.86c-.26-.81-.54-1.61-.77-2.43-1.48-5.25-3.39-10.36-5.06-15.55-1.5-4.69-2.89-9.41-4.33-14.12a6.45,6.45,0,0,1-.16-.63c-.08-.43-.07-.43.47-.5.21.68.39,1.31.58,1.93,1.53,4.91,3,9.83,4.61,14.71,1.74,5.29,3.48,10.59,5.14,15.91,1.43,4.56,3,9.06,4.54,13.58.77,2.3,1.51,4.61,2.27,6.91,1.09,3.24,2.22,6.47,3.26,9.72C268.45,90.17,269.08,92.54,269.75,94.9ZM275,106.43c.51,2,1,4.09,1.56,6.13.06.23.09.46.14.73l-.48.12a.86.86,0,0,1-.13-.21c-1.39-5.17-2.68-10.36-4.18-15.51-1.33-4.58-2.88-9.1-4.32-13.65-.56-1.78-1.08-3.57-1.61-5.36-.27-.91-.51-1.82-.78-2.73-1.5-5.11-3-10.22-4.5-15.35-1.41-4.94-3.15-9.78-4.88-14.61-.79-2.21-1.49-4.46-2.25-6.68-.94-2.78-1.91-5.55-2.85-8.33-.67-2-1.32-4-2-6a1.93,1.93,0,0,1-.05-.32l.55-.14c.19.54.37,1,.53,1.54,2.08,6.18,4.14,12.37,6.23,18.54.9,2.64,1.93,5.23,2.79,7.88,1.19,3.64,2.28,7.31,3.38,11,.86,2.86,1.68,5.72,2.52,8.59.7,2.41,1.38,4.84,2.13,7.25,1.24,4,2.5,8,3.81,12.06C272.28,96.33,273.78,101.34,275,106.43Z"/><path class="cls-2" d="M276.08,24.51a4.89,4.89,0,0,1-1.32-2.9c-.11-.79-.1-1.6-.14-2.27a25.09,25.09,0,0,1,1-5.62c.75-2.36,1.56-4.71,2.26-7.08a17.37,17.37,0,0,0,1-5,.63.63,0,0,1,.28-.5.61.61,0,0,1,.53.21,11.33,11.33,0,0,1,1.42,1.9,42.48,42.48,0,0,1,1.8,3.94,33.67,33.67,0,0,1,2.44,11,9.76,9.76,0,0,1-1,4.86,5,5,0,0,1-.95,1.37c.1.09.14.27.15.57,0,.89,0,1.78,0,2.67-.12,2.33-.27,4.65-.43,7a1.63,1.63,0,0,1-.15.75c.13.08.19.23.23.51a2.83,2.83,0,0,1,0,.65c-.37,4.25-4.84,84.56-5.07,86.94a6.56,6.56,0,0,1-.47,1.84c-.3.72-.88.81-1.33.19a4.32,4.32,0,0,1-.75-1.68,34,34,0,0,1-.69-4.6c-.24-4.26.68-73.24.94-76.51.16-2,.23-6.83.27-7a.47.47,0,0,1,.19-.4c-.3-.12-.36-.32-.38-.86-.05-1.66-.09-3.31-.1-5,0-1.36.05-2.74.11-4.11A1.4,1.4,0,0,1,276.08,24.51Z"/><path class="cls-5" d="M277.24,34.57c0-1.28,4-.53,6.34-.4.53,0,.69.09.76.61a2.43,2.43,0,0,1,0,.66c-.37,4.25-4.84,84.55-5.07,86.94a6.49,6.49,0,0,1-.47,1.83c-.3.73-.88.82-1.33.19a4.28,4.28,0,0,1-.75-1.67,34.28,34.28,0,0,1-.69-4.6c-.24-4.26.68-73.25.94-76.51.16-2,.23-6.83.27-7Z"/><path class="cls-6" d="M275.84,17.42a23,23,0,0,1,1-5.38c.75-2.25,1.55-4.49,2.25-6.76a15.57,15.57,0,0,0,.95-4.79.61.61,0,0,1,.28-.48.62.62,0,0,1,.53.2A11.8,11.8,0,0,1,282.3,2a40.66,40.66,0,0,1,1.8,3.77,30.89,30.89,0,0,1,2.45,10.54,9,9,0,0,1-1,4.64,4.23,4.23,0,0,1-3.29,2.44,6.64,6.64,0,0,1-3.59-.2A4.31,4.31,0,0,1,276,19.59c-.11-.76-.1-1.54-.14-2.17Z"/><path class="cls-7" d="M279.42,33.49c-.56-.06-1-.09-1.48-.17-.66-.11-.76-.21-.8-.84-.07-1.42-.14-2.84-.17-4.27,0-1.18,0-2.36,0-3.54,0-.75.24-1,1-.8a23.86,23.86,0,0,0,6,.07c.52-.08.65,0,.67.53,0,.77.07,1.54,0,2.31q-.14,3-.32,6c-.05.73-.14.81-.84.82s-3.39-.08-4.09-.1Z"/><path class="cls-2" d="M225.27,44a4.32,4.32,0,0,1-2.36-1.47c-.47-.52-.86-1.12-1.21-1.59a21.39,21.39,0,0,1-2-4.58c-.6-2.08-1.16-4.17-1.79-6.24A15.18,15.18,0,0,0,216.2,26a.6.6,0,0,1,0-.5.55.55,0,0,1,.49-.11,10.77,10.77,0,0,1,1.95.7c1.11.6,2.18,1.28,3.23,2a29.51,29.51,0,0,1,7.11,6.82,8.67,8.67,0,0,1,1.61,4,4.73,4.73,0,0,1,0,1.46c.11,0,.22.13.37.34.45.64.9,1.28,1.29,2,1,1.75,2.06,3.51,3.08,5.27a1.58,1.58,0,0,1,.25.63c.13,0,.25.07.42.25a2.63,2.63,0,0,1,.31.48c1.8,3.27,37.49,63.81,38.48,65.65a5.43,5.43,0,0,1,.55,1.57c.13.67-.24,1-.87.78a4,4,0,0,1-1.36-.85,29,29,0,0,1-2.73-3c-2.24-3-35-53.56-36.43-56.06-.84-1.52-3.14-5.08-3.22-5.26a.43.43,0,0,1-.06-.38c-.27.06-.41-.06-.69-.44-.83-1.18-1.67-2.36-2.47-3.56-.67-1-1.3-2-1.92-3A1.23,1.23,0,0,1,225.27,44Z"/><path class="cls-8" d="M231,50.7c-.61-.94,2.67-2.34,4.42-3.37.39-.24.54-.27.85.07a2.23,2.23,0,0,1,.32.48c1.79,3.27,37.49,63.81,38.48,65.66a5.37,5.37,0,0,1,.55,1.56c.13.67-.24,1-.87.78a4.15,4.15,0,0,1-1.37-.85,28.86,28.86,0,0,1-2.72-3c-2.24-3-35-53.56-36.43-56.06-.85-1.52-3.15-5.08-3.23-5.25Z"/><path class="cls-9" d="M221.66,38.91a19.67,19.67,0,0,1-1.86-4.41c-.56-2-1.06-4-1.65-6a13.74,13.74,0,0,0-1.63-3.94.54.54,0,0,1,0-.49A.56.56,0,0,1,217,24a9.6,9.6,0,0,1,1.92.63c1.08.56,2.12,1.2,3.14,1.86a27.36,27.36,0,0,1,6.89,6.47,7.9,7.9,0,0,1,1.51,3.87,3.7,3.7,0,0,1-1.21,3.37,5.74,5.74,0,0,1-2.71,1.6,3.74,3.74,0,0,1-3.69-1.34c-.45-.5-.83-1.07-1.16-1.51Z"/><path class="cls-7" d="M232.06,48.85c-.44.23-.79.43-1.16.6-.53.24-.66.21-1-.22-.74-1-1.48-2-2.2-3-.58-.84-1.14-1.71-1.68-2.59-.35-.55-.29-.81.32-1.06a20.36,20.36,0,0,0,4.37-2.84c.34-.31.48-.3.75.06a18.76,18.76,0,0,1,1.14,1.66c.91,1.49,1.8,3,2.68,4.51.32.55.29.66-.21,1s-2.51,1.58-3,1.91Z"/><path class="cls-2" d="M261.43,31.92a1.78,1.78,0,0,1-.34-.76c-.52-2.57-1.67-8.68-2-11.23-.2-1.33-.53-3.42-.13-4.64.48-1.46,1.59-1.75,2.75-2.25a6,6,0,0,1,.95-.25c.82-.23,3.39.14,4,.89,1.1,1.35,2.9,13.15,3.32,16,.11.77.32,1-.27,1.21.2.92.41,1.85.54,2.79q.54,3.81,1,7.62a3.4,3.4,0,0,1,0,.66,1,1,0,0,1,.28.46,3.31,3.31,0,0,1,.14.71c.43,4,8.68,56.6,11.17,73.08.42,2.71-3.8,2.64-4.22,1C277.46,112.6,263.78,44,263.77,43.7a.47.47,0,0,1,0-.29c-.25-.09-.35-.31-.46-.81-.41-1.77-.81-3.55-1.17-5.33-.29-1.48-.53-3-.76-4.46A1.81,1.81,0,0,1,261.43,31.92Z"/><path class="cls-9" d="M264.83,42.23c-.17-.86,1.57-.8,3.44-1.16,1.37-.27,2.39-.49,3.37-.63.57-.08.76,0,1,.5a2.86,2.86,0,0,1,.13.72c.44,4,8.69,56.6,11.18,73.07.41,2.72-3.8,2.64-4.23,1-1.17-4.58-14.84-73.23-14.85-73.48Z"/><path class="cls-7" d="M267,40.85c-.62,0-1.13.12-1.65.13-.73,0-.87-.07-1-.74-.39-1.53-.77-3.07-1.1-4.61-.28-1.28-.5-2.56-.71-3.85-.14-.82.05-1.1.89-1.09a25.61,25.61,0,0,0,6.5-1.19c.55-.2.71-.12.84.43.21.83.41,1.66.54,2.5.33,2.19.63,4.39.93,6.59.11.79,0,.91-.73,1.06s-3.7.63-4.47.77Z"/><path class="cls-8" d="M263.68,11.32c.81-.22,3.38.13,4,.85,1.1,1.32,2.85,12.8,3.25,15.57.14,1,.47,1.06-1.16,1.39-.59.12-6,.94-6.79,1.07-.45.07-.77-.4-.89-1-.51-2.49-1.63-8.44-2-10.92-.19-1.3-.52-3.33-.11-4.52.48-1.43,1.59-1.71,2.76-2.21a6,6,0,0,1,.95-.25Z"/><path class="cls-2" d="M288.34,46.05a1.7,1.7,0,0,1-.07-.83c.35-2.6,1.28-8.74,1.77-11.27.26-1.32.63-3.41,1.41-4.42.94-1.23,2.08-1.13,3.34-1.22a7.93,7.93,0,0,1,1,.07c.85.06,3.15,1.26,3.48,2.16.59,1.64-1.6,13.37-2.15,16.19-.15.76,0,1.05-.66,1.05-.11.94-.22,1.89-.4,2.82q-.75,3.76-1.56,7.53a3,3,0,0,1-.18.64.94.94,0,0,1,.12.52,3,3,0,0,1-.11.72c-.92,4-10.48,56.29-13.56,72.67-.51,2.7-4.46,1.24-4.32-.47.41-4.71,10.15-74,10.23-74.27a.4.4,0,0,1,.12-.26c-.21-.17-.22-.41-.17-.92.2-1.8.41-3.61.66-5.42.21-1.49.48-3,.75-4.46A1.72,1.72,0,0,1,288.34,46.05Z"/><path class="cls-4" d="M288.14,56.91c.13-.87,1.74-.24,3.64,0,1.38.2,2.42.32,3.38.51.57.12.73.21.74.79a2.92,2.92,0,0,1-.11.72c-.92,4-10.48,56.3-13.56,72.67-.51,2.7-4.46,1.24-4.31-.47.4-4.71,10.14-74,10.22-74.26Z"/><path class="cls-7" d="M290.65,56.32c-.6-.15-1.1-.26-1.59-.42-.7-.22-.81-.35-.74-1,.14-1.57.28-3.15.48-4.72.16-1.29.37-2.58.6-3.87.14-.81.41-1,1.2-.73a25.85,25.85,0,0,0,6.53,1c.58,0,.71.12.65.69-.08.84-.16,1.69-.32,2.53-.41,2.18-.84,4.35-1.29,6.53-.16.78-.28.86-1.05.76s-3.7-.62-4.47-.75Z"/><path class="cls-6" d="M297.25,27.35c.85.06,3.15,1.24,3.48,2.12.6,1.6-1.53,13-2.07,15.77-.19,1,.1,1.15-1.55.92-.6-.08-6-1.09-6.76-1.23-.45-.08-.59-.63-.52-1.21.34-2.53,1.25-8.51,1.72-11,.25-1.29.62-3.32,1.39-4.31.93-1.19,2.07-1.09,3.34-1.17a6.35,6.35,0,0,1,1,.08Z"/><path class="cls-2" d="M31.6,150.58a4.28,4.28,0,0,0,0-1.42c-.17-2.19-.43-4.38-.7-6.56C30.47,139.54,20.48,65,19.47,58.7c-.19-1.17-.42-2.33-.65-3.49a4,4,0,0,0-.31-.92c-1.32-2.66-2.65-5.3-4-7.95-.46-.91-.89-1.83-1.34-2.74-.1-.19-.27-.42-.42-.45s-.34.26-.39.53c-.27,1.33-.57,2.64-.78,4-.33,2-.6,4.13-.9,6.2a3.77,3.77,0,0,1-.14.7,7.23,7.23,0,0,0-.06,3.37c.57,4,1.09,8,1.66,12,.67,4.61,8.47,68.27,9,72,.41,2.94.85,5.88,1.07,8.84a.86.86,0,0,0,0,.29c.16,1.36.82,7,.89,7.63a51.12,51.12,0,0,0,.68,5.23,3.43,3.43,0,0,0,1,2.24c.88,1,7.89-.21,8-1.26a16.6,16.6,0,0,0,0-2.73c-.08-1.54-.08-1.91-.26-3.43a.61.61,0,0,0,0-.15,4.87,4.87,0,0,0,0-.54C32.32,155.72,31.92,153,31.6,150.58Z"/><path class="cls-8" d="M21.58,151.66a15.91,15.91,0,0,0,9.26-1.17c0-.14,0-.3,0-.45-.63-6.36-11.39-85.82-12.42-92-.11-.71-.28-1.4-.43-2.11-.83,0-7.25.87-8.45,1.15,0,.52.21,1.81.27,2.23q.51,3.6,1,7.2c.86,6,9.59,76,10.3,81.37.13,1,.21,2.08.32,3.12,0,.21.06.43.1.68Z"/><path class="cls-10" d="M10.71,50.91a2.66,2.66,0,0,0,.75.08c1.13-.14,2.27-.31,3.4-.5.64-.11.81-.43.5-1.07-.8-1.73-1.63-3.43-2.48-5.13a.82.82,0,0,0-.55-.46c-.18,0-.44.26-.5.47a32.26,32.26,0,0,0-1.2,6.28,2.08,2.08,0,0,0,.08.33Z"/><path class="cls-5" d="M32.27,165.61a12.5,12.5,0,0,0,.12-2.28c0-1.45-.19-2.89-.36-4.33,0-.22-3.05.33-5.71.55-1.86.15-3.65-.12-3.62.21.15,1.76.54,4.41.84,6.15.16.91,4.54,2.29,8.73-.3Z"/><path class="cls-7" d="M31.06,151.08c0,.16-8.54,1.46-9.19.88a1,1,0,0,0,0,.25c.12,1.13.64,5.81.69,6.35s.26.75.66.73c.78,0,1.57.06,2.36,0,1.39-.17,2.8-.24,4.2-.35a5.59,5.59,0,0,0,.59-.08l1.3-.26a.3.3,0,0,0,.28-.32,2.26,2.26,0,0,0,0-.45c-.2-2-.55-4.3-.81-6.34,0-.11,0-.22-.07-.38Z"/><path class="cls-11" d="M55.42,150.87c-1.08,3.25-2.26,6.47-3.31,9.73-.6,1.85-1.06,3.75-1.57,5.63,0,.12-.07.25-.11.38-.21.56-.35.69-.93.62-1.36-.19-2.73-.35-4.06-.65-1.85-.42-3.69-.93-5.52-1.45-2-.57-4-1.18-6-1.78a15.75,15.75,0,0,1-1.5-.54c-.6-.24-.67-.45-.56-1.07.36-2,1.09-3.92,1.62-5.88.61-2.22,1.25-4.43,2-6.61,1.12-3.43,2.33-6.83,3.5-10.24.52-1.53,1-3.06,1.57-4.58.39-1.1.83-2.19,1.22-3.3.81-2.31,1.62-4.63,2.4-7,1.11-3.29,2.25-6.57,3.29-9.88s2-6.79,3-10.18q1.41-4.64,2.87-9.25c1.12-3.54,2.28-7.07,3.42-10.61q1.44-4.43,2.87-8.83C60.76,72,61.84,68.5,63,65.07q2.42-7.14,5-14.22,2.72-7.53,5.54-15c1.39-3.73,2.84-7.44,4.28-11.15,1.19-3.05,2.41-6.08,3.62-9.12.25-.62.33-.64.93-.41,1.51.56,3,1.11,4.54,1.68,1.16.43,2.31.91,3.48,1.32,1.5.53,3,1,4.52,1.53.87.31,1.73.67,2.57,1,.57.26.57.33.35.93-.46,1.27-1,2.52-1.38,3.8-1,2.81-1.86,5.63-2.79,8.44-.64,1.93-1.28,3.87-1.94,5.79Z"/><path class="cls-12" d="M43.22,164.86a3.66,3.66,0,0,1,.07-.61q1-4,1.94-7.92c.05-.21.11-.43.17-.64,1.06-3.56,2.07-7.14,3.19-10.68,1.7-5.4,3.49-10.77,5.22-16.16s3.4-10.48,5-15.75c2.65-8.65,5.7-17.17,8.56-25.75,2.26-6.78,4.46-13.57,6.74-20.34s4.5-13.24,6.79-19.84c1.63-4.68,3.31-9.34,5-14,1.61-4.45,3.25-8.89,4.87-13.34.29-.78.53-1.59.81-2.46.28.07.51.11.73.19,1.47.48,2.94,1,4.4,1.47.87.31,1.73.67,2.57,1,.58.27.59.34.38.92-.48,1.33-1,2.65-1.45,4-.9,2.66-1.77,5.33-2.65,8-.66,2-1.32,4-2,6-1.31,3.81-33.82,103.6-34.23,104.91-.53,1.68-1.07,3.37-1.62,5.05-.64,2-1.29,3.95-2,5.92-.56,1.65-1.22,3.27-1.73,4.94-.6,1.92-1.1,3.87-1.62,5.82-.22.81-.39,1-1.24.89-1.55-.22-3.1-.51-4.64-.81-.82-.16-1.63-.4-2.44-.61-.27-.08-.54-.18-.84-.28Z"/><path class="cls-13" d="M84.71,21.91l-.35,1a32.68,32.68,0,0,1-5.91-2l.36-1.1ZM80.06,32.14a4.63,4.63,0,0,1-.07.52,5,5,0,0,1-.17.55,27.47,27.47,0,0,1-5.2-1.68L75,30.47Zm-3.89,13.2-.34,1.06a30.2,30.2,0,0,1-5.91-2.3L70.28,43Zm-4.4,13-.48,1.16L65.1,57.29l.39-1.17Zm-4.6,13-.39,1.18c-2-.61-4-1.32-6-2.1l.35-1.07ZM56.48,83.82l.35-1.08,5.75,2c-.08.37-.16.73-.23,1.08A31.76,31.76,0,0,1,56.48,83.82Zm2,11.24-.36,1.1A27.68,27.68,0,0,1,53,94.47l.35-1.08Zm-3,9.87c-.08.35-.16.69-.25,1.1a39.48,39.48,0,0,1-5.21-1.65l.37-1.12ZM52.07,115.1l-.36,1.09A22.34,22.34,0,0,1,47,114.7l.34-1Zm-3.43,12.41-.38,1.17a57.4,57.4,0,0,1-5.64-1.63c.16-.36.3-.67.46-1Zm-10.26,12.1,5.37,1.63c-.11.4-.2.76-.31,1.16A56.69,56.69,0,0,1,38,140.74ZM39.1,156l-.4,1.21-5.79-1.56.38-1.14Z"/><path class="cls-14" d="M80.32,16c.16-.38.29-.68.44-1.05A14.16,14.16,0,0,1,83,16.1c.49.37.5.41.12,1A8.34,8.34,0,0,1,80.32,16ZM76.45,26.7l.36-1.08c.54.22,1,.42,1.53.64a.38.38,0,0,1,.21.59l-.29.53A4.76,4.76,0,0,1,76.45,26.7ZM75.22,39.59l-3.33-1.28c.16-.39.29-.71.41-1a12.91,12.91,0,0,1,3.41,1.29ZM70.35,50.84l-.45,1.08a17.74,17.74,0,0,1-2.61-1c.16-.38.29-.68.44-1.05Zm-7.56,13.3.33-1c.71.23,1.4.44,2.07.68a.35.35,0,0,1,.22.53c-.09.18-.19.35-.29.54A6.88,6.88,0,0,1,62.79,64.14ZM61.38,77.52,61,78.65a17.9,17.9,0,0,1-2.63-.81c.1-.36.19-.68.29-1.08ZM56.09,89.84l-1.4-.45.34-1,1.34.37ZM53.51,99.5l-.25,1.15-2.09-.51.35-1.09Zm-3.45,11.06-1.62-.7.35-1.09,1.57.63C50.27,109.76,50.18,110.08,50.06,110.56ZM45,120.92c.15-.38.26-.68.4-1,.69.23,1.36.44,2,.67a.35.35,0,0,1,.24.47c-.06.21-.13.41-.22.69A8.62,8.62,0,0,1,45,120.92Zm-4.06,10.94,2.45.81c-.1.35-.19.68-.29,1.09a22.08,22.08,0,0,1-2.47-.78ZM39.6,147.68c-.11.41-.2.77-.32,1.19-1.28-.3-2.5-.62-3.77-1,.16-.4.29-.72.44-1.06Z"/><path class="cls-2" d="M292.14,91.89l-1.36-.75a.87.87,0,0,1-.45-1.1c.25-.83.47-1.67.76-2.49.48-1.4,1-2.79,1.51-4.16.42-1,.89-2.07,1.36-3.1.63-1.35,1.27-2.7,1.91-4.05.06-.12.13-.24.19-.37a2,2,0,0,1,2.1-1.3A.74.74,0,0,0,299,74c.85-2.11,1.72-4.21,2.59-6.31.11-.28.23-.55.34-.82a.74.74,0,0,1,.76-.52,5.86,5.86,0,0,1,.93.09A33.8,33.8,0,0,1,310,68.26a8,8,0,0,1,2.17,1.21,3.52,3.52,0,0,1,.52.57.92.92,0,0,1,.12.75q-1.08,4.3-2.15,8.63c-.28,1.1-.53,2.19-.82,3.29-.12.45-.18,1-.7,1.21-.08,0-.12.2-.16.32-.33.89-.68,1.78-1,2.69-.93,2.78-1.84,5.57-2.76,8.35-.29.86-.59,1.71-.89,2.56-1.09,3.08-2.19,6.15-3.25,9.24q-1.9,5.51-3.74,11c-.47,1.43-.82,2.91-1.21,4.36a55.84,55.84,0,0,1-1.71,5.84,4.42,4.42,0,0,1-.3.66.89.89,0,0,1-1.11.46l-.3-.09-6.16-2.09c-1.17-.39-2.35-.76-3.52-1.14l-.54-.19a.35.35,0,0,1-.26-.48c.09-.32.15-.64.25-1a15.16,15.16,0,0,0,.6-2.41,3.15,3.15,0,0,1,.17-.6c.58-2,1.17-4,1.75-5.94.44-1.5.86-3,1.29-4.51.6-2.1,1.19-4.2,1.79-6.31.43-1.5.82-3,1.29-4.5.86-2.71,1.77-5.41,2.66-8.12,0-.06,0-.13.05-.22Z"/><path class="cls-8" d="M303.39,102.73q-2,6.08-4.1,12.14c-.21.61-.42,1.21-.64,1.82-.71,1.9-1.21,3.87-1.74,5.83-.25.89-.48,1.78-.71,2.67-.09.37-.17.74-.28,1.11a3.5,3.5,0,0,1-.23.58c-.18.35-.28.38-.66.27-2.24-.68-4.49-1.33-6.72-2.05-1.47-.47-2.91-1-4.36-1.56a.38.38,0,0,1-.3-.43,2.26,2.26,0,0,1,.08-.51c.35-1.14.72-2.28,1-3.43.44-1.5.84-3,1.27-4.51.35-1.22.71-2.44,1.06-3.65q.7-2.51,1.42-5c.42-1.5.85-3,1.28-4.51,1.47-5.2,3.39-10.25,5.29-15.3a31.61,31.61,0,0,1,2.24-4.92,2.28,2.28,0,0,1,.21-.3.59.59,0,0,1,.73-.21c.62.23,1.25.41,1.87.63,2.88,1,5.77,2,8.64,3.07.61.22.71.46.5,1.08-.53,1.56-1.08,3.12-1.6,4.68-.77,2.32-1.51,4.66-2.31,7-.64,1.86-1.34,3.69-2,5.53Z"/><path class="cls-15" d="M292.64,92.35c-.51-.23-1-.43-1.41-.66a.72.72,0,0,1-.31-.91c.12-.47.26-.93.41-1.4.26-.84.51-1.69.83-2.52.57-1.51,1.15-3,1.8-4.49.74-1.7,1.54-3.37,2.34-5.05A14.15,14.15,0,0,1,297,76a1.44,1.44,0,0,1,1.21-.7,2.36,2.36,0,0,1,.37,0c.58,0,.83-.24,1-.77.93-2.32,1.9-4.62,2.85-6.93a.75.75,0,0,1,.81-.52,9.45,9.45,0,0,1,1.39.18,32.54,32.54,0,0,1,6,1.76,7.57,7.57,0,0,1,2.07,1.17,2.73,2.73,0,0,1,.49.53,1,1,0,0,1,.15.84c-.61,2.37-1.2,4.74-1.79,7.11-.33,1.35-.65,2.7-1,4-.11.42-.23.84-.36,1.25-.22.64-.47.76-1.1.53-2.37-.85-4.73-1.72-7.1-2.56-1.26-.45-2.53-.87-3.79-1.31a.74.74,0,0,0-.92.4,17.49,17.49,0,0,0-1.44,2.7c-.61,1.65-1.21,3.29-1.84,4.93-.46,1.21-1,2.41-1.49,3.7Z"/><path class="cls-15" d="M283.55,123.86l1.2.36,5,1.51c1.71.53,3.41,1.08,5.11,1.62l.15.05c.57.22.59.25.36.82s-.43,1-.65,1.48a.86.86,0,0,1-1,.45l-2.12-.68-6.86-2.3c-.49-.16-1-.32-1.48-.5s-.4-.19-.3-.58l.62-2.23Z"/><path class="cls-2" d="M2.26,110.36c-.56,0-.79-.22-.9-.85s-.16-1-.2-1.54c-.14-1.65-.26-3.31-.4-5Q.4,98.64,0,94.29a1.08,1.08,0,0,1,.4-1,4.17,4.17,0,0,1,.81-.56,12.11,12.11,0,0,1,3.18-1.1,56.29,56.29,0,0,1,8.85-1.25,14.56,14.56,0,0,1,2,0,1,1,0,0,1,1,.73C17,94,21.11,106.8,20,107c1.12,4.68,7.19,40.08,7.39,41.44a2.57,2.57,0,0,1,0,.62.47.47,0,0,1-.19.34c.15,1.13.3,2.16.43,3.19.08.59,0,.67-.53.77-.73.14-1.46.26-2.19.38l-10.14,1.71c-1,.17-2.09.34-3.14.49a1.27,1.27,0,0,1-1.33-.89c-.22-.76-.44-1.52-.64-2.29-.14-.54-.18-.77,0-.91a3.83,3.83,0,0,1-.19-.74L2.28,110.94A1.66,1.66,0,0,1,2.26,110.36Z"/><path class="cls-5" d="M10.44,150.06a3.12,3.12,0,0,0,.18.73c.17.45.3.5.86.42,3.29-.5,6.59-1,9.88-1.5,2.17-.35,4.31-.83,6.47-1.25.32-.06.49-.2.52-.46a2.57,2.57,0,0,0,0-.62c-.2-1.41-7-41.32-7.48-41.22-.92.19-2.79.47-3.71.64l-12.8,2.44c-.91.17-1.1.44-1,1.21Z"/><path class="cls-12" d="M21,105.93c1.14-.21-3-13-3.73-15.9a1,1,0,0,0-1-.72,16.36,16.36,0,0,0-2,0,56.29,56.29,0,0,0-8.85,1.25,12.87,12.87,0,0,0-3.18,1.1,4.66,4.66,0,0,0-.81.56,1.08,1.08,0,0,0-.4,1q.39,4.37.75,8.73c.14,1.65.26,3.3.4,5,0,.51.11,1,.2,1.54.14.79.46,1,1.4.79l10.54-2.06Z"/><path class="cls-12" d="M28.3,148.91l-1.76.25c-2.44.37-4.88.73-7.31,1.11s-5,.8-7.52,1.2l-.22,0c-.86.18-.9.22-.7.93s.35,1.24.54,1.85a1.15,1.15,0,0,0,1.28.67c1.05-.15,2.09-.33,3.14-.51l10.13-1.76,2.18-.39c.54-.11.61-.17.56-.65-.09-.88-.21-1.76-.32-2.74Z"/><path class="cls-2" d="M202,103.35c-.34.37-.63.36-1.11,0s-.75-.54-1.11-.84c-1.13-.94-2.26-1.91-3.4-2.86q-3-2.5-6-5a1,1,0,0,1-.37-.87,3.7,3.7,0,0,1,.16-.87,11.29,11.29,0,0,1,1.29-2.72,49.9,49.9,0,0,1,4.77-6.42,13.53,13.53,0,0,1,1.24-1.27.86.86,0,0,1,1.09-.19C200.83,83.67,211.57,89.1,211,90c3.69,2.23,30.05,20.62,31,21.34a3,3,0,0,1,.39.4.4.4,0,0,1,.1.34c.82.61,1.57,1.16,2.3,1.72.43.33.44.42.16.83s-.75,1.09-1.13,1.63l-5.29,7.53c-.55.77-1.1,1.55-1.67,2.31a1.11,1.11,0,0,1-1.39.28c-.63-.33-1.25-.67-1.87-1-.43-.25-.6-.37-.58-.57a3.12,3.12,0,0,1-.59-.34l-30.08-20.7A1.53,1.53,0,0,1,202,103.35Z"/><path class="cls-5" d="M232.41,123.1a3,3,0,0,0,.57.34c.39.17.51.12.81-.29,1.75-2.4,3.54-4.79,5.26-7.23,1.13-1.6,2.18-3.27,3.27-4.9a.47.47,0,0,0,0-.62,2.11,2.11,0,0,0-.39-.4c-1-.75-30.72-21.51-31-21.14-.46.7-1.46,2.06-1.93,2.76-2.17,3.23-4.34,6.45-6.49,9.69-.46.68-.41,1,.17,1.37Z"/><path class="cls-4" d="M210.92,88.66c.58-.86-10.16-6.29-12.47-7.63a.87.87,0,0,0-1.1.19,14.75,14.75,0,0,0-1.23,1.27,49.9,49.9,0,0,0-4.77,6.42,11.33,11.33,0,0,0-1.3,2.72,3.78,3.78,0,0,0-.15.87,1,1,0,0,0,.37.87l6,5c1.14.95,2.26,1.92,3.4,2.87.36.29.73.57,1.11.83.6.41.91.32,1.38-.4,1.78-2.66,3.54-5.33,5.32-8C208.46,92.26,210,90.06,210.92,88.66Z"/><path class="cls-5" d="M242.9,111l-1,1.28q-1.95,2.67-3.89,5.35c-1.33,1.84-2.64,3.69-4,5.54l-.11.17c-.43.66-.43.71.15,1s1,.55,1.52.82a1,1,0,0,0,1.23-.4c.56-.76,1.11-1.54,1.65-2.32q2.63-3.77,5.24-7.55c.38-.55.76-1.09,1.13-1.64s.27-.5-.06-.76c-.62-.5-1.26-1-1.95-1.52Z"/><path class="cls-2" d="M43.23,138c-.3-3.07-9.92-89.7-10.83-96-.17-1.17-.39-2.34-.61-3.5a3,3,0,0,0-.33-.92c-1.52-2.65-3.06-5.29-4.59-7.93-.52-.9-1-1.83-1.54-2.73a.94.94,0,0,0-.5-.45c-.32,0-.45.27-.54.54-.42,1.34-.89,2.66-1.25,4-.55,2.07-1,4.16-1.54,6.25a4.16,4.16,0,0,1-.21.71,5.74,5.74,0,0,0-.3,3.38c.48,4,10.62,102,10.72,105,0,.64.11.75.79.8a18.11,18.11,0,0,0,2.55,0c2.39-.21,4.77-.45,7.15-.75,1.84-.23,1.57-.22,1.51-1.84C43.63,142.35,43.45,140.15,43.23,138Z"/><path class="cls-3" d="M30.8,147.21a26,26,0,0,0,11.91-1.32,3.27,3.27,0,0,0,0-.45C42.35,139.06,32,47.53,31.12,41.32c-.1-.71-.28-1.4-.42-2.11-1.11-.36-9.9.79-10.9,1.14,0,.52.18,1.95.23,2.38.29,2.41.59,4.81.88,7.22.72,6,9,88.05,9.58,93.45.11,1,.15,2.09.22,3.13,0,.21.05.43.09.68Z"/><path class="cls-3" d="M21.69,34.29a4.94,4.94,0,0,0,.95.08c1.46-.17,2.92-.36,4.38-.56.83-.12,1.06-.44.72-1.09-.92-1.72-1.88-3.43-2.85-5.12a1,1,0,0,0-.68-.45,1,1,0,0,0-.67.48A28.25,28.25,0,0,0,21.61,34a1.41,1.41,0,0,0,.08.32Z"/><path class="cls-2" d="M119.5,107.51h-.28c-2.43-.19-8.17-.77-10.54-1.1-1.24-.18-3.19-.42-4.17-1.11-1.17-.83-1.13-1.92-1.27-3.12a5.88,5.88,0,0,1,0-.94c0-.81,1-3.06,1.85-3.42,1.45-.63,11.75.74,14.83,1.17a3.42,3.42,0,0,1,.57,0c1.85.13,7.16.42,7.38,1.64a21.52,21.52,0,0,1,.09,3.79c0,.81-.64,2.93-1.51,3.45S121.26,107.73,119.5,107.51Z"/><path class="cls-16" d="M103.42,101.94c0-.8,1-3.06,1.85-3.41,1.5-.66,12.48.83,15.13,1.2.94.14,1.09-.15.95,1.44,0,.57-.74,5.75-.84,6.5-.06.43-.57.59-1.13.55-2.43-.2-8.17-.77-10.54-1.11a10.9,10.9,0,0,1-4.16-1.11c-1.18-.83-1.14-1.92-1.28-3.12a5.93,5.93,0,0,1,0-.94Z"/><path class="cls-17" d="M128.14,105.11c0,.81-.57,2.94-1.25,3.49s-4.64-.08-5.66-.18c-.66-.07-.32-1.17,0-4.33.36-3.58.07-4.23,1.32-4.17,1.42.08,5.49.21,5.63,1.42a28.83,28.83,0,0,1-.05,3.77Z"/><path class="cls-2" d="M98.93,93.33l-.14.19c-1.36,1.59-4.64,5.29-6.08,6.77a8.5,8.5,0,0,1-2.92,2.28c-1.22.35-2-.31-3-.9a7.46,7.46,0,0,1-.7-.56c-.62-.48-1.85-2.49-1.72-3.27.23-1.38,6.39-7.83,8.25-9.74a2,2,0,0,1,.28-.41c1-1.22,6.15-7.21,7.2-6.67a23.69,23.69,0,0,1,3,2.13c.63.46,2,2.14,1.91,3S100,92.22,98.93,93.33Z"/><path class="cls-8" d="M85.08,101.1c-.62-.48-1.85-2.49-1.72-3.28.24-1.42,6.83-8.28,8.43-9.92.57-.59.43-.86,1.58.15.42.37,4,3.85,4.59,4.35.3.29.17.74-.14,1.11-1.36,1.59-4.64,5.29-6.08,6.76a8.44,8.44,0,0,1-2.92,2.29c-1.22.35-2-.31-3-.91a6.4,6.4,0,0,1-.71-.55Z"/><path class="cls-4" d="M102.06,83.13A7,7,0,0,1,104.12,86c.08.86-4.64,5.65-5.23,6.31-.38.42-1.06-.46-3.33-2.51C93,87.5,92.34,87.33,93,86.49s5.17-6.17,6.16-5.57a29.12,29.12,0,0,1,2.89,2.21Z"/><path class="cls-11" d="M246.18,140.3c-2,.85-4,1.7-6,2.57q-4.53,1.95-9.09,4c-2.19,1-4.41,2-6.62,3.06l-5.65,2.61L212,155.69l-5.93,2.82c-2.17,1.05-4.36,2.16-6.52,3.18s-4.22,1.93-6.32,2.88c-1.49.67-3,1.32-4.45,2-.71.31-1.4.58-2.11.89l-2.69,1.2,15.66-44.55ZM274.45,138c.07-.18-57.54-20.8-59.16-21.34s-3.15-1.11-4.72-1.68l-3.32-1.24c-.53-.21-1.05-.44-1.57-.64l-2.19-.82c-1.37-.51-10.31-3.85-10.64-3.95s-.5-.06-.65.2a22.24,22.24,0,0,0-1.13,2.67c-.44,1-.84,2-1.2,3.06-.57,1.61-1.08,3.25-1.62,4.88-.24.73-.48,1.46-.71,2.19-.17.53-.31,1.07-.48,1.6-.35,1.11-.71,2.23-1.08,3.33-.53,1.57-1,3.14-1.61,4.69s-1.24,3.13-1.84,4.69-1.09,2.88-1.61,4.32c-.61,1.66-13.87,40.58-14.34,42s-2,5.8-2.14,6.69c-.08.38.3.4.66.25l.24-.12c1.21-.61,2.43-1.27,3.61-1.81,2.09-1,4.14-1.85,6.23-2.8l71.12-32.78c1.23-.54,2.47-1.11,3.7-1.67l5.4-2.47c.82-.37,1.62-.69,2.43-1,.38-.17,16.15-7,16.53-7.94A1.34,1.34,0,0,0,274.45,138Z"/><path class="cls-12" d="M246.73,141.44c-2,.85-4,1.7-6,2.57q-4.53,2-9.09,4c-2.19,1-4.41,2-6.62,3.06l-5.65,2.61-6.79,3.15-5.93,2.82c-2.17,1-4.36,2.16-6.52,3.18s-4.22,1.93-6.32,2.88c-1.49.67-3,1.32-4.45,2-.71.31-1.4.58-2.11.89l-2.69,1.2,15.66-44.55ZM263,139.71c.06-.18-47-17.1-48.6-17.64s-3.15-1.11-4.72-1.68l-3.32-1.25c-.53-.2-1-.43-1.57-.64-.73-.28-1.46-.54-2.19-.81-1.37-.51-6.09-2.37-6.41-2.47s-.51-.07-.66.2a23.22,23.22,0,0,0-1.13,2.67c-.43,1-.84,2-1.2,3-.56,1.62.4-1-.13.66-.24.73-.49,1.46-.72,2.19-.16.53-.3,1.07-.47,1.6q-.53,1.68-1.08,3.33c-.53,1.57-1,3.14-1.61,4.69s-1.24,3.13-1.84,4.7-1.09,2.87-1.62,4.31c-.6,1.66-10.17,30-10.64,31.48s-2,5.79-2.14,6.68c-.08.39.31.41.66.26l.25-.12c1.2-.61,2.42-1.27,3.61-1.82,2.08-1,85.06-38.11,85.43-39.08A1.31,1.31,0,0,0,263,139.71Z"/><path class="cls-18" d="M179.6,144.82l2.68.77c.11-.38.21-.71.33-1.1a17.59,17.59,0,0,0-2.69-.76C179.81,144.12,179.72,144.43,179.6,144.82Zm9.28-26.56,2.58,1,.42-1.1a18.54,18.54,0,0,0-2.55-.94C189.18,117.59,189.05,117.89,188.88,118.26Zm-11.3,31.81,2.67.78c.12-.39.21-.71.33-1.1a18.7,18.7,0,0,0-2.68-.77ZM182.36,137c.69.24,1.36.49,2,.71a.35.35,0,0,0,.49-.28c.05-.19.08-.38.12-.59a6.74,6.74,0,0,0-2.27-.83Zm2-5.25,2,.7a.35.35,0,0,0,.5-.28c0-.19.07-.38.12-.59a6.56,6.56,0,0,0-2.28-.82Zm7-20.53-.38,1,1.27.51.48-1Zm-16.11,46.07a12.48,12.48,0,0,0,3.46,1c.07-.3.15-.63.25-1.07l-3.39-1C175.46,156.65,175.36,157,175.27,157.28Zm-7.58,22.38a14.62,14.62,0,0,0,2.48.47c.61,0,.64,0,.75-.75a8.36,8.36,0,0,0-2.92-.8Zm1.6-5.39,1.6.42a.4.4,0,0,0,.54-.34c0-.18.07-.37.1-.59a4.82,4.82,0,0,0-1.83-.55ZM166,185a13.9,13.9,0,0,0,2.48.48c.62,0,.65,0,.75-.75a8.59,8.59,0,0,0-2.92-.81Zm20.88-61.51,2.58,1,.42-1.09a17.75,17.75,0,0,0-2.55-.94Zm-15.75,45.43c.56.15,1.07.3,1.59.42a.4.4,0,0,0,.54-.33c0-.19.07-.38.11-.59a4.71,4.71,0,0,0-1.83-.56Zm2.13-6.4a12.58,12.58,0,0,0,3.46,1l.25-1.08-3.39-1C173.44,161.9,173.34,162.23,173.24,162.54Zm23-49.65a8.46,8.46,0,0,0,.81-2.92l-1.08-.31a15.94,15.94,0,0,0-.48,2.48C195.53,112.76,195.56,112.79,196.28,112.89Zm48.22,14.32c-.24.69-.49,1.36-.71,2a.35.35,0,0,0,.28.49c.19,0,.38.08.59.12a6.74,6.74,0,0,0,.83-2.27ZM258,134.7a17.32,17.32,0,0,0,.94-2.55l-1-.44c-.37.91-.69,1.71-1,2.57Zm5.19-1c-.36.91-.68,1.72-1,2.58l1.1.42a19,19,0,0,0,.94-2.55Zm-56.09-17.46.59.11a4.82,4.82,0,0,0,.55-1.83l-1.06-.41c-.15.56-.29,1.08-.42,1.6A.39.39,0,0,0,207.14,116.27Zm-5.66-2c0,.62,0,.65.76.75a8.46,8.46,0,0,0,.8-2.91l-1.08-.32A15.94,15.94,0,0,0,201.48,114.26Zm29.16,10.84,1.1.33a18.7,18.7,0,0,0,.77-2.68l-1.09-.32Zm39.16,12.5.48-1.37-1-.39c-.15.39-.32.8-.51,1.28Zm-50.61-16.48c.35-1.17.46-1.57.79-2.71l-1-.32a8.44,8.44,0,0,0-.84,2.78Zm-6.72-3,.59.11a4.93,4.93,0,0,0,.55-1.84l-1.06-.4c-.15.56-.29,1.07-.42,1.59A.4.4,0,0,0,212.47,118.09Zm36.86,13.68.59.11a6.44,6.44,0,0,0,.82-2.27l-1-.38c-.24.7-.48,1.36-.7,2A.35.35,0,0,0,249.33,131.77ZM224.24,120a11.29,11.29,0,0,0-.86,2.94l1.07.25c.35-1.17.48-1.73.82-2.86Zm12.43,4.49c-.25.88-.5,1.75-.77,2.67l1.1.34a17.92,17.92,0,0,0,.76-2.69Z"/><path class="cls-2" d="M68.59,140l-.31-.23a8.56,8.56,0,0,0-6.13-1.31A3.34,3.34,0,0,0,60,139.59a7.7,7.7,0,0,0-.85,1.47,2.58,2.58,0,0,0-.3,1.37A8.82,8.82,0,0,0,60,146.67a2.77,2.77,0,0,0,1.2,1.12,10.52,10.52,0,0,0,3.36.9,3.39,3.39,0,0,0,1.75-.27A12,12,0,0,0,68.84,147a2.8,2.8,0,0,0,.84-1,6.47,6.47,0,0,0,.62-2.44,1.4,1.4,0,0,0,0-.54c-.16-.51-.32-1-.53-1.53A4.48,4.48,0,0,0,68.59,140Zm20.55,21.91a4.89,4.89,0,0,0-1.24,2.8,4.17,4.17,0,0,0,.5,2.85,15.82,15.82,0,0,0,.94,1.37,1.8,1.8,0,0,0,.77.61,5.74,5.74,0,0,1,.78.4,2.36,2.36,0,0,0,1.33.4,15.94,15.94,0,0,0,2.07-.2,3.61,3.61,0,0,0,2.26-1.44,6,6,0,0,0,1-2.26,3.93,3.93,0,0,0,.09-1.77,9.23,9.23,0,0,0-1-2.34,2.27,2.27,0,0,0-.44-.49A5,5,0,0,0,95,161a5.1,5.1,0,0,0-1.94-.56,13.53,13.53,0,0,0-1.91,0,1.73,1.73,0,0,0-.69.24A4.51,4.51,0,0,0,89.14,161.88Zm-5.41-17.09a16.58,16.58,0,0,0-5.94,1.69c-2.66,1.39-5.31,2.78-8,4.2a23.52,23.52,0,0,1-2.57,1.26,9.42,9.42,0,0,1-6.42-.37c-.6-.34-1.18-.72-1.77-1.09a8.07,8.07,0,0,1-2.81-4.93,10.19,10.19,0,0,1,0-4.43c0-.13.05-.27.09-.4A8.8,8.8,0,0,1,59.68,136c.18-.12.34-.25.5-.38a4.88,4.88,0,0,1,2.56-1,8.89,8.89,0,0,1,4.09.52,13.43,13.43,0,0,1,4.2,2.41A22.61,22.61,0,0,1,73.68,140a4.23,4.23,0,0,0,.78.68,1.87,1.87,0,0,0,1.37.21,8.12,8.12,0,0,0,1.45-.37c1.72-.62,4.54-1.54,6.25-2.19.24-.1.47-.24.71-.34a5.5,5.5,0,0,1,1.64-2.2,2.58,2.58,0,0,1,.81-.41c0-.16.06-.32.09-.47.6-3,6.69-22.44,7.21-23.6a6.67,6.67,0,0,1,.53-.94.78.78,0,0,1,1.43.05,3.29,3.29,0,0,1,.26.61c.29.92-1,21.82-1.23,23.16.55-.23,20.41-6.84,21.8-7a6.16,6.16,0,0,1,1,0,1.09,1.09,0,0,1,.43.11.71.71,0,0,1,.34,1c-.17.28-24,15-24.48,15.16a1.6,1.6,0,0,1-.55.06,38.66,38.66,0,0,0-.72,7.36,12.89,12.89,0,0,0,.36,2.76,5.15,5.15,0,0,0,.84,1.75,1,1,0,0,0,.32.26,20.43,20.43,0,0,1,3.89,2.69,10.23,10.23,0,0,1,2.43,3,5.45,5.45,0,0,1,.57,2.89,13.07,13.07,0,0,1-.59,3.1,9.24,9.24,0,0,1-1.23,2.35l-.39.55a6.64,6.64,0,0,1-1.52,1.52,9.88,9.88,0,0,1-2.53,1.43,7.83,7.83,0,0,1-3.33.34,9.2,9.2,0,0,1-3.74-1,5.64,5.64,0,0,1-1.49-1.26,10.45,10.45,0,0,1-2-3.06,6.37,6.37,0,0,1-.51-2.8,19.12,19.12,0,0,1,1.46-6.42,30.62,30.62,0,0,0,1.11-3.31c.25-.9.5-1.8.71-2.7s.37-1.74.53-2.61a4.48,4.48,0,0,0,.06-.62,1.85,1.85,0,0,0-1-1.68A8.89,8.89,0,0,1,84.3,146,3.88,3.88,0,0,1,83.73,144.79Z"/><path class="cls-4" d="M98.41,169.22a6.54,6.54,0,0,1-1.53,1.53,10.45,10.45,0,0,1-2.52,1.43,8.18,8.18,0,0,1-3.33.34,9.26,9.26,0,0,1-3.75-1,6.16,6.16,0,0,1-1.49-1.25,11,11,0,0,1-2-3.06,6.55,6.55,0,0,1-.5-2.81A18.93,18.93,0,0,1,84.77,158a29.9,29.9,0,0,0,1.11-3.31c.25-.9.5-1.79.71-2.7s.36-1.74.53-2.61a3.18,3.18,0,0,0,0-.62,1.8,1.8,0,0,0-1-1.67,8.87,8.87,0,0,1-2.45-2.16,4.07,4.07,0,0,1-.72-2.31,16.63,16.63,0,0,1,.09-2.45c.13-1,.34-2,.57-3a4.56,4.56,0,0,1,1.63-2.49,2.48,2.48,0,0,1,.81-.41,7,7,0,0,1,2.84-.33,17.16,17.16,0,0,1,2.13.34,4.39,4.39,0,0,1,2.45,1.64,2,2,0,0,1,.31,1.85c-.18.71-.28,1.44-.43,2.16-.1.52-.21,1-.32,1.55a41.94,41.94,0,0,0-.91,8.35,12.82,12.82,0,0,0,.37,2.76,4.85,4.85,0,0,0,.84,1.76.89.89,0,0,0,.32.25,20.48,20.48,0,0,1,3.89,2.7,10.22,10.22,0,0,1,2.43,3,5.47,5.47,0,0,1,.56,2.9,12.59,12.59,0,0,1-.59,3.1,9.25,9.25,0,0,1-1.23,2.35l-.38.54Zm-9.82-8.46a4.87,4.87,0,0,0-1.24,2.79,4.16,4.16,0,0,0,.5,2.85c.28.48.61.93.93,1.38a1.79,1.79,0,0,0,.78.6,5.62,5.62,0,0,1,.77.4,2.24,2.24,0,0,0,1.34.4,15.62,15.62,0,0,0,2.06-.19A3.62,3.62,0,0,0,96,167.54a6.2,6.2,0,0,0,1-2.26,3.92,3.92,0,0,0,.08-1.77,8.62,8.62,0,0,0-1-2.33,2.08,2.08,0,0,0-.44-.5,5.23,5.23,0,0,0-1.27-.85,5.37,5.37,0,0,0-2-.55,13.55,13.55,0,0,0-1.91,0,1.63,1.63,0,0,0-.69.24,4.22,4.22,0,0,0-1.3,1.22Zm1-19.6a1.86,1.86,0,0,0,.38-1,1.44,1.44,0,0,0-1.55-1.55,2.28,2.28,0,0,0-1.6.89,1.42,1.42,0,0,0,.23,2,1.9,1.9,0,0,0,2.54-.34Z"/><path class="cls-4" d="M58.53,149.36a8.13,8.13,0,0,1-2.82-4.94,10.3,10.3,0,0,1,0-4.42,2.73,2.73,0,0,1,.1-.41,8.79,8.79,0,0,1,3.36-4.77,5.86,5.86,0,0,0,.5-.37,4.85,4.85,0,0,1,2.55-1,8.63,8.63,0,0,1,4.09.52,13.34,13.34,0,0,1,4.21,2.4,23.37,23.37,0,0,1,2.64,2.53,4,4,0,0,0,.79.68,1.87,1.87,0,0,0,1.37.22,9.07,9.07,0,0,0,1.45-.37c1.72-.63,3.43-1.28,5.14-1.93.25-.09.47-.24.71-.34A1.37,1.37,0,0,1,83,137c.3,0,.41.1.36.4a4.18,4.18,0,0,1-.15.61,12.13,12.13,0,0,0-.44,4.32,7.69,7.69,0,0,1,0,1c0,.44-.17.61-.62.62a11,11,0,0,0-5,1.43c-2.65,1.38-5.31,2.77-7.94,4.19a22.77,22.77,0,0,1-2.58,1.26,9.37,9.37,0,0,1-6.42-.36c-.6-.35-1.17-.73-1.76-1.09ZM68,138.85a3.46,3.46,0,0,0-.31-.23,8.54,8.54,0,0,0-6.12-1.32,3.38,3.38,0,0,0-2.15,1.16,8,8,0,0,0-.85,1.47,2.73,2.73,0,0,0-.31,1.37,8.94,8.94,0,0,0,1.19,4.25,2.74,2.74,0,0,0,1.2,1.11,10.16,10.16,0,0,0,3.36.9,3.42,3.42,0,0,0,1.76-.26,12.8,12.8,0,0,0,2.49-1.42,2.88,2.88,0,0,0,.84-1,6.71,6.71,0,0,0,.62-2.45,1.37,1.37,0,0,0,0-.53c-.16-.52-.33-1-.53-1.53A4.41,4.41,0,0,0,68,138.85Z"/><path class="cls-16" d="M93.39,134.91A4.1,4.1,0,0,0,92,134.1a16.09,16.09,0,0,0-3.63-.71,7.9,7.9,0,0,0-1.37.06c-.39,0-.51-.06-.49-.46,0-.19,6.46-21.63,7-22.8a5.81,5.81,0,0,1,.53-.94.78.78,0,0,1,1.43,0,3.12,3.12,0,0,1,.26.62c.28.91-1.17,22.94-1.48,24.68a.5.5,0,0,1,0,.12c-.13.54-.3.59-.71.24Z"/><path class="cls-16" d="M93.62,142.06a2.44,2.44,0,0,1,0-.46c0-.44.08-.89.15-1.32.34-2.32.7-4.64,1-7a.72.72,0,0,1,.47-.63c.46-.18,19.58-6.46,21-6.58a7.49,7.49,0,0,1,1,0,1.11,1.11,0,0,1,.44.12.69.69,0,0,1,.33,1c-.16.28-23.06,14.56-23.52,14.73a2.93,2.93,0,0,1-.81.08Z"/><path class="cls-2" d="M165.65,139.57a27.12,27.12,0,0,0-2.68.88l-.26.14-.27.12a12.47,12.47,0,0,0-1.69.69,1,1,0,0,0-.52,1,2.72,2.72,0,0,0,.42,1.13,1,1,0,0,0,.35.34,2.07,2.07,0,0,1,.35.22.92.92,0,0,0,.52.19,5.66,5.66,0,0,0,1.64-.13,21.29,21.29,0,0,0,2.81-.78c.92-.32,1.87-.56,2.8-.82l.6-.17a.45.45,0,0,1,.23,0,.23.23,0,0,1,.21.2.22.22,0,0,1-.1.26.7.7,0,0,1-.23.11c-.52.15-1,.28-1.55.44l-2,.62a22.24,22.24,0,0,1-2.88.77,6.2,6.2,0,0,1-1.61.08,1.41,1.41,0,0,1-.71-.27c-.11-.09-.24-.15-.35-.23a2.86,2.86,0,0,1-.42-.36,2.9,2.9,0,0,1-.61-1.71,1.35,1.35,0,0,1,.74-1.31c.23-.13.48-.23.72-.34s.34-.19.51-.26l1.32-.52c1.17-.45,2.39-.78,3.6-1.13l1.14-.34,2.4-.66.8-.22a.9.9,0,0,1,.89.2,2.8,2.8,0,0,1,.54.69,4.1,4.1,0,0,1,.56,1.52,1.07,1.07,0,0,1-.73,1.24c-.52.2-1.06.36-1.6.54s-.9.27-1.34.43c-1.44.52-2.9.93-4.37,1.36a3.19,3.19,0,0,1-.82.12.94.94,0,0,1-1-.57c-.1-.21-.2-.42-.29-.63a1.69,1.69,0,0,1-.06-1,.92.92,0,0,1,.43-.62,3.68,3.68,0,0,1,1-.45l1.25-.35,2.07-.56.87-.21c.76-.17,1.51-.36,2.24-.6a1.57,1.57,0,0,1,.29-.08.24.24,0,0,1,.13.47l-.28.1c-1,.34-2,.58-3,.83l-1.36.38c-.67.18-1.34.35-2,.55a5.16,5.16,0,0,0-.77.31.6.6,0,0,0-.35.56,1.66,1.66,0,0,0,.17.76c0,.11.11.2.16.3a.41.41,0,0,0,.46.27,4.85,4.85,0,0,0,.75-.11c.4-.1.79-.23,1.18-.35l2.11-.64.85-.3,1.74-.55,1.2-.41.08,0a.58.58,0,0,0,.4-.74,3.25,3.25,0,0,0-.4-1.09,6.25,6.25,0,0,0-.4-.6.48.48,0,0,0-.56-.17c-.86.25-1.73.46-2.59.7-.42.11-.83.25-1.24.38l-1.49.43Z"/><path class="cls-8" d="M166.14,139.74a27.12,27.12,0,0,0-2.68.88l-.27.14a1.69,1.69,0,0,1-.27.11,15.43,15.43,0,0,0-1.69.7,1,1,0,0,0-.51,1,2.81,2.81,0,0,0,.41,1.12,1.06,1.06,0,0,0,.36.34,2.64,2.64,0,0,1,.35.23,1.06,1.06,0,0,0,.52.19,6,6,0,0,0,1.63-.13,22.65,22.65,0,0,0,2.82-.79c.92-.31,1.86-.56,2.8-.81l.59-.18.24,0a.24.24,0,0,1,.21.21.22.22,0,0,1-.1.26.67.67,0,0,1-.23.1l-1.55.44c-.68.21-1.36.41-2,.63a20.7,20.7,0,0,1-2.88.76,5.82,5.82,0,0,1-1.61.09,1.42,1.42,0,0,1-.71-.28c-.11-.08-.24-.14-.35-.22a2.47,2.47,0,0,1-.42-.37,2.79,2.79,0,0,1-.61-1.71,1.35,1.35,0,0,1,.74-1.31c.23-.12.48-.22.72-.34s.34-.18.51-.25c.44-.18.87-.36,1.31-.52,1.18-.45,2.4-.79,3.61-1.13.38-.11.76-.24,1.14-.34l2.4-.67.8-.21a.88.88,0,0,1,.89.2,2.5,2.5,0,0,1,.53.68,4,4,0,0,1,.57,1.52,1.09,1.09,0,0,1-.73,1.25c-.53.2-1.07.36-1.6.53s-.9.28-1.34.44c-1.44.52-2.91.93-4.37,1.36a3.78,3.78,0,0,1-.82.12,1,1,0,0,1-1-.57c-.1-.21-.19-.42-.28-.64a1.66,1.66,0,0,1-.06-1,1,1,0,0,1,.43-.63,3.83,3.83,0,0,1,1-.44c.41-.13.83-.24,1.25-.35l2.07-.56c.29-.08.58-.14.87-.21a21.81,21.81,0,0,0,2.24-.61,1.53,1.53,0,0,1,.29-.07.24.24,0,0,1,.29.18.25.25,0,0,1-.16.29c-.09,0-.19.06-.28.09-1,.35-2,.58-3,.84-.46.11-.91.25-1.36.37l-2,.55a6.56,6.56,0,0,0-.77.32.58.58,0,0,0-.35.55,1.67,1.67,0,0,0,.17.77l.16.3a.43.43,0,0,0,.46.27,6.46,6.46,0,0,0,.75-.11l1.18-.35,2.11-.65.84-.29,1.75-.56,1.2-.4.07,0a.58.58,0,0,0,.41-.74,3,3,0,0,0-.41-1.1,5.46,5.46,0,0,0-.39-.59.47.47,0,0,0-.56-.17l-2.6.7c-.41.11-.82.25-1.23.37l-1.49.44Z"/><path class="cls-2" d="M155.92,125.6c.11.64.49,3,.57,3.58,0,.33.1.67.13,1a1.35,1.35,0,0,1,0,.45.55.55,0,0,1-.43.45,2.57,2.57,0,0,1-1.07.06.7.7,0,0,1-.57-.42,2.23,2.23,0,0,1-.16-.43,24.73,24.73,0,0,1-.56-2.95c-.09-.75-.18-1.49-.28-2.24a.61.61,0,0,1,0-.14.18.18,0,0,1,.15-.17.19.19,0,0,1,.22.1.33.33,0,0,1,0,.14c.08.49.15,1,.22,1.49s.16,1,.23,1.51a20.15,20.15,0,0,0,.42,2.08,3,3,0,0,0,.14.42.29.29,0,0,0,.22.16,2.14,2.14,0,0,0,.87-.05.17.17,0,0,0,.14-.17,1.6,1.6,0,0,0,0-.31c-.13-1.08-.28-2.15-.48-3.22-.09-.45-.15-.91-.23-1.37a3.85,3.85,0,0,0-.41-1.18.49.49,0,0,0-.26-.23,1,1,0,0,0-.89,0,.92.92,0,0,0-.57.79,6,6,0,0,0,0,.85A37.68,37.68,0,0,0,154,130c.11.54.24,1.08.37,1.61a5.08,5.08,0,0,0,.17.51,1.83,1.83,0,0,0,.59.81.45.45,0,0,0,.37.09,1.61,1.61,0,0,0,.56-.15l.31-.15a1,1,0,0,0,.45-.6,2.92,2.92,0,0,0,.12-1.14c0-.21,0-.42-.08-.63-.22-1.39-.45-2.78-.67-4.16a.49.49,0,0,1,0-.17.21.21,0,0,1,.19-.19.2.2,0,0,1,.22.13.9.9,0,0,1,.06.22l.39,2.32c.11.7.22,1.4.32,2.1a3.74,3.74,0,0,1-.09,1.63,1.48,1.48,0,0,1-.8,1,3.28,3.28,0,0,1-.87.28.92.92,0,0,1-.87-.29,1.31,1.31,0,0,0-.11-.12,1.86,1.86,0,0,1-.55-.88c-.12-.39-.23-.78-.32-1.18-.27-1.21-.51-2.43-.66-3.66a19.73,19.73,0,0,1-.21-2.16.56.56,0,0,0,0-.13,1.4,1.4,0,0,1,.51-1.13,1.33,1.33,0,0,1,1.28-.31c.65.17.67.24.93.79A4.28,4.28,0,0,1,155.92,125.6Z"/><path class="cls-3" d="M155.57,125.1c.11.64.5,3,.57,3.58.05.34.1.67.13,1a1.36,1.36,0,0,1,0,.45.56.56,0,0,1-.43.44,2.58,2.58,0,0,1-1.07.07.73.73,0,0,1-.58-.43,2.1,2.1,0,0,1-.15-.42,23.22,23.22,0,0,1-.56-3c-.09-.75-.19-1.49-.28-2.24a.38.38,0,0,1,0-.15.18.18,0,0,1,.15-.17.18.18,0,0,1,.21.11.34.34,0,0,1,.05.14c.07.49.14,1,.22,1.48s.15,1,.22,1.52c.1.7.26,1.39.42,2.08a2.86,2.86,0,0,0,.15.41.24.24,0,0,0,.21.16,2,2,0,0,0,.88,0,.19.19,0,0,0,.14-.18c0-.1,0-.21,0-.31-.12-1.07-.28-2.15-.48-3.21-.08-.46-.15-.91-.23-1.37a3.74,3.74,0,0,0-.4-1.18.49.49,0,0,0-.26-.23,1.07,1.07,0,0,0-.89,0,.92.92,0,0,0-.57.8,4.72,4.72,0,0,0,0,.84,38.2,38.2,0,0,0,.63,4.25c.11.54.24,1.07.37,1.61,0,.17.11.34.16.51a2,2,0,0,0,.6.8.43.43,0,0,0,.36.1,1.85,1.85,0,0,0,.57-.15l.31-.15a1,1,0,0,0,.45-.6,3.18,3.18,0,0,0,.11-1.15c0-.21,0-.42-.08-.63-.22-1.38-.44-2.77-.67-4.16a.86.86,0,0,1,0-.16.21.21,0,0,1,.19-.19.2.2,0,0,1,.23.13l.06.22c.13.77.26,1.54.38,2.32s.23,1.39.32,2.09a3.64,3.64,0,0,1-.09,1.64,1.44,1.44,0,0,1-.8.95,3.36,3.36,0,0,1-.86.29,1,1,0,0,1-.88-.3l-.11-.12a1.74,1.74,0,0,1-.54-.87c-.12-.39-.24-.79-.33-1.18-.27-1.22-.5-2.43-.66-3.67a19.26,19.26,0,0,1-.2-2.16v-.13a1.41,1.41,0,0,1,.5-1.12,1.35,1.35,0,0,1,1.28-.31c.66.17.67.24.94.78A4.36,4.36,0,0,1,155.57,125.1Z"/><path class="cls-2" d="M74.79,124.26c.65.06,3,.3,3.61.37.33.05.67.08,1,.14a1.53,1.53,0,0,1,.43.13.58.58,0,0,1,.32.54,2.48,2.48,0,0,1-.21,1,.7.7,0,0,1-.56.45,1.71,1.71,0,0,1-.45,0,23.16,23.16,0,0,1-3-.22l-2.23-.3a.32.32,0,0,1-.14,0,.18.18,0,0,1-.13-.18.18.18,0,0,1,.16-.19h.14l1.49.17c.51,0,1,.1,1.53.17.7.09,1.41.11,2.12.13a3.42,3.42,0,0,0,.44,0,.25.25,0,0,0,.2-.16,2,2,0,0,0,.18-.86.17.17,0,0,0-.13-.18l-.3-.08c-1.07-.15-2.15-.28-3.23-.36-.46,0-.92-.09-1.38-.13a4,4,0,0,0-1.25.09.53.53,0,0,0-.29.19,1,1,0,0,0-.24.86.91.91,0,0,0,.62.75,6.12,6.12,0,0,0,.82.2,36.22,36.22,0,0,0,4.27.48c.55,0,1.1,0,1.65.06a4.58,4.58,0,0,0,.53,0,1.82,1.82,0,0,0,.93-.37.42.42,0,0,0,.19-.33,1.62,1.62,0,0,0,0-.58c0-.11,0-.23-.07-.34a.94.94,0,0,0-.46-.59,2.93,2.93,0,0,0-1.08-.4,6,6,0,0,0-.63-.09l-4.19-.42a.45.45,0,0,1-.16,0,.23.23,0,0,1-.14-.24.22.22,0,0,1,.19-.18h.23l2.34.22,2.11.23a3.89,3.89,0,0,1,1.55.51,1.44,1.44,0,0,1,.72,1,3.08,3.08,0,0,1,0,.91,1,1,0,0,1-.51.77.61.61,0,0,0-.14.07,1.7,1.7,0,0,1-1,.3c-.41,0-.81,0-1.22,0-1.24,0-2.48-.13-3.71-.3a15.42,15.42,0,0,1-2.14-.36l-.13,0a1.36,1.36,0,0,1-1-.78,1.33,1.33,0,0,1,0-1.31c.34-.59.41-.59,1-.7A4.52,4.52,0,0,1,74.79,124.26Z"/><path class="cls-3" d="M74.23,124.47c.64.06,3,.3,3.6.37l1,.13a1.8,1.8,0,0,1,.43.14.54.54,0,0,1,.31.53,2.53,2.53,0,0,1-.21,1,.7.7,0,0,1-.55.45,2.38,2.38,0,0,1-.46,0,23,23,0,0,1-3-.22l-2.24-.3-.14,0a.18.18,0,0,1-.13-.19.19.19,0,0,1,.16-.18h.15l1.49.17,1.52.17c.71.09,1.41.11,2.12.13a2.17,2.17,0,0,0,.44,0,.28.28,0,0,0,.21-.17,2.09,2.09,0,0,0,.18-.85.18.18,0,0,0-.14-.19,1.46,1.46,0,0,0-.3-.07c-1.07-.16-2.14-.28-3.23-.36l-1.38-.13a3.78,3.78,0,0,0-1.25.09.51.51,0,0,0-.29.19,1.06,1.06,0,0,0-.24.85.94.94,0,0,0,.62.76,5.9,5.9,0,0,0,.83.2,38,38,0,0,0,4.26.48q.83,0,1.65.06c.18,0,.36,0,.54,0a2,2,0,0,0,.93-.37.45.45,0,0,0,.19-.33,1.62,1.62,0,0,0,0-.58l-.06-.34a.94.94,0,0,0-.46-.59,3,3,0,0,0-1.08-.4l-.63-.09-4.19-.42-.16,0a.2.2,0,0,1-.14-.23.2.2,0,0,1,.18-.18.89.89,0,0,1,.23,0l2.34.22c.7.07,1.41.14,2.11.23a3.78,3.78,0,0,1,1.56.51,1.45,1.45,0,0,1,.71,1,3.46,3.46,0,0,1,.06.91.94.94,0,0,1-.51.76l-.15.08a1.79,1.79,0,0,1-1,.3c-.41,0-.82,0-1.23,0-1.24,0-2.48-.13-3.71-.3a19.11,19.11,0,0,1-2.14-.36l-.13,0a1.41,1.41,0,0,1-1-.78,1.3,1.3,0,0,1,0-1.31c.33-.6.4-.59,1-.71A4.52,4.52,0,0,1,74.23,124.47Z"/><path class="cls-2" d="M161.55,150.2c.59.28,2.75,1.36,3.24,1.62l.9.48a1.54,1.54,0,0,1,.35.28.55.55,0,0,1,.11.61,2.55,2.55,0,0,1-.57.91.73.73,0,0,1-.68.22,3.17,3.17,0,0,1-.44-.12,24,24,0,0,1-2.72-1.27l-2-1.07-.13-.08a.2.2,0,0,1,0-.23.19.19,0,0,1,.21-.11.34.34,0,0,1,.14.05l1.33.68,1.37.7a20.85,20.85,0,0,0,1.93.88c.14.05.28.08.43.12a.27.27,0,0,0,.25-.08,2,2,0,0,0,.47-.74.17.17,0,0,0-.06-.22,2.2,2.2,0,0,0-.25-.17c-1-.53-1.91-1-2.89-1.49-.42-.19-.83-.41-1.25-.61a3.87,3.87,0,0,0-1.2-.36.57.57,0,0,0-.34.08,1.09,1.09,0,0,0-.53.71.94.94,0,0,0,.32.93,4.72,4.72,0,0,0,.69.48,40.47,40.47,0,0,0,3.82,2c.5.23,1,.43,1.52.64a5.16,5.16,0,0,0,.52.16,1.89,1.89,0,0,0,1,0,.49.49,0,0,0,.29-.24,1.59,1.59,0,0,0,.2-.55c0-.11,0-.23.06-.34a.92.92,0,0,0-.22-.71,3,3,0,0,0-.87-.76l-.55-.31-3.77-1.88a.42.42,0,0,1-.14-.09A.2.2,0,0,1,162,150a.21.21,0,0,1,.24-.11l.21.08,2.11,1c.63.31,1.27.63,1.89,1a3.76,3.76,0,0,1,1.28,1,1.46,1.46,0,0,1,.3,1.21,2.61,2.61,0,0,1-.27.86.92.92,0,0,1-.75.54l-.16,0a1.73,1.73,0,0,1-1-.07c-.38-.12-.77-.26-1.15-.42-1.14-.49-2.27-1-3.36-1.6a19.39,19.39,0,0,1-1.87-1.09l-.11-.08a1.42,1.42,0,0,1-.62-1.06,1.36,1.36,0,0,1,.5-1.23c.52-.43.58-.4,1.18-.3A4.27,4.27,0,0,1,161.55,150.2Z"/><path class="cls-3" d="M161,150.19c.58.28,2.75,1.36,3.24,1.62.3.16.6.31.89.48a1.65,1.65,0,0,1,.36.28.57.57,0,0,1,.11.61,2.69,2.69,0,0,1-.57.91.72.72,0,0,1-.69.22,3.45,3.45,0,0,1-.43-.12,24.19,24.19,0,0,1-2.73-1.27l-2-1.07-.12-.08a.17.17,0,0,1-.05-.22.18.18,0,0,1,.21-.12l.14,0,1.33.69,1.37.7c.62.33,1.28.6,1.93.87l.42.12a.26.26,0,0,0,.26-.08,2.12,2.12,0,0,0,.47-.74.17.17,0,0,0-.06-.21,1.51,1.51,0,0,0-.26-.18c-.94-.53-1.9-1-2.89-1.48l-1.24-.61a3.89,3.89,0,0,0-1.2-.37.57.57,0,0,0-.34.08,1.05,1.05,0,0,0-.53.72.92.92,0,0,0,.31.92,5.43,5.43,0,0,0,.7.48,36.18,36.18,0,0,0,3.82,2c.5.23,1,.44,1.52.64.17.07.34.11.51.17a1.88,1.88,0,0,0,1,0,.45.45,0,0,0,.3-.24,1.73,1.73,0,0,0,.2-.55L167,154a.92.92,0,0,0-.22-.71,3,3,0,0,0-.87-.76c-.18-.11-.37-.21-.56-.31l-3.77-1.88a.57.57,0,0,1-.13-.08.22.22,0,0,1-.05-.27.2.2,0,0,1,.23-.11l.22.08,2.11,1,1.89,1a3.85,3.85,0,0,1,1.27,1,1.43,1.43,0,0,1,.31,1.21,3.37,3.37,0,0,1-.27.87.93.93,0,0,1-.75.53.9.9,0,0,0-.16,0,1.9,1.9,0,0,1-1-.07c-.39-.13-.77-.27-1.15-.43a35.58,35.58,0,0,1-3.36-1.6,16.58,16.58,0,0,1-1.87-1.09l-.11-.08a1.36,1.36,0,0,1-.62-1.06,1.34,1.34,0,0,1,.49-1.22,1,1,0,0,1,1.19-.3A4.37,4.37,0,0,1,161,150.19Z"/><path class="cls-2" d="M145.9,155.69l-.23.12-.87.54a1.81,1.81,0,0,1-.37.18.32.32,0,0,1-.43-.4,2.89,2.89,0,0,1,.55-1.16.38.38,0,0,0,.09-.38c-.11-.35-.18-.71-.31-1.06a7.66,7.66,0,0,0-1.25-2.25.52.52,0,0,1-.1-.11.22.22,0,0,0-.31,0,1.93,1.93,0,0,1-.38.19.25.25,0,0,1-.33-.14.3.3,0,0,1,.06-.38,1.09,1.09,0,0,1,.17-.13,26.16,26.16,0,0,1,2.75-1.38l.64-.26a.72.72,0,0,1,.21-.05.35.35,0,0,1,.35.25.29.29,0,0,1-.13.36c-.29.1-.3.32-.29.54a5.06,5.06,0,0,0,.25,1.44,7.54,7.54,0,0,0,.66,1.58c.13.24.14.23.42.19a2,2,0,0,1,1.39.28c.29.19.31.45,0,.64s-.67.37-1,.55l-.4.2a.17.17,0,0,0-.1.25l.15.49.54,1.68c.05.14.09.29.13.44s.07.3-.24.4a.7.7,0,0,1-.24-.32c-.41-.67-.81-1.35-1.22-2l-.17-.26Z"/><path class="cls-12" d="M145.26,155.06l-.23.12-.87.53a1.44,1.44,0,0,1-.37.19.33.33,0,0,1-.43-.41,3,3,0,0,1,.55-1.16A.41.41,0,0,0,144,154c-.11-.35-.18-.71-.31-1a7.44,7.44,0,0,0-1.26-2.25l-.09-.11c-.11-.1-.18-.09-.31,0a1.79,1.79,0,0,1-.39.2.25.25,0,0,1-.32-.15.32.32,0,0,1,.05-.38.94.94,0,0,1,.18-.12,26.16,26.16,0,0,1,2.75-1.38l.64-.26a.5.5,0,0,1,.21-.05.34.34,0,0,1,.35.25.29.29,0,0,1-.13.36c-.29.09-.3.31-.29.54a5.43,5.43,0,0,0,.24,1.44,8.69,8.69,0,0,0,.66,1.57c.14.24.15.24.43.2a2,2,0,0,1,1.38.28c.3.19.32.45,0,.63s-.67.37-1,.55l-.39.2a.19.19,0,0,0-.11.26c.06.16.11.32.16.49l.54,1.67c.05.15.09.3.13.45s.07.3-.24.39c-.13-.06-.18-.19-.25-.31-.4-.68-.8-1.36-1.21-2a2.79,2.79,0,0,0-.17-.25Z"/><path class="cls-2" d="M178.9,110.54c.06.15.1.29.16.43l.63,1.38c.1.2.1.2-.13.36a1,1,0,0,1-.15-.14l-1-1.39a2.29,2.29,0,0,1-.17-.23l-.33.17-.86.47a.84.84,0,0,1-.2.08c-.05,0-.14,0-.16-.06a.5.5,0,0,1-.09-.51c.15-.28.3-.57.46-.84a.3.3,0,0,0,.05-.27,8.26,8.26,0,0,0-1.45-2.77,3.07,3.07,0,0,0-.25-.26.32.32,0,0,0-.42,0,.41.41,0,0,1-.11.07.33.33,0,0,1-.5-.12c-.09-.15-.06-.29.14-.42a8,8,0,0,1,.74-.44l2-1a.34.34,0,0,1,.36,0,.26.26,0,0,1,0,.46.37.37,0,0,0-.17.44,6.79,6.79,0,0,0,.46,1.47,11.08,11.08,0,0,0,.58,1.26c.08.13.16.26.25.39a.3.3,0,0,0,.34.13,1.64,1.64,0,0,1,.93,0,.52.52,0,0,1,.31.23c.08.15.08.24-.06.33a5.43,5.43,0,0,1-.57.35c-.21.11-.42.22-.62.34a1,1,0,0,0-.15.1Z"/><path class="cls-8" d="M179.33,110.11c0,.15.1.3.16.44l.63,1.37c.09.21.09.21-.13.37-.05-.05-.11-.09-.16-.15l-1.05-1.39-.16-.23-.33.18-.87.46a.64.64,0,0,1-.19.08s-.14,0-.16,0a.48.48,0,0,1-.09-.51c.15-.29.3-.57.46-.85a.27.27,0,0,0,0-.27,7.91,7.91,0,0,0-1.45-2.77,1.48,1.48,0,0,0-.25-.25.3.3,0,0,0-.41,0l-.11.06a.33.33,0,0,1-.5-.12c-.1-.15-.06-.29.14-.42a6.87,6.87,0,0,1,.74-.44c.66-.34,1.34-.67,2-1a.36.36,0,0,1,.36,0,.27.27,0,0,1,0,.47c-.19.11-.2.23-.17.43a6.48,6.48,0,0,0,.45,1.48,13,13,0,0,0,.58,1.25c.08.14.17.26.25.39a.27.27,0,0,0,.34.13,1.77,1.77,0,0,1,.94.05.56.56,0,0,1,.31.24c.08.14.07.23-.06.32s-.38.24-.57.35l-.63.34-.14.1Z"/><path class="cls-2" d="M107.88,119.84c.11.12.21.23.32.33l1.12,1c.17.15.17.15,0,.38a.8.8,0,0,1-.2-.07l-1.51-.86-.25-.14-.23.29-.61.77a1.06,1.06,0,0,1-.15.15.2.2,0,0,1-.17,0,.49.49,0,0,1-.28-.43c0-.32,0-.64.09-1a.32.32,0,0,0-.07-.27,8,8,0,0,0-2.43-2,1.22,1.22,0,0,0-.33-.14.31.31,0,0,0-.4.13.3.3,0,0,1-.07.1.34.34,0,0,1-.51.09c-.14-.11-.16-.25,0-.45s.32-.47.5-.69c.48-.58,1-1.15,1.45-1.72a.34.34,0,0,1,.32-.15.26.26,0,0,1,.21.41.35.35,0,0,0,0,.47,6.2,6.2,0,0,0,1,1.18,11.27,11.27,0,0,0,1,.92l.38.26a.29.29,0,0,0,.36,0,1.66,1.66,0,0,1,.88-.32.58.58,0,0,1,.38.09c.13.1.16.19.07.32s-.25.37-.38.55-.3.37-.44.56a1,1,0,0,0-.1.15Z"/><path class="cls-8" d="M108.1,119.28c.12.12.22.23.33.33l1.12,1c.16.15.17.15,0,.38a.86.86,0,0,1-.21-.07l-1.51-.86-.24-.14-.24.29-.61.77a.71.71,0,0,1-.15.15.2.2,0,0,1-.17,0,.49.49,0,0,1-.28-.43c0-.32,0-.64.09-1a.29.29,0,0,0-.06-.27,8.2,8.2,0,0,0-2.43-2,1.56,1.56,0,0,0-.33-.14.31.31,0,0,0-.4.13l-.07.1a.34.34,0,0,1-.51.09c-.15-.11-.17-.25,0-.45a6.82,6.82,0,0,1,.51-.69c.47-.58,1-1.15,1.44-1.72a.36.36,0,0,1,.33-.15.26.26,0,0,1,.2.41.36.36,0,0,0,0,.47,7,7,0,0,0,1,1.18,11.27,11.27,0,0,0,1,.92l.38.26a.3.3,0,0,0,.37,0,1.62,1.62,0,0,1,.87-.32.56.56,0,0,1,.38.09c.13.1.16.19.08.32s-.26.37-.39.55-.3.37-.44.56a1,1,0,0,0-.1.15Z"/><path class="cls-2" d="M126.32,154.91a5.55,5.55,0,0,1-.35.46l-1.24,1.41c-.19.21-.19.21,0,.48a1.2,1.2,0,0,0,.23-.11l1.76-1.27.28-.22.33.33.86.87a.74.74,0,0,0,.2.16.28.28,0,0,0,.22,0,.58.58,0,0,0,.28-.57c-.07-.39-.14-.79-.24-1.18a.38.38,0,0,1,.05-.34,10.28,10.28,0,0,1,2.73-2.77,2.42,2.42,0,0,1,.39-.21.39.39,0,0,1,.51.1l.1.12a.43.43,0,0,0,.65,0c.16-.14.17-.32,0-.55s-.47-.54-.72-.79c-.67-.65-1.35-1.28-2-1.92a.45.45,0,0,0-.42-.15.33.33,0,0,0-.2.55.42.42,0,0,1,0,.57,7.84,7.84,0,0,1-1.07,1.6,14,14,0,0,1-1.15,1.28l-.43.38a.36.36,0,0,1-.46,0,2.11,2.11,0,0,0-1.13-.28.7.7,0,0,0-.45.17c-.15.14-.18.25,0,.41a6.53,6.53,0,0,0,.56.62l.62.63.13.17Z"/><path class="cls-4" d="M126.59,154.5c-.12.16-.23.31-.36.46L125,156.37c-.19.21-.19.21,0,.48.07,0,.16-.07.24-.12l1.75-1.27.28-.21.33.32.87.87a.62.62,0,0,0,.2.16.22.22,0,0,0,.21,0,.62.62,0,0,0,.29-.58c-.08-.39-.15-.78-.25-1.17a.37.37,0,0,1,0-.34,10,10,0,0,1,2.73-2.77,3.84,3.84,0,0,1,.39-.22.4.4,0,0,1,.51.1.43.43,0,0,0,.11.12.41.41,0,0,0,.64,0c.17-.15.17-.32,0-.55a9.13,9.13,0,0,0-.72-.79c-.67-.65-1.35-1.29-2-1.93a.45.45,0,0,0-.42-.15.34.34,0,0,0-.2.55.44.44,0,0,1,.05.58,8.1,8.1,0,0,1-1.08,1.59,14.12,14.12,0,0,1-1.15,1.29l-.43.37a.36.36,0,0,1-.46,0,2,2,0,0,0-1.12-.27.65.65,0,0,0-.46.16c-.15.14-.18.25,0,.41a8.24,8.24,0,0,0,.56.62c.2.22.41.42.62.64a1.41,1.41,0,0,1,.14.17Z"/><path class="cls-2" d="M167.63,93.82c.13-.14.26-.29.39-.42.45-.44.91-.86,1.37-1.29.2-.2.2-.2,0-.49a1.3,1.3,0,0,0-.25.1l-1.86,1.11L167,93l-.29-.35-.79-1a.77.77,0,0,0-.18-.18.25.25,0,0,0-.22,0,.59.59,0,0,0-.33.55c0,.39.07.79.13,1.19a.38.38,0,0,1-.07.33,10.12,10.12,0,0,1-3,2.52,3,3,0,0,1-.41.18.39.39,0,0,1-.5-.15.6.6,0,0,0-.09-.13.42.42,0,0,0-.64-.09c-.18.13-.2.31,0,.55s.42.59.65.85c.61.71,1.23,1.4,1.85,2.1a.43.43,0,0,0,.41.18.32.32,0,0,0,.24-.52.44.44,0,0,1,0-.58A7.52,7.52,0,0,1,165,97a12.75,12.75,0,0,1,1.26-1.18l.46-.34a.38.38,0,0,1,.46,0,2.08,2.08,0,0,0,1.1.38.66.66,0,0,0,.47-.13c.16-.12.2-.23.08-.4a7.76,7.76,0,0,0-.5-.67c-.18-.23-.37-.45-.56-.68,0-.05-.07-.12-.12-.19Z"/><path class="cls-4" d="M167.33,94.21c.14-.14.26-.29.39-.42l1.37-1.29c.2-.2.21-.2,0-.49a1,1,0,0,0-.24.1L167,93.22l-.3.19-.29-.35-.79-1a.77.77,0,0,0-.18-.18.25.25,0,0,0-.22,0,.59.59,0,0,0-.33.55c0,.39.07.79.13,1.19A.35.35,0,0,1,165,94a10.12,10.12,0,0,1-3,2.52,3,3,0,0,1-.41.18.39.39,0,0,1-.5-.15,1,1,0,0,0-.09-.13.42.42,0,0,0-.64-.09c-.18.13-.2.31,0,.55a9.5,9.5,0,0,0,.65.85c.61.71,1.23,1.4,1.85,2.1a.46.46,0,0,0,.41.19.33.33,0,0,0,.24-.53.44.44,0,0,1,0-.58,7.89,7.89,0,0,1,1.21-1.49,14,14,0,0,1,1.26-1.18c.15-.12.31-.23.47-.34a.36.36,0,0,1,.45,0,2.08,2.08,0,0,0,1.1.38.66.66,0,0,0,.47-.13c.16-.12.2-.23.09-.4s-.33-.45-.5-.66-.38-.46-.57-.69a2.2,2.2,0,0,1-.12-.19Z"/><path class="cls-2" d="M165.52,129.76c-.44-.1-.83-.2-1.23-.28l-1.24-.23a.41.41,0,0,1-.24-.08.3.3,0,0,1-.1-.22.25.25,0,0,1,.15-.15,1.09,1.09,0,0,1,.36,0l2.12.1c.1,0,.19,0,.32,0a3,3,0,0,0,.08-.39c0-.44.08-.88.13-1.32a1.21,1.21,0,0,1,0-.19.28.28,0,0,1,.36-.25.58.58,0,0,1,.44.27c.18.32.37.63.55.94.07.13.13.25.28.3a8.52,8.52,0,0,0,4.52.55,3.28,3.28,0,0,0,.51-.15.42.42,0,0,0,.33-.43c0-.1,0-.2,0-.3a.45.45,0,0,1,.49-.43.48.48,0,0,1,.49.51,12.66,12.66,0,0,1-.15,1.38c-.24,1.28-.5,2.56-.75,3.84a.51.51,0,0,1-.39.44.44.44,0,0,1-.48-.13.42.42,0,0,1-.09-.46.49.49,0,0,0-.22-.57,4.09,4.09,0,0,0-1.37-.79,8.51,8.51,0,0,0-2.69-.52h-.13a.8.8,0,0,0-.77.34,1.75,1.75,0,0,1-1,.62,1.18,1.18,0,0,1-.42,0c-.29,0-.37-.17-.32-.46.1-.5.21-1,.3-1.49,0-.14,0-.28.07-.48Z"/><path class="cls-17" d="M165.9,129.31c-.43-.11-.83-.21-1.23-.29l-1.23-.23a.49.49,0,0,1-.25-.07.28.28,0,0,1-.09-.23c0-.05.08-.13.15-.15a1.43,1.43,0,0,1,.36,0l2.11.1h.33c0-.13.06-.26.08-.39l.12-1.32c0-.06,0-.13,0-.19,0-.21.15-.28.36-.25a.59.59,0,0,1,.43.27c.18.32.38.63.55,1a.52.52,0,0,0,.29.29,8.48,8.48,0,0,0,4.51.55,4.25,4.25,0,0,0,.51-.14.45.45,0,0,0,.34-.44,1.53,1.53,0,0,1,0-.3.45.45,0,0,1,.49-.43.47.47,0,0,1,.48.51,10.59,10.59,0,0,1-.15,1.38c-.23,1.28-.49,2.56-.75,3.84a.5.5,0,0,1-.39.44.46.46,0,0,1-.57-.59.48.48,0,0,0-.22-.57,4,4,0,0,0-1.37-.79,8.44,8.44,0,0,0-2.68-.52H168a.8.8,0,0,0-.77.34,1.74,1.74,0,0,1-1,.62,1.18,1.18,0,0,1-.42,0c-.29,0-.37-.17-.31-.46l.3-1.49c0-.14,0-.28.06-.47Z"/><path class="cls-2" d="M108.07,152.37c-.1.39-.2.74-.28,1.1s-.16.74-.23,1.12a.58.58,0,0,1-.08.22.3.3,0,0,1-.2.08.24.24,0,0,1-.14-.14,1.22,1.22,0,0,1,0-.33c0-.64.09-1.27.14-1.91v-.3c-.12,0-.23-.06-.35-.07l-1.19-.14-.17,0a.25.25,0,0,1-.22-.33.51.51,0,0,1,.26-.39c.28-.16.57-.33.86-.48a.47.47,0,0,0,.27-.25,7.7,7.7,0,0,0,.6-4.07,3.47,3.47,0,0,0-.13-.46.4.4,0,0,0-.39-.32,2.3,2.3,0,0,1-.26,0,.41.41,0,0,1-.38-.45.42.42,0,0,1,.47-.43c.42,0,.84.08,1.25.16,1.15.24,2.3.51,3.45.76a.47.47,0,0,1,.39.36.42.42,0,0,1-.12.44.4.4,0,0,1-.43.07.45.45,0,0,0-.52.18,3.85,3.85,0,0,0-.74,1.23,7.94,7.94,0,0,0-.53,2.41.48.48,0,0,1,0,.12.73.73,0,0,0,.3.7,1.61,1.61,0,0,1,.53.88.82.82,0,0,1,0,.38c0,.26-.16.34-.42.28l-1.34-.31-.43-.06Z"/><path class="cls-5" d="M107.66,152c-.1.39-.2.74-.28,1.1s-.15.75-.23,1.12a.58.58,0,0,1-.08.22.28.28,0,0,1-.2.08.2.2,0,0,1-.13-.14,1.2,1.2,0,0,1,0-.33c0-.63.1-1.27.14-1.91a2.8,2.8,0,0,0,0-.29,2.37,2.37,0,0,0-.34-.08l-1.19-.14-.18,0a.26.26,0,0,1-.22-.33.53.53,0,0,1,.26-.39l.86-.47a.55.55,0,0,0,.28-.26,7.78,7.78,0,0,0,.59-4.07,3.45,3.45,0,0,0-.12-.46.39.39,0,0,0-.39-.31l-.27,0a.41.41,0,0,1-.38-.45.44.44,0,0,1,.47-.43c.42,0,.84.08,1.25.16l3.45.77a.46.46,0,0,1,.4.36.41.41,0,0,1-.13.43.39.39,0,0,1-.42.07.45.45,0,0,0-.52.19,3.48,3.48,0,0,0-.74,1.22A7.39,7.39,0,0,0,109,150v.12a.68.68,0,0,0,.29.69,1.62,1.62,0,0,1,.54.88,1,1,0,0,1,0,.38c0,.27-.15.34-.42.28l-1.34-.3-.43-.07Z"/><path class="cls-2" d="M117.26,141.54a20.59,20.59,0,0,0-.2,2.31,2.18,2.18,0,0,0,0,.25,1.93,1.93,0,0,1,0,.24,9.4,9.4,0,0,0,0,1.5.79.79,0,0,0,.61.72,2.16,2.16,0,0,0,1,.05.73.73,0,0,0,.37-.16,2.9,2.9,0,0,1,.29-.19.74.74,0,0,0,.31-.32,5,5,0,0,0,.43-1.28,17.46,17.46,0,0,0,.33-2.38c.06-.8.18-1.59.29-2.38l.06-.5a.6.6,0,0,1,.06-.19.18.18,0,0,1,.22-.09.17.17,0,0,1,.16.16.5.5,0,0,1,0,.21L121,140.8c-.06.58-.13,1.16-.18,1.74a19.9,19.9,0,0,1-.36,2.42,4.93,4.93,0,0,1-.46,1.23,1.19,1.19,0,0,1-.44.45c-.1.06-.18.14-.28.19a1.93,1.93,0,0,1-.41.2,2.3,2.3,0,0,1-1.49-.09,1.11,1.11,0,0,1-.75-1c0-.21,0-.43,0-.65s0-.31,0-.47l0-1.16c.05-1,.19-2.06.32-3.09,0-.32.07-.65.12-1,.09-.67.18-1.35.28-2l.09-.68a.73.73,0,0,1,.44-.6,1.91,1.91,0,0,1,.69-.18,3.3,3.3,0,0,1,1.33.06.9.9,0,0,1,.71,1c0,.46-.08.92-.12,1.38s-.08.77-.11,1.15c-.07,1.26-.24,2.5-.39,3.74a3.08,3.08,0,0,1-.18.66.77.77,0,0,1-.74.54h-.57a1.34,1.34,0,0,1-.79-.29.8.8,0,0,1-.33-.52,3,3,0,0,1,0-.9c0-.35.09-.7.14-1,.08-.58.16-1.16.25-1.74l.12-.73c.12-.62.22-1.25.28-1.89a1,1,0,0,1,0-.24.2.2,0,0,1,.23-.16.21.21,0,0,1,.17.22c0,.08,0,.16,0,.24-.06.85-.21,1.68-.34,2.52-.06.38-.11.77-.16,1.15-.08.57-.17,1.13-.24,1.7a5.15,5.15,0,0,0,0,.68.47.47,0,0,0,.3.44,1.44,1.44,0,0,0,.64.13l.28,0a.35.35,0,0,0,.35-.27,5.25,5.25,0,0,0,.16-.6c0-.33.08-.67.12-1,.06-.6.13-1.2.2-1.8,0-.25,0-.49,0-.74l.15-1.49c0-.35,0-.69.08-1s-.11-.53-.42-.61a2.4,2.4,0,0,0-1-.05,5.86,5.86,0,0,0-.58.1.4.4,0,0,0-.31.37c-.1.73-.21,1.46-.32,2.18,0,.35-.07.71-.11,1.06s-.11.86-.16,1.26Z"/><path class="cls-17" d="M117.65,141.08a20.65,20.65,0,0,0-.21,2.31,2.29,2.29,0,0,0,0,.25v.24a10.73,10.73,0,0,0,0,1.5.81.81,0,0,0,.61.72,2.21,2.21,0,0,0,1,.05.76.76,0,0,0,.37-.16l.28-.19a.74.74,0,0,0,.31-.32,4.63,4.63,0,0,0,.44-1.28,19.16,19.16,0,0,0,.32-2.38c.06-.8.18-1.59.29-2.38,0-.17,0-.34.06-.5a.6.6,0,0,1,.06-.19.2.2,0,0,1,.22-.09.19.19,0,0,1,.17.16.74.74,0,0,1,0,.21c-.06.44-.12.87-.17,1.31s-.13,1.16-.19,1.74a19.9,19.9,0,0,1-.36,2.42,4.57,4.57,0,0,1-.46,1.23,1.12,1.12,0,0,1-.44.45,2.75,2.75,0,0,1-.28.19,1.73,1.73,0,0,1-.41.2,2.31,2.31,0,0,1-1.49-.09,1.13,1.13,0,0,1-.75-1c0-.21,0-.43,0-.65s0-.31,0-.47c0-.39,0-.77,0-1.16,0-1,.19-2.06.32-3.09,0-.32.07-.65.11-1,.09-.67.19-1.35.28-2,0-.23.07-.45.1-.68a.73.73,0,0,1,.44-.6,1.86,1.86,0,0,1,.69-.18,3.31,3.31,0,0,1,1.33.06.89.89,0,0,1,.7,1c0,.46-.07.92-.12,1.38s-.08.77-.1,1.15c-.08,1.26-.24,2.5-.4,3.74a2.59,2.59,0,0,1-.18.66.77.77,0,0,1-.74.54h-.57a1.31,1.31,0,0,1-.78-.29.74.74,0,0,1-.33-.52,3,3,0,0,1,0-.89c0-.36.09-.71.14-1.06.08-.58.17-1.16.25-1.74,0-.24.08-.49.13-.73a16.86,16.86,0,0,0,.27-1.89,1,1,0,0,1,0-.24.19.19,0,0,1,.23-.16.21.21,0,0,1,.16.22,1.94,1.94,0,0,1,0,.24c0,.85-.21,1.69-.34,2.52-.06.39-.1.77-.16,1.15-.08.57-.17,1.13-.24,1.7,0,.23,0,.46,0,.68a.46.46,0,0,0,.31.44,1.26,1.26,0,0,0,.63.13l.28,0a.35.35,0,0,0,.35-.27,2.94,2.94,0,0,0,.16-.6c0-.33.08-.67.12-1,.07-.6.14-1.2.2-1.8,0-.25,0-.49,0-.73l.15-1.5.09-1c0-.39-.11-.53-.43-.61a2.4,2.4,0,0,0-1,0,5.67,5.67,0,0,0-.57.1.39.39,0,0,0-.31.37c-.1.73-.22,1.46-.32,2.18,0,.35-.08.71-.12,1.06s-.1.86-.15,1.26Z"/><path class="cls-2" d="M133.25,140.63c.55.35,2.59,1.64,3.07,1.92.29.17.58.35.88.51a1.52,1.52,0,0,0,.42.16.58.58,0,0,0,.58-.23,2.63,2.63,0,0,0,.48-1,.73.73,0,0,0-.17-.69,1.93,1.93,0,0,0-.33-.31,23.14,23.14,0,0,0-2.5-1.67l-2-1.13a.38.38,0,0,0-.13-.06.18.18,0,0,0-.22.06.19.19,0,0,0,0,.24.52.52,0,0,0,.11.1l1.29.78,1.31.8a20.83,20.83,0,0,1,1.75,1.2,3,3,0,0,1,.32.3.26.26,0,0,1,.07.25,2.09,2.09,0,0,1-.39.79.17.17,0,0,1-.22.06,1.69,1.69,0,0,1-.28-.12c-.94-.54-1.87-1.1-2.77-1.7l-1.17-.74a3.92,3.92,0,0,1-.93-.84.49.49,0,0,1-.11-.33,1,1,0,0,1,.33-.82.91.91,0,0,1,1-.22,5.46,5.46,0,0,1,.78.35,36.92,36.92,0,0,1,3.66,2.24c.46.31.9.64,1.34,1,.14.11.27.24.4.36a1.85,1.85,0,0,1,.51.86.44.44,0,0,1-.05.37,1.63,1.63,0,0,1-.36.46l-.26.23a.94.94,0,0,1-.73.18,3.06,3.06,0,0,1-1.1-.34l-.55-.32-3.57-2.24a.37.37,0,0,0-.14-.07.21.21,0,0,0-.25.1.2.2,0,0,0,0,.25.62.62,0,0,0,.18.14l2,1.27c.6.37,1.2.75,1.81,1.11a3.71,3.71,0,0,0,1.54.55,1.44,1.44,0,0,0,1.19-.36,3,3,0,0,0,.6-.69.92.92,0,0,0,.07-.92c0-.05,0-.09-.07-.15a1.77,1.77,0,0,0-.59-.84c-.31-.26-.63-.52-1-.76-1-.72-2-1.41-3.12-2a16.62,16.62,0,0,0-1.91-1l-.12-.06a1.4,1.4,0,0,0-1.23,0,1.33,1.33,0,0,0-.78,1.06c-.1.67,0,.71.36,1.16A4.16,4.16,0,0,0,133.25,140.63Z"/><path class="cls-5" d="M133.65,140.49c.54.35,2.59,1.64,3.07,1.93l.87.51a1.69,1.69,0,0,0,.43.15.55.55,0,0,0,.58-.22,2.46,2.46,0,0,0,.47-1,.72.72,0,0,0-.16-.7,2.42,2.42,0,0,0-.33-.31,25.79,25.79,0,0,0-2.5-1.66l-2-1.14L134,138a.19.19,0,0,0-.22.07.2.2,0,0,0,0,.24.52.52,0,0,0,.11.1l1.29.78,1.31.8a20.83,20.83,0,0,1,1.75,1.2,2.89,2.89,0,0,1,.32.29.27.27,0,0,1,.07.26,2.17,2.17,0,0,1-.39.79.19.19,0,0,1-.22.06,1.17,1.17,0,0,1-.28-.13c-.94-.53-1.87-1.09-2.77-1.69-.39-.26-.78-.5-1.17-.75a3.88,3.88,0,0,1-.93-.83.51.51,0,0,1-.11-.33,1,1,0,0,1,.33-.82.91.91,0,0,1,1-.22,4.54,4.54,0,0,1,.78.35,38.82,38.82,0,0,1,3.66,2.23c.45.31.9.64,1.34,1,.14.11.27.24.4.35a1.85,1.85,0,0,1,.51.86.46.46,0,0,1-.05.38,1.79,1.79,0,0,1-.36.46l-.26.23a1,1,0,0,1-.73.18,2.89,2.89,0,0,1-1.1-.35c-.18-.09-.37-.2-.55-.31L134.12,141a.37.37,0,0,0-.14-.07.21.21,0,0,0-.25.1.19.19,0,0,0,0,.25.86.86,0,0,0,.18.14l2,1.26,1.81,1.12a3.8,3.8,0,0,0,1.54.55,1.41,1.41,0,0,0,1.19-.37,3,3,0,0,0,.6-.68.92.92,0,0,0,.07-.92l-.07-.15a1.79,1.79,0,0,0-.59-.84c-.31-.27-.63-.52-1-.76-1-.72-2-1.42-3.12-2a18.41,18.41,0,0,0-1.91-1l-.12-.05a1.37,1.37,0,0,0-1.23,0,1.31,1.31,0,0,0-.78,1.05,1,1,0,0,0,.35,1.17A4.39,4.39,0,0,0,133.65,140.49Z"/><path class="cls-2" d="M79.43,112.37c.2.61,1,2.9,1.17,3.43l.35,1a1.58,1.58,0,0,0,.24.39.57.57,0,0,0,.59.19,2.67,2.67,0,0,0,1-.44.71.71,0,0,0,.31-.65,2.32,2.32,0,0,0-.06-.45,23.82,23.82,0,0,0-.89-2.87l-.79-2.11-.06-.13a.17.17,0,0,0-.21-.08.18.18,0,0,0-.15.19.32.32,0,0,0,0,.14c.16.48.33.95.5,1.42s.33,1,.51,1.45c.24.66.42,1.35.6,2a2.12,2.12,0,0,1,.06.44.24.24,0,0,1-.11.24,2.1,2.1,0,0,1-.79.36.17.17,0,0,1-.21-.08,2.44,2.44,0,0,1-.14-.28c-.39-1-.76-2-1.08-3.06-.14-.45-.29-.88-.43-1.32a3.75,3.75,0,0,1-.2-1.24.55.55,0,0,1,.12-.33,1,1,0,0,1,.78-.42.93.93,0,0,1,.88.43,5.39,5.39,0,0,1,.38.76,36.68,36.68,0,0,1,1.42,4c.16.53.29,1.06.43,1.59,0,.18.06.36.09.53a2,2,0,0,1-.15,1,.45.45,0,0,1-.28.26,1.82,1.82,0,0,1-.57.13H82.4a.93.93,0,0,1-.68-.32,2.81,2.81,0,0,1-.63-1,6,6,0,0,1-.23-.59l-1.35-4a.69.69,0,0,0-.07-.15.21.21,0,0,0-.26-.08.2.2,0,0,0-.13.22.59.59,0,0,0,0,.22c.24.74.48,1.49.74,2.23s.45,1.34.69,2a3.7,3.7,0,0,0,.85,1.41,1.43,1.43,0,0,0,1.15.46,2.74,2.74,0,0,0,.9-.15.91.91,0,0,0,.63-.67l0-.15a1.82,1.82,0,0,0,.07-1c-.08-.4-.16-.8-.27-1.2-.32-1.19-.68-2.38-1.12-3.55a20.54,20.54,0,0,0-.83-2l-.06-.12a1.41,1.41,0,0,0-1-.75,1.32,1.32,0,0,0-1.27.32c-.5.46-.48.52-.46,1.13A4.13,4.13,0,0,0,79.43,112.37Z"/><path class="cls-9" d="M79.82,112.52c.21.61,1,2.9,1.17,3.43.12.31.23.63.36,1a1.25,1.25,0,0,0,.23.38.54.54,0,0,0,.59.19,2.37,2.37,0,0,0,1-.44.72.72,0,0,0,.32-.64,2.22,2.22,0,0,0-.07-.45,23.78,23.78,0,0,0-.88-2.87c-.27-.7-.53-1.41-.8-2.11a.31.31,0,0,0-.06-.13.19.19,0,0,0-.21-.09.2.2,0,0,0-.14.2.59.59,0,0,0,0,.14c.17.47.34,1,.5,1.42l.51,1.45a18.14,18.14,0,0,1,.6,2,3.11,3.11,0,0,1,.07.44.3.3,0,0,1-.11.24,2.15,2.15,0,0,1-.8.36.17.17,0,0,1-.21-.09,2.29,2.29,0,0,1-.14-.27c-.39-1-.76-2-1.08-3.07-.13-.44-.29-.87-.43-1.32A4,4,0,0,1,80,111a.51.51,0,0,1,.13-.33,1,1,0,0,1,.77-.42.91.91,0,0,1,.88.43,5.39,5.39,0,0,1,.38.76,38.12,38.12,0,0,1,1.43,4q.22.8.42,1.59c0,.17.06.36.1.53a2,2,0,0,1-.15,1,.48.48,0,0,1-.28.26,2,2,0,0,1-.57.13h-.35a.91.91,0,0,1-.67-.32,2.84,2.84,0,0,1-.64-1c-.08-.19-.16-.39-.23-.59l-1.35-4a.52.52,0,0,0-.07-.15.21.21,0,0,0-.26-.08.19.19,0,0,0-.13.21,1.89,1.89,0,0,0,0,.23c.25.74.49,1.49.74,2.23s.46,1.34.7,2a3.77,3.77,0,0,0,.84,1.4,1.41,1.41,0,0,0,1.16.47,2.73,2.73,0,0,0,.89-.15.94.94,0,0,0,.64-.67.66.66,0,0,1,0-.15,1.82,1.82,0,0,0,.07-1,12.2,12.2,0,0,0-.26-1.2c-.33-1.2-.69-2.38-1.13-3.55a18.32,18.32,0,0,0-.83-2l-.06-.12a1.4,1.4,0,0,0-1-.75,1.3,1.3,0,0,0-1.28.32c-.5.46-.48.52-.46,1.13A4.91,4.91,0,0,0,79.82,112.52Z"/><path class="cls-2" d="M127.72,128.18l-.17-.16c-.22-.2-.46-.4-.68-.61a1.6,1.6,0,0,1-.26-.26.29.29,0,0,1,.23-.47,2.74,2.74,0,0,1,1.14.15.34.34,0,0,0,.35,0c.27-.18.56-.34.82-.54a6.93,6.93,0,0,0,1.58-1.66l.07-.12c0-.11,0-.17-.07-.26a2.27,2.27,0,0,1-.26-.28.22.22,0,0,1,0-.32.29.29,0,0,1,.34,0,.61.61,0,0,1,.15.12,23.78,23.78,0,0,1,1.91,2l.39.47a1,1,0,0,1,.1.17.34.34,0,0,1-.12.37.29.29,0,0,1-.35,0c-.15-.22-.34-.17-.53-.1a4.76,4.76,0,0,0-1.17.59,7.19,7.19,0,0,0-1.16,1c-.18.18-.17.19-.06.42a1.8,1.8,0,0,1,.13,1.25c-.08.31-.3.39-.54.19s-.49-.48-.73-.72a3.7,3.7,0,0,1-.28-.28.15.15,0,0,0-.24,0l-.38.26-1.29.9-.34.23c-.23.14-.24.14-.4-.1a.63.63,0,0,1,.2-.29c.47-.53.94-1.05,1.42-1.57a2.65,2.65,0,0,1,.17-.22Z"/><path class="cls-12" d="M127.87,127.65l-.16-.17-.69-.6a1.57,1.57,0,0,1-.25-.27.29.29,0,0,1,.23-.47,2.55,2.55,0,0,1,1.13.16.39.39,0,0,0,.35,0c.27-.19.56-.35.82-.54a6.6,6.6,0,0,0,1.58-1.67L131,124c.06-.12,0-.18-.06-.27a1.2,1.2,0,0,1-.27-.28.22.22,0,0,1,0-.31A.28.28,0,0,1,131,123l.16.12a22.16,22.16,0,0,1,1.9,2q.21.24.39.48a.54.54,0,0,1,.1.16.31.31,0,0,1-.12.37.27.27,0,0,1-.34,0c-.16-.23-.35-.18-.54-.11a4.7,4.7,0,0,0-1.16.59,6.47,6.47,0,0,0-1.17,1c-.17.18-.16.18-.05.41a1.77,1.77,0,0,1,.12,1.26c-.08.3-.3.38-.54.18s-.49-.48-.73-.72l-.27-.28a.17.17,0,0,0-.25,0l-.38.26-1.28.9-.35.23c-.23.14-.23.14-.4-.1a.63.63,0,0,1,.2-.29c.47-.53,1-1.05,1.42-1.57l.17-.21Z"/><path class="cls-2" d="M151.22,146l-.22-.08-.87-.28a1.73,1.73,0,0,1-.34-.14.29.29,0,0,1,0-.53,2.88,2.88,0,0,1,1.11-.31.34.34,0,0,0,.31-.16c.17-.27.37-.53.53-.82a6.44,6.44,0,0,0,.78-2.16.59.59,0,0,0,0-.13c0-.13,0-.17-.16-.22A1.44,1.44,0,0,1,152,141a.23.23,0,0,1-.1-.3.27.27,0,0,1,.29-.18.58.58,0,0,1,.19,0,24.64,24.64,0,0,1,2.54,1.05l.55.28.16.11a.33.33,0,0,1,0,.39.27.27,0,0,1-.32.12c-.23-.14-.38,0-.53.12a4.47,4.47,0,0,0-.83,1,7.51,7.51,0,0,0-.68,1.36c-.08.23-.07.24.12.4a1.86,1.86,0,0,1,.62,1.1c0,.31-.12.48-.42.38s-.64-.23-1-.35l-.37-.15a.15.15,0,0,0-.23.07c-.08.14-.16.26-.24.39-.27.45-.54.9-.82,1.35-.07.11-.14.23-.22.34s-.16.22-.41.07a.58.58,0,0,1,.07-.34c.22-.67.44-1.34.67-2,0-.08,0-.17.07-.27Z"/><path class="cls-12" d="M151.14,145.43l-.21-.08-.87-.28a1.3,1.3,0,0,1-.34-.15.29.29,0,0,1,0-.52,2.53,2.53,0,0,1,1.1-.31.34.34,0,0,0,.31-.16c.18-.28.38-.54.54-.82a7,7,0,0,0,.78-2.17.51.51,0,0,0,0-.13c0-.13,0-.17-.17-.21a1.37,1.37,0,0,1-.35-.15.22.22,0,0,1-.1-.3.28.28,0,0,1,.29-.19l.19,0a23.4,23.4,0,0,1,2.54,1.05l.54.28a.46.46,0,0,1,.16.11.32.32,0,0,1,0,.38.27.27,0,0,1-.32.13c-.24-.14-.39,0-.54.12a5,5,0,0,0-.83,1,7,7,0,0,0-.67,1.37c-.09.23-.08.23.11.4A1.78,1.78,0,0,1,154,146c.05.31-.12.47-.42.38s-.64-.24-1-.36l-.36-.15a.17.17,0,0,0-.24.08c-.07.13-.16.26-.24.39l-.81,1.34c-.07.12-.15.24-.23.35s-.16.22-.4.07a.72.72,0,0,1,.06-.35c.23-.67.45-1.34.67-2a1.63,1.63,0,0,0,.07-.26Z"/><path class="cls-2" d="M145.85,134.34l.78.58c.25.19.49.4.74.6a.45.45,0,0,0,.17.11.23.23,0,0,0,.18-.06.18.18,0,0,0,0-.16,1.18,1.18,0,0,0-.17-.22L146.45,134l-.16-.19.18-.23.71-.73.1-.11a.21.21,0,0,0,0-.33.46.46,0,0,0-.37-.12l-.83.15a.37.37,0,0,1-.31,0,6.44,6.44,0,0,1-2.56-2.35,2.37,2.37,0,0,1-.17-.36.35.35,0,0,1,.09-.42,1.21,1.21,0,0,0,.16-.16.35.35,0,0,0,0-.5.37.37,0,0,0-.54,0,10.42,10.42,0,0,0-.72.77c-.63.78-1.24,1.57-1.86,2.35a.38.38,0,0,0-.06.44.33.33,0,0,0,.31.22.34.34,0,0,0,.32-.18.37.37,0,0,1,.43-.16,3.25,3.25,0,0,1,1.14.41,6.28,6.28,0,0,1,1.64,1.3l.06.08a.59.59,0,0,1,.19.61,1.34,1.34,0,0,0,.11.86.83.83,0,0,0,.19.27c.16.15.28.13.42-.05l.72-.91.24-.28Z"/><path class="cls-19" d="M146,133.81c.27.21.52.38.77.58l.75.6c.05,0,.1.1.16.11a.28.28,0,0,0,.18-.06.15.15,0,0,0,0-.16.87.87,0,0,0-.17-.22l-1.11-1.18-.16-.19c.07-.08.12-.16.19-.23.23-.25.47-.49.7-.73a1.14,1.14,0,0,0,.11-.11.21.21,0,0,0,0-.33.46.46,0,0,0-.37-.12l-.82.15a.4.4,0,0,1-.32,0,6.44,6.44,0,0,1-2.56-2.35,2.37,2.37,0,0,1-.17-.36.35.35,0,0,1,.09-.42l.16-.16a.36.36,0,0,0,0-.5.36.36,0,0,0-.54,0,10.57,10.57,0,0,0-.73.77c-.63.78-1.24,1.56-1.85,2.35a.38.38,0,0,0-.07.44.34.34,0,0,0,.31.22.34.34,0,0,0,.32-.18.38.38,0,0,1,.44-.16,3.12,3.12,0,0,1,1.14.41,6.4,6.4,0,0,1,1.63,1.3.27.27,0,0,1,.07.08.6.6,0,0,1,.18.61,1.29,1.29,0,0,0,.12.86.68.68,0,0,0,.18.27c.16.15.28.13.42-.05l.72-.91c.07-.09.15-.17.25-.28Z"/><path class="cls-2" d="M170.18,118.61l.81.13c.27,0,.53.1.79.15a.33.33,0,0,0,.17,0,.15.15,0,0,0,.11-.11.15.15,0,0,0-.05-.12.88.88,0,0,0-.22-.1l-1.29-.44-.2-.08c0-.08,0-.17,0-.25l.24-.82s0-.08,0-.12a.18.18,0,0,0-.16-.23.33.33,0,0,0-.32.06c-.19.14-.38.28-.56.43a.36.36,0,0,1-.24.11,5.53,5.53,0,0,1-2.84-.74,2.78,2.78,0,0,1-.27-.21.28.28,0,0,1-.1-.34,1.39,1.39,0,0,0,.06-.19.29.29,0,0,0-.19-.37.31.31,0,0,0-.42.19,8.42,8.42,0,0,0-.24.86c-.16.83-.31,1.65-.46,2.48a.34.34,0,0,0,.13.36.31.31,0,0,0,.32,0,.29.29,0,0,0,.16-.26.33.33,0,0,1,.27-.29,2.67,2.67,0,0,1,1-.15,5.36,5.36,0,0,1,1.73.33l.08,0a.52.52,0,0,1,.38.39,1.1,1.1,0,0,0,.43.59.62.62,0,0,0,.24.13c.18,0,.26,0,.3-.2s.11-.65.17-1l.07-.3Z"/><path class="cls-5" d="M170.05,118.18c.29,0,.55.07.81.12l.79.16a.5.5,0,0,0,.17,0,.29.29,0,0,0,.11-.11.14.14,0,0,0-.06-.13.78.78,0,0,0-.21-.09l-1.29-.44-.2-.08c0-.09,0-.17.05-.25l.24-.82a.5.5,0,0,0,0-.13c0-.13,0-.2-.15-.23a.36.36,0,0,0-.33.06l-.55.44a.36.36,0,0,1-.24.11,5.54,5.54,0,0,1-2.84-.75,1.78,1.78,0,0,1-.27-.21.28.28,0,0,1-.1-.34,1.05,1.05,0,0,0,.05-.19.28.28,0,0,0-.19-.37.3.3,0,0,0-.41.19c-.09.29-.18.57-.24.86-.16.83-.31,1.66-.46,2.48a.32.32,0,0,0,.13.36.29.29,0,0,0,.48-.22.33.33,0,0,1,.27-.29,2.66,2.66,0,0,1,1-.14,5.35,5.35,0,0,1,1.73.32l.08,0a.52.52,0,0,1,.38.39,1.16,1.16,0,0,0,.42.6.72.72,0,0,0,.25.12c.18,0,.26,0,.29-.2l.18-1,.07-.3Z"/><path class="cls-2" d="M139.41,119.68a25.13,25.13,0,0,1-2.55-1,2.07,2.07,0,0,1-.25-.15l-.26-.13a14,14,0,0,1-1.6-.79,1,1,0,0,1-.43-1,2.6,2.6,0,0,1,.48-1.07,1,1,0,0,1,.37-.31,2.37,2.37,0,0,0,.35-.19,1,1,0,0,1,.52-.16,5.66,5.66,0,0,1,1.58.24,21.42,21.42,0,0,1,2.69.94c.87.37,1.78.67,2.67,1l.57.21a.43.43,0,0,0,.22,0,.23.23,0,0,0,.23-.18.22.22,0,0,0-.09-.26.78.78,0,0,0-.22-.12c-.49-.18-1-.34-1.48-.53l-1.93-.74a22.23,22.23,0,0,0-2.75-.93,5.85,5.85,0,0,0-1.56-.19,1.38,1.38,0,0,0-.71.22c-.11.08-.24.13-.36.2a2.34,2.34,0,0,0-.43.33,2.78,2.78,0,0,0-.71,1.62,1.33,1.33,0,0,0,.64,1.32c.22.14.45.26.68.38s.31.2.48.29l1.24.59c1.12.51,2.28.92,3.44,1.33l1.09.41,2.29.8.76.26a.88.88,0,0,0,.88-.13,2.67,2.67,0,0,0,.57-.64,4,4,0,0,0,.64-1.44,1.05,1.05,0,0,0-.62-1.26c-.5-.23-1-.42-1.53-.62s-.85-.33-1.27-.51c-1.37-.61-2.77-1.1-4.16-1.61a3.08,3.08,0,0,0-.8-.17.91.91,0,0,0-1,.49c-.11.2-.22.4-.32.6a1.58,1.58,0,0,0-.12,1,.92.92,0,0,0,.37.64,3.37,3.37,0,0,0,.94.49l1.19.43,2,.68.83.26c.72.21,1.44.45,2.14.73a1.57,1.57,0,0,0,.28.1.24.24,0,0,0,.15-.45l-.26-.11c-.93-.4-1.9-.7-2.85-1-.44-.14-.87-.3-1.3-.45l-1.93-.67a5.49,5.49,0,0,1-.73-.36.55.55,0,0,1-.29-.56,1.58,1.58,0,0,1,.21-.74c.05-.09.12-.18.17-.28a.42.42,0,0,1,.47-.23,4.41,4.41,0,0,1,.72.16c.38.12.75.27,1.12.42l2,.76.8.34c.55.22,1.11.43,1.66.66l1.15.47c.41.21.49.4.41.78a3.24,3.24,0,0,1-.46,1c-.13.19-.28.37-.43.55a.46.46,0,0,1-.56.13l-2.47-.85-1.18-.44-1.42-.53Z"/><path class="cls-19" d="M140.13,119.68a26.79,26.79,0,0,1-2.56-1l-.25-.15a2,2,0,0,0-.25-.14,11.83,11.83,0,0,1-1.6-.78.94.94,0,0,1-.43-1,2.68,2.68,0,0,1,.47-1.08,1.19,1.19,0,0,1,.37-.3,2.08,2.08,0,0,0,.36-.2.92.92,0,0,1,.51-.15,5.71,5.71,0,0,1,1.59.23,22.41,22.41,0,0,1,2.68,1c.88.37,1.78.67,2.68,1l.56.21a.93.93,0,0,0,.23,0,.22.22,0,0,0,.22-.19.24.24,0,0,0-.08-.26,1.51,1.51,0,0,0-.22-.11l-1.48-.53L141,115.4a20.69,20.69,0,0,0-2.75-.93,5.44,5.44,0,0,0-1.55-.19,1.41,1.41,0,0,0-.72.22c-.11.07-.24.12-.35.2a2.29,2.29,0,0,0-.43.32,2.78,2.78,0,0,0-.71,1.63,1.31,1.31,0,0,0,.64,1.32c.22.14.45.25.67.38s.32.2.49.28c.41.21.82.4,1.24.59,1.12.52,2.28.92,3.43,1.34.37.13.73.28,1.09.4l2.29.8.77.27a.88.88,0,0,0,.88-.14,2.41,2.41,0,0,0,.56-.63,4,4,0,0,0,.65-1.44,1.05,1.05,0,0,0-.63-1.26c-.5-.23-1-.42-1.52-.63s-.86-.32-1.28-.51c-1.36-.6-2.76-1.09-4.16-1.61a3.46,3.46,0,0,0-.79-.16.93.93,0,0,0-1,.49c-.11.19-.21.39-.31.6a1.65,1.65,0,0,0-.13,1,.92.92,0,0,0,.38.63,3.27,3.27,0,0,0,.94.5c.39.15.79.28,1.18.42l2,.68c.28.1.56.18.84.26.72.22,1.44.45,2.14.74l.27.09a.23.23,0,0,0,.16-.44c-.09,0-.18-.08-.27-.12-.92-.4-1.89-.69-2.85-1-.43-.14-.86-.31-1.3-.46-.64-.22-1.28-.43-1.92-.66-.25-.1-.49-.24-.73-.36a.56.56,0,0,1-.3-.56,1.49,1.49,0,0,1,.22-.74c.05-.1.12-.18.17-.28a.41.41,0,0,1,.47-.23,4.29,4.29,0,0,1,.71.16c.38.12.76.27,1.13.41l2,.77c.27.1.54.23.81.34l1.65.65,1.15.48c.41.21.5.4.42.78a3.26,3.26,0,0,1-.47,1c-.13.19-.27.37-.42.55a.47.47,0,0,1-.56.12c-.82-.29-1.65-.55-2.48-.84-.4-.14-.78-.3-1.18-.45l-1.41-.52Z"/><path class="cls-2" d="M176.06,165.85c2-1.54,28.22-21,31.47-23.37.61-.43,1.24-.84,1.86-1.25A1.94,1.94,0,0,1,210,141l5.6-1.37,1.92-.48a.54.54,0,0,1,.42,0c.16.13.08.32,0,.48-.42.77-.83,1.56-1.28,2.32-.71,1.15-1.45,2.28-2.18,3.42a3.3,3.3,0,0,0-.23.41,3.61,3.61,0,0,1-1.41,1.61c-2,1.52-4,3.07-6.06,4.59-2.34,1.76-29.34,22.27-31.56,24-1.88,1.48-3.74,3-5.65,4.43-1.5,1.12-3,2.24-4.4,3.49-.31.27-.4.28-.71,0a11.16,11.16,0,0,1-1.13-1.15c-.94-1.17-1.87-2.36-2.77-3.58-.7-.93-.58-.81.18-1.49,1-.92,2.12-1.79,3.21-2.65,1.53-1.2,3.08-2.37,4.63-3.54C171,169.62,173.58,167.77,176.06,165.85Z"/><path class="cls-19" d="M164.82,183a16.52,16.52,0,0,1-4.59-6c.06-.07.12-.15.19-.22,3.08-2.6,6.28-5,9.52-7.44,1.59-1.18,3.19-2.34,4.75-3.55s30.2-22.49,33.43-24.78c.36-.26.75-.42,1.13-.66a39.63,39.63,0,0,1,4,5.55c-.25.22-.45.4-.67.56l-4,3c-3.06,2.29-30.6,23.24-33.83,25.78-2.69,2.11-5.41,4.18-8.12,6.27-.52.41-1,.85-1.52,1.27-.1.09-.22.16-.35.26Z"/><path class="cls-5" d="M215.43,142.22a2.43,2.43,0,0,1-.45-.4c-.57-.73-1.12-1.48-1.66-2.23-.31-.43-.26-.68.18-.8,1.19-.33,2.38-.64,3.58-.94a.62.62,0,0,1,.5.12.6.6,0,0,1,.07.51,18,18,0,0,1-2,3.64s-.09,0-.18.1Z"/><path class="cls-20" d="M231.34,117.52a6.46,6.46,0,0,1,5.44-9,8.24,8.24,0,0,1,4.58.77,6.53,6.53,0,0,1,1.11,11.09,12.24,12.24,0,0,1-2.18,1.4,5.71,5.71,0,0,1-4.46,0A7.58,7.58,0,0,1,231.34,117.52Zm-4.1-27.43a7,7,0,0,1,4.23-.25,8.07,8.07,0,0,1,5.34,3.58,5.41,5.41,0,0,1-.15,6.1,14.46,14.46,0,0,1-1.69,2.14,5.21,5.21,0,0,1-3.88,1.72,7.47,7.47,0,0,1-7.09-4.1,6.88,6.88,0,0,1,2.25-8.66A9.41,9.41,0,0,1,227.24,90.09Zm21.28,38a5.85,5.85,0,0,1,1-.24c3-.23,5.54.53,7.28,3.13a4.59,4.59,0,0,1,.69,1.82A5.92,5.92,0,0,1,251.7,140a6.56,6.56,0,0,1-5.44-2.43,5,5,0,0,1-1.1-2.92,11.82,11.82,0,0,1,.07-2.45A5.07,5.07,0,0,1,248.52,128.13ZM227.25,69.67a8.15,8.15,0,0,1,10,3.7,6,6,0,0,1,.08,5.17,7.1,7.1,0,0,1-8,4.09,2.1,2.1,0,0,1-1.56-1,1.65,1.65,0,0,0-.52-.45,8.82,8.82,0,0,1-2.81-2.89,6.3,6.3,0,0,1,1.63-8C226.54,70,227,69.81,227.25,69.67Zm23.17,3.9a21.89,21.89,0,0,1-2.13.69,6.86,6.86,0,0,1-5.91-1.33,5.75,5.75,0,0,1-2.11-5.45,7.89,7.89,0,0,1,1.46-3.77,6,6,0,0,1,4.59-2.53,9.09,9.09,0,0,1,6.64,2,4.51,4.51,0,0,1,1.84,4.19A7.11,7.11,0,0,1,250.42,73.57Zm27.45,44.08c-3.4,1.36-4.77,3.54-4.55,6.72a10.22,10.22,0,0,0,.86,3.25,7.52,7.52,0,0,0,3.94,4c.68.31,1.36.61,2.05.9a3.88,3.88,0,0,0,.94.27,8.49,8.49,0,0,0,6-1.28,6.7,6.7,0,0,0,3.26-5.74,15.7,15.7,0,0,0-.11-2.17,7,7,0,0,0-4.89-6.05A11.52,11.52,0,0,0,277.87,117.65ZM272,72.93c.9,2.77.84,5.43-1,7.88a8.77,8.77,0,0,1-2.4,2.14,5.73,5.73,0,0,1-5.27.42,8.23,8.23,0,0,1-5.48-6,9.44,9.44,0,0,1-.29-3.62,5.58,5.58,0,0,1,3.83-5,8.56,8.56,0,0,1,8.82,1.62A6.13,6.13,0,0,1,272,72.93Zm1,20.92a7.8,7.8,0,0,1,.39-5.78A5.32,5.32,0,0,1,277.68,85a7.52,7.52,0,0,1,7.73,3.37,4.87,4.87,0,0,1,.75,3.5A7.22,7.22,0,0,1,281.3,98C278,99.24,274.48,97.58,273,93.85ZM306.21,114a52.88,52.88,0,0,1,3.53,15.16,59.28,59.28,0,0,1,.17,12.35,16,16,0,0,1-2.35,7.15,13.3,13.3,0,0,1-5.61,4.87,5,5,0,0,1-3,.29,9.93,9.93,0,0,1-3.58-1.39,108,108,0,0,1-9.48-6.7c-1.66-1.26-3.3-2.55-5-3.8a20.29,20.29,0,0,0-2.09-1.3,5.67,5.67,0,0,0-2.92-.63,1,1,0,0,0-1,.63,4.48,4.48,0,0,0,0,3.93,13.63,13.63,0,0,0,3.31,4,42.93,42.93,0,0,1,4.28,4.56,7.25,7.25,0,0,1,1.62,5.78,3.38,3.38,0,0,1-2,2.69,11.06,11.06,0,0,1-4.82,1.11,22.7,22.7,0,0,1-8.45-1.92,45.75,45.75,0,0,1-13.26-8.14,142.29,142.29,0,0,1-11.11-10.44,136,136,0,0,1-12.86-16c-2.25-3.34-4.45-6.72-6.45-10.22a87,87,0,0,1-5.89-12.22,56.81,56.81,0,0,1-3.32-13.9c-.29-2.52-.44-5-.5-7.57a9.76,9.76,0,0,1,.43-3.4c.59-1.78,1.07-3.61,1.8-5.33.57-1.36,1.15-2.72,1.7-4.09a23.29,23.29,0,0,1,3.45-5.79,14.47,14.47,0,0,1,4.76-3.78,43.7,43.7,0,0,1,10.1-3.64,22.59,22.59,0,0,1,6.3-.48,34.29,34.29,0,0,1,5.43.76,56.55,56.55,0,0,1,17.79,7.23,75,75,0,0,1,7.28,4.67c.78.6,1.51,1.26,2.25,1.91a3.29,3.29,0,0,1,1,1.34.85.85,0,0,0,.3.38,50.79,50.79,0,0,1,8,8.49c2,2.71,4,5.5,5.93,8.28,1.18,1.69,2.3,3.43,3.39,5.18,1.22,2,2.41,4,3.57,6,1.42,2.46,2.85,4.91,4.17,7.42C304.18,109.57,305.16,111.81,306.21,114Z"/><path class="cls-20" d="M277.87,117.65c-3.4,1.36-4.77,3.54-4.55,6.72a10.22,10.22,0,0,0,.86,3.25,7.52,7.52,0,0,0,3.94,4c.68.31,1.36.61,2.05.9a3.88,3.88,0,0,0,.94.27,8.49,8.49,0,0,0,6-1.28,6.7,6.7,0,0,0,3.26-5.74,15.7,15.7,0,0,0-.11-2.17,7,7,0,0,0-4.89-6.05A11.52,11.52,0,0,0,277.87,117.65ZM306.21,114a52.88,52.88,0,0,1,3.53,15.16,59.28,59.28,0,0,1,.17,12.35,16,16,0,0,1-2.35,7.15,13.3,13.3,0,0,1-5.61,4.87,5,5,0,0,1-3,.29,9.93,9.93,0,0,1-3.58-1.39,108,108,0,0,1-9.48-6.7c-1.66-1.26-3.3-2.55-5-3.8a20.29,20.29,0,0,0-2.09-1.3,5.67,5.67,0,0,0-2.92-.63,1,1,0,0,0-1,.63,4.48,4.48,0,0,0,0,3.93,13.63,13.63,0,0,0,3.31,4,42.93,42.93,0,0,1,4.28,4.56,7.25,7.25,0,0,1,1.62,5.78,3.38,3.38,0,0,1-2,2.69,11.06,11.06,0,0,1-4.82,1.11,22.7,22.7,0,0,1-8.45-1.92,45.75,45.75,0,0,1-13.26-8.14,142.29,142.29,0,0,1-11.11-10.44,136,136,0,0,1-12.86-16c-2.25-3.34-4.45-6.72-6.45-10.22a87,87,0,0,1-5.89-12.22,56.81,56.81,0,0,1-3.32-13.9c-.29-2.52-.44-5-.5-7.57a9.76,9.76,0,0,1,.43-3.4c.59-1.78,1.07-3.61,1.8-5.33.57-1.36,1.15-2.72,1.7-4.09a23.29,23.29,0,0,1,3.45-5.79,14.47,14.47,0,0,1,4.76-3.78,43.7,43.7,0,0,1,10.1-3.64,22.59,22.59,0,0,1,6.3-.48,34.29,34.29,0,0,1,5.43.76,56.55,56.55,0,0,1,17.79,7.23,75,75,0,0,1,7.28,4.67c.78.6,1.51,1.26,2.25,1.91a3.29,3.29,0,0,1,1,1.34.85.85,0,0,0,.3.38,50.79,50.79,0,0,1,8,8.49c2,2.71,4,5.5,5.93,8.28,1.18,1.69,2.3,3.43,3.39,5.18,1.22,2,2.41,4,3.57,6,1.42,2.46,2.85,4.91,4.17,7.42C304.18,109.57,305.16,111.81,306.21,114Z"/><path class="cls-20" d="M277.45,87a5.32,5.32,0,0,0-4.33,3.11,7.8,7.8,0,0,0-.39,5.78c1.52,3.73,5,5.39,8.34,4.17a7.22,7.22,0,0,0,4.86-6.19,4.89,4.89,0,0,0-.75-3.5A7.52,7.52,0,0,0,277.45,87Zm-19.81-7.69a8.23,8.23,0,0,0,5.48,6,5.75,5.75,0,0,0,5.28-.42,8.92,8.92,0,0,0,2.39-2.15c1.81-2.44,1.87-5.1,1-7.87A6.13,6.13,0,0,0,270,72.32a8.56,8.56,0,0,0-8.82-1.62,5.58,5.58,0,0,0-3.83,4.94A9.48,9.48,0,0,0,257.64,79.27Zm-9.74-3a21.72,21.72,0,0,0,2.12-.69,7.1,7.1,0,0,0,4.39-6.24,4.54,4.54,0,0,0-1.84-4.19,9.11,9.11,0,0,0-6.65-2,6,6,0,0,0-4.59,2.53,8,8,0,0,0-1.45,3.77A5.71,5.71,0,0,0,242,74.89,6.86,6.86,0,0,0,247.9,76.22Zm-20.36,7.29a2.11,2.11,0,0,0,1.56,1,7.1,7.1,0,0,0,8-4.09,5.9,5.9,0,0,0-.08-5.17,7.42,7.42,0,0,0-3-3.09,7.58,7.58,0,0,0-7-.61,10.93,10.93,0,0,0-1.13.64,6.32,6.32,0,0,0-1.64,8A9,9,0,0,0,227,83.06,1.63,1.63,0,0,1,227.54,83.51Zm23.81,58.24a5.93,5.93,0,0,0,5.77-7.13,4.91,4.91,0,0,0-.69-1.82c-1.74-2.6-4.31-3.36-7.28-3.13a4.85,4.85,0,0,0-1,.24,5.08,5.08,0,0,0-3.29,4,12.63,12.63,0,0,0-.08,2.46,5.1,5.1,0,0,0,1.1,2.91A6.56,6.56,0,0,0,251.35,141.75ZM230.8,105.28a5.21,5.21,0,0,0,3.88-1.72,14.6,14.6,0,0,0,1.7-2.15,5.4,5.4,0,0,0,.14-6.1,8.11,8.11,0,0,0-5.34-3.58A7.17,7.17,0,0,0,227,92c-.33.18-.68.33-1,.53a6.89,6.89,0,0,0-2.25,8.67A7.47,7.47,0,0,0,230.8,105.28ZM240,123.67a11.52,11.52,0,0,0,2.18-1.39,6.53,6.53,0,0,0-1.1-11.1,8.32,8.32,0,0,0-4.58-.77,6.46,6.46,0,0,0-5.44,9,7.6,7.6,0,0,0,4.49,4.29A5.68,5.68,0,0,0,240,123.67Z"/><path class="cls-21" d="M231.13,119.51a6.47,6.47,0,0,1,5.44-9,8.34,8.34,0,0,1,4.59.77,6.54,6.54,0,0,1,1.1,11.1,11.85,11.85,0,0,1-2.18,1.39,5.71,5.71,0,0,1-4.46,0A7.6,7.6,0,0,1,231.13,119.51ZM227,92.08a7.17,7.17,0,0,1,4.22-.25,8.11,8.11,0,0,1,5.34,3.58,5.4,5.4,0,0,1-.14,6.1,14.6,14.6,0,0,1-1.7,2.15,5.23,5.23,0,0,1-3.88,1.72,7.47,7.47,0,0,1-7.08-4.1,6.89,6.89,0,0,1,2.25-8.67C226.36,92.41,226.71,92.26,227,92.08Zm21.28,38a6.69,6.69,0,0,1,1-.24c3-.22,5.54.54,7.28,3.14a4.8,4.8,0,0,1,.69,1.81A5.93,5.93,0,0,1,251.5,142a6.58,6.58,0,0,1-5.45-2.44,5.13,5.13,0,0,1-1.1-2.92,12.56,12.56,0,0,1,.08-2.45A5.07,5.07,0,0,1,248.32,130.12ZM227.05,71.67a7.58,7.58,0,0,1,7,.61,7.39,7.39,0,0,1,3,3.08,5.94,5.94,0,0,1,.08,5.17,7.11,7.11,0,0,1-8,4.1,2.14,2.14,0,0,1-1.55-1,1.52,1.52,0,0,0-.52-.45,9,9,0,0,1-2.82-2.89,6.31,6.31,0,0,1,1.64-8A10.93,10.93,0,0,1,227.05,71.67Zm23.16,3.9c-.74.24-1.42.53-2.12.68a6.85,6.85,0,0,1-5.91-1.32,5.73,5.73,0,0,1-2.11-5.45,7.91,7.91,0,0,1,1.45-3.78,6,6,0,0,1,4.59-2.53,9.07,9.07,0,0,1,6.65,2,4.53,4.53,0,0,1,1.84,4.18A7.12,7.12,0,0,1,250.21,75.57Zm28,40.31c-3.4,1.35-4.77,3.54-4.55,6.72a10.1,10.1,0,0,0,.86,3.24,7.58,7.58,0,0,0,3.94,4c.68.3,1.36.61,2.05.89a3.48,3.48,0,0,0,.94.27,8.54,8.54,0,0,0,6-1.27,6.7,6.7,0,0,0,3.26-5.74,15.84,15.84,0,0,0-.11-2.18,7,7,0,0,0-4.89-6A11.52,11.52,0,0,0,278.18,115.88Zm-6.39-41a8.21,8.21,0,0,1-1,7.88,9,9,0,0,1-2.4,2.15,5.77,5.77,0,0,1-5.28.42,8.26,8.26,0,0,1-5.48-6,9.83,9.83,0,0,1-.29-3.62,5.57,5.57,0,0,1,3.83-4.94A8.56,8.56,0,0,1,270,72.4,6,6,0,0,1,271.79,74.92Zm1,20.93a7.81,7.81,0,0,1,.4-5.78A5.3,5.3,0,0,1,277.47,87a7.57,7.57,0,0,1,7.74,3.37,4.9,4.9,0,0,1,.74,3.51,7.22,7.22,0,0,1-4.86,6.19C277.8,101.23,274.27,99.57,272.75,95.85ZM306,116a53.2,53.2,0,0,1,3.53,15.17,58.51,58.51,0,0,1,.16,12.34,15.94,15.94,0,0,1-2.35,7.16,13.24,13.24,0,0,1-5.61,4.87,5,5,0,0,1-3,.29,10,10,0,0,1-3.58-1.4,105.94,105.94,0,0,1-9.48-6.7c-1.67-1.25-3.3-2.55-5-3.79a18.65,18.65,0,0,0-2.08-1.31,5.68,5.68,0,0,0-2.93-.62,1,1,0,0,0-1,.62,4.47,4.47,0,0,0,0,3.94,13.79,13.79,0,0,0,3.32,4,41.73,41.73,0,0,1,4.27,4.55,7.22,7.22,0,0,1,1.63,5.78,3.41,3.41,0,0,1-2,2.69,11.06,11.06,0,0,1-4.81,1.12,22.76,22.76,0,0,1-8.46-1.93,45.67,45.67,0,0,1-13.25-8.13,142.41,142.41,0,0,1-11.11-10.44,135,135,0,0,1-12.86-16c-2.25-3.35-4.46-6.72-6.45-10.22a87.55,87.55,0,0,1-5.9-12.22,57.46,57.46,0,0,1-3.32-13.91c-.28-2.52-.43-5-.5-7.56a10.09,10.09,0,0,1,.43-3.41c.59-1.78,1.08-3.6,1.8-5.33.57-1.36,1.15-2.72,1.7-4.09a23.36,23.36,0,0,1,3.45-5.78,14.35,14.35,0,0,1,4.76-3.78,43.32,43.32,0,0,1,10.11-3.64,22.17,22.17,0,0,1,6.29-.48,34.55,34.55,0,0,1,5.44.75A56.83,56.83,0,0,1,267,65.78a75.12,75.12,0,0,1,7.29,4.67c.77.61,1.5,1.27,2.24,1.92a3,3,0,0,1,1,1.34,1.08,1.08,0,0,0,.3.38,49.63,49.63,0,0,1,8,8.49c2.05,2.71,4,5.49,5.94,8.28,1.18,1.68,2.29,3.42,3.38,5.17q1.85,3,3.58,6c1.42,2.45,2.85,4.9,4.17,7.41C304,111.57,305,113.8,306,116Z"/><path class="cls-22" d="M226.83,94.32a7,7,0,0,1,4.23-.25,8.07,8.07,0,0,1,5.34,3.58,5.4,5.4,0,0,1-.15,6.09,14.54,14.54,0,0,1-1.69,2.15,5.21,5.21,0,0,1-3.88,1.72,7.47,7.47,0,0,1-7.09-4.1,6.9,6.9,0,0,1,2.25-8.67C226.15,94.64,226.5,94.49,226.83,94.32Z"/><path class="cls-23" d="M272.6,98.19a7.85,7.85,0,0,1,.39-5.78,5.31,5.31,0,0,1,4.33-3.12,7.57,7.57,0,0,1,7.74,3.37,4.9,4.9,0,0,1,.74,3.51,7.22,7.22,0,0,1-4.86,6.19C277.65,103.57,274.12,101.91,272.6,98.19Z"/><path class="cls-24" d="M271.63,77.18a8.21,8.21,0,0,1-1,7.88,8.9,8.9,0,0,1-2.4,2.14,5.78,5.78,0,0,1-5.28.43,8.24,8.24,0,0,1-5.48-6,9.85,9.85,0,0,1-.29-3.62,5.58,5.58,0,0,1,3.83-5,8.56,8.56,0,0,1,8.82,1.62A6.1,6.1,0,0,1,271.63,77.18Z"/><path class="cls-25" d="M249.9,77.87c-.74.24-1.42.52-2.13.68a6.86,6.86,0,0,1-5.91-1.32,5.74,5.74,0,0,1-2.11-5.46A8,8,0,0,1,241.2,68a6,6,0,0,1,4.59-2.53,9.07,9.07,0,0,1,6.65,2,4.51,4.51,0,0,1,1.84,4.18A7.12,7.12,0,0,1,249.9,77.87Z"/><path class="cls-23" d="M226.84,73.86a7.52,7.52,0,0,1,7,.61,7.42,7.42,0,0,1,3,3.08,5.94,5.94,0,0,1,.07,5.17,7.08,7.08,0,0,1-8,4.09,2.08,2.08,0,0,1-1.56-1,1.76,1.76,0,0,0-.52-.45,8.63,8.63,0,0,1-2.81-2.89,6.3,6.3,0,0,1,1.63-8A10.52,10.52,0,0,1,226.84,73.86Z"/><path class="cls-18" d="M248,132.24a5.85,5.85,0,0,1,1-.24c3-.23,5.54.54,7.28,3.13A4.59,4.59,0,0,1,257,137a5.93,5.93,0,0,1-5.77,7.14,6.6,6.6,0,0,1-5.44-2.44,5,5,0,0,1-1.1-2.92,11.82,11.82,0,0,1,.07-2.45A5.07,5.07,0,0,1,248,132.24Z"/><path class="cls-26" d="M231,121.72a6.45,6.45,0,0,1,5.44-9,8.23,8.23,0,0,1,4.58.76,6.54,6.54,0,0,1,1.11,11.1A12.19,12.19,0,0,1,239.9,126a5.71,5.71,0,0,1-4.46,0A7.6,7.6,0,0,1,231,121.72Z"/><path class="cls-2" d="M61.38,55.52a10.1,10.1,0,0,1,.82-3.93,1,1,0,0,0,.06-.4c.44-5,.9-10.11,1.33-15.17.18-2.15.29-4.29.48-6.43a1.21,1.21,0,0,0-.84-1.36,8.6,8.6,0,0,0-2.71-.74c-1.67-.16-3.35-.26-5-.36a.84.84,0,0,0-1,.82c-.13,1-.23,1.92-.38,2.88-.61,3.85-1.22,7.7-1.86,11.54-.27,1.57-.65,3.11-.94,4.67A13.65,13.65,0,0,0,51,51.36a6.46,6.46,0,0,1-.07,1.52c-.43,3.5-9.09,94.22-9.24,100.08,0,.81-.08,1.61-.07,2.42s.07.79.95.88,1.88.19,2.83.2c2.07,0,4.15.06,6.21,0,1.59-.05,1.56-.11,1.65-1.5.16-2.41.36-4.82.55-7.23Z"/><path class="cls-8" d="M57.15,25.72l-3,0c-.5,0-.77.28-.85.86-.13.9-.22,1.81-.36,2.71-.61,3.85-1.22,7.7-1.86,11.55-.29,1.67-.69,3.32-1,5-.17.9-.28,1.81-.39,2.71-.07.59.06.73.71.82.84.13,1.69.24,2.53.34l7.18.86c.68.08.87-.06.94-.75.17-1.87.34-3.75.49-5.62.44-5.33.86-10.66,1.32-16A1.27,1.27,0,0,0,62,26.74a13.55,13.55,0,0,0-3.71-.87c-.36-.06-.73-.06-1.09-.09Z"/><path class="cls-8" d="M40.82,147.51c-.21,2.38-.25,4.77-.34,7.16,0,.76,0,.82.92.88q2.93.19,5.85.31c.89,0,1.77,0,2.65,0a10.52,10.52,0,0,0,1.27-.11c.82-.13.89-.22.92-.95s0-1.72.11-2.57c.31-3.72,7.64-93,7.85-95.34.09-1,.24-2.08.35-3.13.06-.66.1-1.33.16-2.1-.58-.12-1.15-.29-1.75-.36-2.75-.32-5.51-.62-8.27-.93a3.34,3.34,0,0,0-.41,0c-.13.7-.29,1.37-.38,2.06C48.75,60.58,41.35,141.51,40.82,147.51Zm9.31-2.26c.55-6.7,1.15-13.39,1.66-20.09.61-8,1.15-15.92,1.73-23.87.26-3.49.57-7,.85-10.45.11-1.26.2-2.52.34-3.77.36-3.21.8-6.4,1.1-9.61.61-6.67,1.15-13.34,1.73-20,.11-1.28.29-2.56.45-3.84,0-.4.16-.78.24-1.2a3.11,3.11,0,0,1,.54,0c.07,0,.13.08.19.22-.74,5.33-1.17,10.68-1.6,16-.31,4-.67,7.93-1.09,11.88-.44,4.17-1,8.32-1.22,12.51-.07,1.48-.21,3-.34,4.42-.48,5.65-1,11.3-1.43,17-.63,8.77-1,17.55-1.92,26.29-.45,4.41-.75,8.84-1.12,13.26,0,.57-.05.58-.75.48,0-.26,0-.53,0-.79C49.7,150.87,49.9,148.06,50.13,145.25Zm-2-7.11q1.22-12.31,2.44-24.63c.45-4.6,1-9.19,1.34-13.8.78-9.4,1.48-18.8,2.24-28.2.5-6.24,1-12.48,1.59-18.71,0-.13,0-.26.07-.44l.73,0c0,.28,0,.44,0,.6-.1,1.37-.19,2.74-.31,4.1-.51,6.08-1.09,12.15-1.55,18.23-.87,11.6-1.77,23.2-3,34.77-.81,7.86-1.55,15.73-2.34,23.59a130.43,130.43,0,0,0-.87,17.45c0,1.18,0,2.36-.08,3.59l-.73,0c0-.33,0-.59,0-.85,0-1.05,0-2.1,0-3.14A97.47,97.47,0,0,1,48.11,138.14Zm-2-13c.35-3.77.83-7.53,1.24-11.3.29-2.67.54-5.34.83-8C48.8,100.55,49.49,95.3,50,90c.53-6.16,1.16-12.31,1.8-18.46.59-5.66,1-11.35,1.49-17,.06-.72.11-1.45.17-2.23.68,0,.69,0,.71.44a4.33,4.33,0,0,1,0,.72c-.44,5.44-.8,10.88-1.32,16.31-.58,6-1.48,12-1.8,18-.06.94-.16,1.87-.26,2.81l-2.25,20.76c-.25,2.24-.52,4.49-.74,6.73-.4,4.09-.82,8.18-1.15,12.28-.2,2.44-.26,4.88-.37,7.33q-.3,6.72-.58,13.45c0,1.07-.1,2.15-.19,3.22,0,.5-.08.5-.81.3,0-.69.13-1.41.16-2.13.1-3,.14-5.91.28-8.87.15-3.49.37-7,.57-10.46C45.8,130.55,45.9,127.83,46.15,125.13Zm-2.62,4.49c.46-4.65.87-9.31,1.26-14,.23-2.79.37-5.58.56-8.37.21-3.29.4-6.59.65-9.89.32-4.23.62-8.47,1-12.69.31-3.07.84-6.12,1.19-9.19.82-7.18,1.6-14.37,2.4-21.55.06-.59.14-1.17.22-1.8l.71,0a2.18,2.18,0,0,1,0,.36c-.24,2.33-.47,4.65-.73,7-.37,3.23-.77,6.45-1.14,9.68-.3,2.59-.52,5.19-.87,7.78-.76,5.64-1.52,11.29-1.85,17-.34,5.9-.78,11.8-1.18,17.7-.07,1-.1,2.09-.18,3.13-.14,2.07-.27,4.13-.46,6.19-.47,5.28-1.1,10.54-1.44,15.82-.37,5.92-.49,11.86-.73,17.8,0,.07-.06.14-.1.25l-.62,0a8,8,0,0,1,0-.83c.05-2.33.13-4.67.16-7C42.52,141.18,43,135.4,43.53,129.62Z"/><path class="cls-2" d="M35.38,150.43c0-5.16.21-83.76.4-90.31,0-1.22.11-2.45.19-3.67a4,4,0,0,1,.18-1c1-2.88,2-5.75,3-8.63.34-1,.65-2,1-3,.07-.2.22-.46.37-.51s.38.23.47.5c.46,1.33.94,2.65,1.35,4,.62,2.07,1.19,4.18,1.78,6.27a3.47,3.47,0,0,0,.23.71,7.42,7.42,0,0,1,.53,3.45c0,4.16,0,8.32-.08,12.48,0,4.81.3,71,.35,75.61,0,3.93.1,7.86.07,11.79,0,3.07-.07,6.15.1,9.22,0,.67,0,.79-.56.91a10.9,10.9,0,0,1-2,.29c-1.94,0-3.87,0-5.8,0-1.5,0-1.28-.07-1.38-1.74-.12-2.27-.16-4.55-.18-6.83C35.34,156.81,35.36,153.62,35.38,150.43Z"/><path class="cls-9" d="M46,168.57a24,24,0,0,1-9.7.28,2.12,2.12,0,0,1-.07-.45c-.23-6.56-.2-13.16-.11-19.76,0-3.25.25-81.88.45-88.38,0-.74.11-1.48.16-2.23,1-.44,8-.34,8.85-.14,0,.54,0,1,0,1.42,0,2.5-.06,5-.08,7.51-.07,6.26.3,73.36.35,80.09,0,5.59,0,11.19,0,16.79,0,1.08.07,3.08.11,4.16,0,.22,0,.45,0,.71Z"/><path class="cls-9" d="M44,52.05a3.26,3.26,0,0,1-.76.19c-1.19,0-2.38,0-3.56-.05-.68,0-.89-.32-.67-1,.59-1.88,1.21-3.75,1.84-5.61a.88.88,0,0,1,.51-.54.74.74,0,0,1,.58.41A32.83,32.83,0,0,1,44,51.71a1.21,1.21,0,0,1,0,.34Z"/></g></g></g></svg>