<svg xmlns="http://www.w3.org/2000/svg" width="216.401" height="216.396" viewBox="0 0 216.401 216.396"><path d="M210.457,31.349,185.052,5.943a20.3,20.3,0,0,0-28.7,0l-23.9,23.9,54.107,54.107,23.9-23.9a20.3,20.3,0,0,0,0-28.7Zm-104.31-8.677a16.9,16.9,0,0,0-23.9,0l-50.2,50.206a6.757,6.757,0,0,0,0,9.56L41.605,92a6.762,6.762,0,0,0,9.565,0L94.2,48.969l9.565,9.56L39.712,122.581A138.222,138.222,0,0,0,.076,205.032l-.013.1a10.145,10.145,0,0,0,11.2,11.2,138.214,138.214,0,0,0,82.56-39.644l83.173-83.173L142.009,58.533,106.148,22.672Z" transform="translate(0.001 0)" fill="rgba(255,221,113,0.3)"/></svg>