<svg xmlns="http://www.w3.org/2000/svg" width="107.206" height="25" viewBox="0 0 107.206 25"><g transform="translate(-21 -107.004)"><rect width="12" height="25" transform="translate(21 107.004)" fill="#69f0ae"/><rect width="12" height="12" transform="translate(34 107.004)" fill="#2bbd7e"/><rect width="12" height="12" transform="translate(34 120.004)" fill="#9fffe0"/></g><path d="M1.474,0H8.932c2.794,0,4.246-1.65,4.246-3.894a3.543,3.543,0,0,0-2.53-3.542V-7.48a3.363,3.363,0,0,0,1.87-3.168c0-2.178-1.43-3.74-4.158-3.74H1.474ZM4.29-8.558V-11.77h3.7c1.3,0,1.738.682,1.738,1.606A1.534,1.534,0,0,1,8.008-8.558Zm0,5.962V-6.05H8.47A1.687,1.687,0,0,1,10.3-4.312,1.623,1.623,0,0,1,8.448-2.6ZM20.24.286a5.582,5.582,0,0,0,5.852-5.72,5.582,5.582,0,0,0-5.852-5.72,5.582,5.582,0,0,0-5.852,5.72A5.582,5.582,0,0,0,20.24.286Zm0-2.442a3.1,3.1,0,0,1-3.212-3.278A3.1,3.1,0,0,1,20.24-8.712a3.084,3.084,0,0,1,3.19,3.278A3.084,3.084,0,0,1,20.24-2.156ZM32.78.286a3.947,3.947,0,0,0,3.85-2.42V0h2.4V-5.346a5.5,5.5,0,0,0-5.786-5.808,5.59,5.59,0,0,0-5.874,5.83A5.339,5.339,0,0,0,32.78.286Zm.44-2.442a3.1,3.1,0,0,1-3.212-3.278A3.1,3.1,0,0,1,33.22-8.712a3.084,3.084,0,0,1,3.19,3.278A3.084,3.084,0,0,1,33.22-2.156ZM41.184,0H43.8V-6.314c0-1.76.88-2.4,2.156-2.4s2.156.638,2.156,2.4v.11h2.6V-6.27c0-3.322-1.914-4.884-4.752-4.884s-4.774,1.562-4.774,4.84ZM57.552.286a5.491,5.491,0,0,0,5.786-5.808v-10.1H60.72v6.336a4.131,4.131,0,0,0-3.63-1.87,5.339,5.339,0,0,0-5.412,5.61A5.59,5.59,0,0,0,57.552.286ZM57.53-2.156a3.1,3.1,0,0,1-3.212-3.278A3.1,3.1,0,0,1,57.53-8.712a3.084,3.084,0,0,1,3.19,3.278A3.084,3.084,0,0,1,57.53-2.156ZM69.652.286c2.772,0,4.554-1.452,4.554-3.652,0-2.706-2.662-2.992-4.114-3.19-1.166-.154-2.156-.286-2.156-1.122,0-.638.572-1.188,1.716-1.188,1.034,0,1.65.462,1.716,1.122h2.6c-.066-1.914-1.694-3.41-4.356-3.41C66.99-11.154,65.3-9.7,65.3-7.48c0,2.662,2.464,2.948,4.136,3.168,1.166.154,2.134.264,2.134,1.1,0,.66-.572,1.21-1.914,1.21-1.276,0-1.914-.484-1.936-1.21h-2.64C65.142-1.188,66.88.286,69.652.286Z" transform="translate(33 24)" fill="#222"/></svg>