<svg xmlns="http://www.w3.org/2000/svg" xmlns:xlink="http://www.w3.org/1999/xlink" viewBox="0 0 301.43 368.5"><defs><style>.cls-1{fill:url(#linear-gradient);}.cls-2{fill:url(#linear-gradient-2);}.cls-3{fill:url(#linear-gradient-3);}.cls-4{fill:url(#linear-gradient-4);}.cls-5{fill:url(#linear-gradient-5);}.cls-6{fill:url(#linear-gradient-6);}.cls-7{fill:url(#linear-gradient-7);}.cls-8{fill:url(#linear-gradient-8);}.cls-9{fill:url(#linear-gradient-9);}.cls-10{fill:url(#linear-gradient-10);}.cls-11{fill:url(#linear-gradient-11);}.cls-12{fill:url(#linear-gradient-12);}.cls-13{fill:url(#linear-gradient-13);}.cls-14{fill:url(#linear-gradient-14);}.cls-15{fill:url(#linear-gradient-15);}.cls-16{fill:url(#linear-gradient-16);}.cls-17{fill:url(#linear-gradient-17);}.cls-18{fill:url(#linear-gradient-18);}.cls-19{fill:url(#linear-gradient-19);}.cls-20{fill:url(#linear-gradient-20);}.cls-21{fill:url(#linear-gradient-21);}.cls-22{fill:url(#linear-gradient-22);}.cls-23{fill:url(#linear-gradient-23);}.cls-24{fill:url(#linear-gradient-24);}.cls-25{fill:url(#linear-gradient-25);}.cls-26{fill:url(#linear-gradient-26);}.cls-27{fill:url(#linear-gradient-27);}.cls-28{fill:url(#linear-gradient-28);}.cls-29{fill:url(#linear-gradient-29);}.cls-30{fill:url(#linear-gradient-30);}.cls-31{fill:url(#linear-gradient-31);}.cls-32{fill:url(#linear-gradient-32);}.cls-33{fill:url(#linear-gradient-33);}.cls-34{fill:url(#linear-gradient-34);}.cls-35{fill:url(#linear-gradient-35);}.cls-36{fill:url(#linear-gradient-36);}.cls-37{fill:url(#linear-gradient-37);}.cls-38{fill:url(#linear-gradient-38);}.cls-39{fill:url(#linear-gradient-39);}.cls-40{fill:url(#linear-gradient-40);}.cls-41{fill:url(#linear-gradient-41);}.cls-42{fill:url(#linear-gradient-42);}.cls-43{fill:url(#linear-gradient-43);}.cls-44{fill:url(#linear-gradient-44);}.cls-45{fill:url(#linear-gradient-45);}.cls-46{fill:url(#linear-gradient-46);}.cls-47{fill:url(#linear-gradient-47);}.cls-48{fill:url(#linear-gradient-48);}.cls-49{fill:url(#linear-gradient-49);}.cls-50{fill:url(#linear-gradient-50);}.cls-51{fill:url(#linear-gradient-51);}.cls-52{fill:url(#linear-gradient-52);}.cls-53{fill:url(#linear-gradient-53);}.cls-54{fill:url(#linear-gradient-54);}.cls-55{fill:url(#linear-gradient-55);}.cls-56{fill:url(#linear-gradient-56);}.cls-57{fill:url(#linear-gradient-57);}.cls-58{fill:url(#linear-gradient-58);}.cls-59{fill:url(#linear-gradient-59);}.cls-60{fill:url(#linear-gradient-60);}.cls-61{fill:url(#linear-gradient-61);}</style><linearGradient id="linear-gradient" x1="155.16" y1="368.5" x2="155.16" gradientUnits="userSpaceOnUse"><stop offset="0" stop-color="#949494"/><stop offset="0.04" stop-color="#9a9a9a"/><stop offset="0.28" stop-color="#b5b5b5"/><stop offset="0.52" stop-color="#c9c9c9"/><stop offset="0.76" stop-color="#d5d5d5"/><stop offset="1" stop-color="#d9d9d9"/></linearGradient><linearGradient id="linear-gradient-2" x1="16.52" y1="23.38" x2="16.52" y2="15.51" gradientUnits="userSpaceOnUse"><stop offset="0" stop-color="#0a0a0a"/><stop offset="0.45" stop-color="#181818"/><stop offset="1" stop-color="#303030"/></linearGradient><linearGradient id="linear-gradient-3" y1="17" x2="18.15" y2="17" gradientUnits="userSpaceOnUse"><stop offset="0" stop-color="#0a0a0a"/><stop offset="0.06" stop-color="#101010"/><stop offset="0.13" stop-color="#202020"/><stop offset="0.22" stop-color="#3c3c3c"/><stop offset="0.32" stop-color="#626262"/><stop offset="0.42" stop-color="#939393"/><stop offset="0.52" stop-color="#cecece"/><stop offset="0.55" stop-color="#e0e0e0"/><stop offset="1" stop-color="#545454"/></linearGradient><linearGradient id="linear-gradient-4" y1="21.89" x2="18.15" y2="21.89" xlink:href="#linear-gradient-3"/><linearGradient id="linear-gradient-5" x1="16.52" y1="40.66" x2="16.52" y2="32.8" xlink:href="#linear-gradient-2"/><linearGradient id="linear-gradient-6" y1="34.28" x2="18.15" y2="34.28" xlink:href="#linear-gradient-3"/><linearGradient id="linear-gradient-7" y1="39.16" x2="18.15" y2="39.16" xlink:href="#linear-gradient-3"/><linearGradient id="linear-gradient-8" x1="16.52" y1="57.93" x2="16.52" y2="50.07" xlink:href="#linear-gradient-2"/><linearGradient id="linear-gradient-9" y1="51.56" x2="18.15" y2="51.56" xlink:href="#linear-gradient-3"/><linearGradient id="linear-gradient-10" y1="56.44" x2="18.15" y2="56.44" xlink:href="#linear-gradient-3"/><linearGradient id="linear-gradient-11" x1="16.52" y1="75.21" x2="16.52" y2="67.35" xlink:href="#linear-gradient-2"/><linearGradient id="linear-gradient-12" y1="68.84" x2="18.15" y2="68.84" xlink:href="#linear-gradient-3"/><linearGradient id="linear-gradient-13" y1="73.73" x2="18.15" y2="73.73" xlink:href="#linear-gradient-3"/><linearGradient id="linear-gradient-14" x1="16.52" y1="92.49" x2="16.52" y2="84.64" xlink:href="#linear-gradient-2"/><linearGradient id="linear-gradient-15" y1="86.12" x2="18.15" y2="86.12" xlink:href="#linear-gradient-3"/><linearGradient id="linear-gradient-16" y1="91.01" x2="18.15" y2="91.01" xlink:href="#linear-gradient-3"/><linearGradient id="linear-gradient-17" x1="16.52" y1="109.77" x2="16.52" y2="101.91" xlink:href="#linear-gradient-2"/><linearGradient id="linear-gradient-18" y1="103.4" x2="18.15" y2="103.4" xlink:href="#linear-gradient-3"/><linearGradient id="linear-gradient-19" y1="108.28" x2="18.15" y2="108.28" xlink:href="#linear-gradient-3"/><linearGradient id="linear-gradient-20" x1="16.52" y1="127.05" x2="16.52" y2="119.19" xlink:href="#linear-gradient-2"/><linearGradient id="linear-gradient-21" y1="120.68" x2="18.15" y2="120.68" xlink:href="#linear-gradient-3"/><linearGradient id="linear-gradient-22" y1="125.56" x2="18.15" y2="125.56" xlink:href="#linear-gradient-3"/><linearGradient id="linear-gradient-23" x1="16.52" y1="144.33" x2="16.52" y2="136.46" xlink:href="#linear-gradient-2"/><linearGradient id="linear-gradient-24" y1="137.96" x2="18.15" y2="137.96" xlink:href="#linear-gradient-3"/><linearGradient id="linear-gradient-25" y1="142.84" x2="18.15" y2="142.84" xlink:href="#linear-gradient-3"/><linearGradient id="linear-gradient-26" x1="16.52" y1="161.61" x2="16.52" y2="153.74" xlink:href="#linear-gradient-2"/><linearGradient id="linear-gradient-27" y1="155.24" x2="18.15" y2="155.24" xlink:href="#linear-gradient-3"/><linearGradient id="linear-gradient-28" y1="160.12" x2="18.15" y2="160.12" xlink:href="#linear-gradient-3"/><linearGradient id="linear-gradient-29" x1="16.52" y1="178.89" x2="16.52" y2="171.02" xlink:href="#linear-gradient-2"/><linearGradient id="linear-gradient-30" y1="172.51" x2="18.15" y2="172.51" xlink:href="#linear-gradient-3"/><linearGradient id="linear-gradient-31" y1="177.4" x2="18.15" y2="177.4" xlink:href="#linear-gradient-3"/><linearGradient id="linear-gradient-32" x1="16.52" y1="196.17" x2="16.52" y2="188.31" xlink:href="#linear-gradient-2"/><linearGradient id="linear-gradient-33" y1="189.79" x2="18.15" y2="189.79" xlink:href="#linear-gradient-3"/><linearGradient id="linear-gradient-34" y1="194.68" x2="18.15" y2="194.68" xlink:href="#linear-gradient-3"/><linearGradient id="linear-gradient-35" x1="16.52" y1="213.44" x2="16.52" y2="205.59" xlink:href="#linear-gradient-2"/><linearGradient id="linear-gradient-36" y1="207.07" x2="18.15" y2="207.07" xlink:href="#linear-gradient-3"/><linearGradient id="linear-gradient-37" y1="211.95" x2="18.15" y2="211.95" xlink:href="#linear-gradient-3"/><linearGradient id="linear-gradient-38" x1="16.52" y1="230.73" x2="16.52" y2="222.86" xlink:href="#linear-gradient-2"/><linearGradient id="linear-gradient-39" y1="224.35" x2="18.15" y2="224.35" xlink:href="#linear-gradient-3"/><linearGradient id="linear-gradient-40" y1="229.23" x2="18.15" y2="229.23" xlink:href="#linear-gradient-3"/><linearGradient id="linear-gradient-41" x1="16.52" y1="248" x2="16.52" y2="240.14" xlink:href="#linear-gradient-2"/><linearGradient id="linear-gradient-42" y1="241.63" x2="18.15" y2="241.63" xlink:href="#linear-gradient-3"/><linearGradient id="linear-gradient-43" y1="246.51" x2="18.15" y2="246.51" xlink:href="#linear-gradient-3"/><linearGradient id="linear-gradient-44" x1="16.52" y1="265.28" x2="16.52" y2="257.42" xlink:href="#linear-gradient-2"/><linearGradient id="linear-gradient-45" y1="258.91" x2="18.15" y2="258.91" xlink:href="#linear-gradient-3"/><linearGradient id="linear-gradient-46" y1="263.79" x2="18.15" y2="263.79" xlink:href="#linear-gradient-3"/><linearGradient id="linear-gradient-47" x1="16.52" y1="282.56" x2="16.52" y2="274.69" xlink:href="#linear-gradient-2"/><linearGradient id="linear-gradient-48" y1="276.19" x2="18.15" y2="276.19" xlink:href="#linear-gradient-3"/><linearGradient id="linear-gradient-49" y1="281.07" x2="18.15" y2="281.07" xlink:href="#linear-gradient-3"/><linearGradient id="linear-gradient-50" x1="16.52" y1="299.84" x2="16.52" y2="291.97" xlink:href="#linear-gradient-2"/><linearGradient id="linear-gradient-51" y1="293.47" x2="18.15" y2="293.47" xlink:href="#linear-gradient-3"/><linearGradient id="linear-gradient-52" y1="298.35" x2="18.15" y2="298.35" xlink:href="#linear-gradient-3"/><linearGradient id="linear-gradient-53" x1="16.52" y1="317.12" x2="16.52" y2="309.25" xlink:href="#linear-gradient-2"/><linearGradient id="linear-gradient-54" y1="310.74" x2="18.15" y2="310.74" xlink:href="#linear-gradient-3"/><linearGradient id="linear-gradient-55" y1="315.63" x2="18.15" y2="315.63" xlink:href="#linear-gradient-3"/><linearGradient id="linear-gradient-56" x1="16.52" y1="334.39" x2="16.52" y2="326.53" xlink:href="#linear-gradient-2"/><linearGradient id="linear-gradient-57" y1="328.02" x2="18.15" y2="328.02" xlink:href="#linear-gradient-3"/><linearGradient id="linear-gradient-58" y1="332.91" x2="18.15" y2="332.91" xlink:href="#linear-gradient-3"/><linearGradient id="linear-gradient-59" x1="16.52" y1="351.67" x2="16.52" y2="343.81" xlink:href="#linear-gradient-2"/><linearGradient id="linear-gradient-60" y1="345.3" x2="18.15" y2="345.3" xlink:href="#linear-gradient-3"/><linearGradient id="linear-gradient-61" y1="350.18" x2="18.15" y2="350.18" xlink:href="#linear-gradient-3"/></defs><g id="レイヤー_2" data-name="レイヤー 2"><g id="Capa_1" data-name="Capa 1"><rect class="cls-1" x="8.89" width="292.54" height="368.5"/><path class="cls-2" d="M20.46,19.45a3.94,3.94,0,1,1-3.94-3.94A3.94,3.94,0,0,1,20.46,19.45Z"/><path class="cls-3" d="M18.15,17a1.26,1.26,0,0,1-1.27,1.26H1.27A1.26,1.26,0,0,1,0,17H0a1.27,1.27,0,0,1,1.27-1.28H16.88A1.27,1.27,0,0,1,18.15,17Z"/><path class="cls-4" d="M18.15,21.89a1.27,1.27,0,0,1-1.27,1.27H1.27A1.27,1.27,0,0,1,0,21.89H0a1.26,1.26,0,0,1,1.27-1.27H16.88a1.26,1.26,0,0,1,1.27,1.27Z"/><path class="cls-5" d="M20.46,36.73a3.94,3.94,0,1,1-3.94-3.93A3.93,3.93,0,0,1,20.46,36.73Z"/><path class="cls-6" d="M18.15,34.28a1.27,1.27,0,0,1-1.27,1.28H1.27A1.27,1.27,0,0,1,0,34.28H0A1.27,1.27,0,0,1,1.27,33H16.88a1.27,1.27,0,0,1,1.27,1.27Z"/><path class="cls-7" d="M18.15,39.17a1.27,1.27,0,0,1-1.27,1.27H1.27A1.27,1.27,0,0,1,0,39.17H0a1.27,1.27,0,0,1,1.27-1.28H16.88a1.27,1.27,0,0,1,1.27,1.28Z"/><path class="cls-8" d="M20.46,54a3.94,3.94,0,1,1-3.94-3.93A3.93,3.93,0,0,1,20.46,54Z"/><path class="cls-9" d="M18.15,51.56a1.27,1.27,0,0,1-1.27,1.28H1.27A1.27,1.27,0,0,1,0,51.56H0a1.27,1.27,0,0,1,1.27-1.27H16.88a1.27,1.27,0,0,1,1.27,1.27Z"/><path class="cls-10" d="M18.15,56.44a1.27,1.27,0,0,1-1.27,1.28H1.27A1.27,1.27,0,0,1,0,56.44H0a1.27,1.27,0,0,1,1.27-1.27H16.88a1.27,1.27,0,0,1,1.27,1.27Z"/><path class="cls-11" d="M20.46,71.28a3.94,3.94,0,1,1-3.94-3.93A3.93,3.93,0,0,1,20.46,71.28Z"/><path class="cls-12" d="M18.15,68.84a1.27,1.27,0,0,1-1.27,1.28H1.27A1.27,1.27,0,0,1,0,68.84H0a1.27,1.27,0,0,1,1.27-1.27H16.88a1.27,1.27,0,0,1,1.27,1.27Z"/><path class="cls-13" d="M18.15,73.72A1.27,1.27,0,0,1,16.88,75H1.27A1.27,1.27,0,0,1,0,73.72H0a1.27,1.27,0,0,1,1.27-1.27H16.88a1.27,1.27,0,0,1,1.27,1.27Z"/><path class="cls-14" d="M20.46,88.57a3.94,3.94,0,1,1-3.94-3.93A3.93,3.93,0,0,1,20.46,88.57Z"/><path class="cls-15" d="M18.15,86.12a1.27,1.27,0,0,1-1.27,1.27H1.27A1.27,1.27,0,0,1,0,86.12H0a1.27,1.27,0,0,1,1.27-1.27H16.88a1.27,1.27,0,0,1,1.27,1.27Z"/><path class="cls-16" d="M18.15,91a1.27,1.27,0,0,1-1.27,1.27H1.27A1.27,1.27,0,0,1,0,91H0a1.27,1.27,0,0,1,1.27-1.28H16.88A1.27,1.27,0,0,1,18.15,91Z"/><path class="cls-17" d="M20.46,105.84a3.94,3.94,0,1,1-3.94-3.93A3.93,3.93,0,0,1,20.46,105.84Z"/><path class="cls-18" d="M18.15,103.4a1.27,1.27,0,0,1-1.27,1.27H1.27A1.27,1.27,0,0,1,0,103.4H0a1.26,1.26,0,0,1,1.27-1.27H16.88a1.26,1.26,0,0,1,1.27,1.27Z"/><path class="cls-19" d="M18.15,108.28a1.27,1.27,0,0,1-1.27,1.27H1.27A1.27,1.27,0,0,1,0,108.28H0A1.26,1.26,0,0,1,1.27,107H16.88a1.26,1.26,0,0,1,1.27,1.27Z"/><path class="cls-20" d="M20.46,123.12a3.94,3.94,0,1,1-3.94-3.93A3.93,3.93,0,0,1,20.46,123.12Z"/><path class="cls-21" d="M18.15,120.67A1.26,1.26,0,0,1,16.88,122H1.27A1.26,1.26,0,0,1,0,120.67H0a1.27,1.27,0,0,1,1.27-1.27H16.88a1.27,1.27,0,0,1,1.27,1.27Z"/><path class="cls-22" d="M18.15,125.56a1.26,1.26,0,0,1-1.27,1.27H1.27A1.26,1.26,0,0,1,0,125.56H0a1.26,1.26,0,0,1,1.27-1.27H16.88a1.26,1.26,0,0,1,1.27,1.27Z"/><path class="cls-23" d="M20.46,140.4a3.94,3.94,0,1,1-3.94-3.94A3.93,3.93,0,0,1,20.46,140.4Z"/><path class="cls-24" d="M18.15,138a1.27,1.27,0,0,1-1.27,1.28H1.27A1.27,1.27,0,0,1,0,138H0a1.27,1.27,0,0,1,1.27-1.27H16.88A1.27,1.27,0,0,1,18.15,138Z"/><path class="cls-25" d="M18.15,142.84a1.27,1.27,0,0,1-1.27,1.28H1.27A1.27,1.27,0,0,1,0,142.84H0a1.27,1.27,0,0,1,1.27-1.27H16.88a1.27,1.27,0,0,1,1.27,1.27Z"/><path class="cls-26" d="M20.46,157.67a3.94,3.94,0,1,1-3.94-3.93A3.93,3.93,0,0,1,20.46,157.67Z"/><path class="cls-27" d="M18.15,155.23a1.27,1.27,0,0,1-1.27,1.28H1.27A1.27,1.27,0,0,1,0,155.23H0A1.27,1.27,0,0,1,1.27,154H16.88a1.27,1.27,0,0,1,1.27,1.27Z"/><path class="cls-28" d="M18.15,160.12a1.27,1.27,0,0,1-1.27,1.27H1.27A1.27,1.27,0,0,1,0,160.12H0a1.27,1.27,0,0,1,1.27-1.28H16.88a1.27,1.27,0,0,1,1.27,1.28Z"/><path class="cls-29" d="M20.46,175A3.94,3.94,0,1,1,16.52,171,3.94,3.94,0,0,1,20.46,175Z"/><path class="cls-30" d="M18.15,172.51a1.27,1.27,0,0,1-1.27,1.28H1.27A1.27,1.27,0,0,1,0,172.51H0a1.27,1.27,0,0,1,1.27-1.27H16.88a1.27,1.27,0,0,1,1.27,1.27Z"/><path class="cls-31" d="M18.15,177.4a1.27,1.27,0,0,1-1.27,1.27H1.27A1.27,1.27,0,0,1,0,177.4H0a1.27,1.27,0,0,1,1.27-1.28H16.88a1.27,1.27,0,0,1,1.27,1.28Z"/><path class="cls-32" d="M20.46,192.23a3.94,3.94,0,1,1-3.94-3.92A3.93,3.93,0,0,1,20.46,192.23Z"/><path class="cls-33" d="M18.15,189.79a1.27,1.27,0,0,1-1.27,1.28H1.27A1.27,1.27,0,0,1,0,189.79H0a1.27,1.27,0,0,1,1.27-1.27H16.88a1.27,1.27,0,0,1,1.27,1.27Z"/><path class="cls-34" d="M18.15,194.68A1.27,1.27,0,0,1,16.88,196H1.27A1.27,1.27,0,0,1,0,194.68H0a1.27,1.27,0,0,1,1.27-1.28H16.88a1.27,1.27,0,0,1,1.27,1.28Z"/><path class="cls-35" d="M20.46,209.51a3.94,3.94,0,1,1-3.94-3.92A3.93,3.93,0,0,1,20.46,209.51Z"/><path class="cls-36" d="M18.15,207.07a1.27,1.27,0,0,1-1.27,1.28H1.27A1.27,1.27,0,0,1,0,207.07H0a1.27,1.27,0,0,1,1.27-1.27H16.88a1.27,1.27,0,0,1,1.27,1.27Z"/><path class="cls-37" d="M18.15,212a1.27,1.27,0,0,1-1.27,1.28H1.27A1.27,1.27,0,0,1,0,212H0a1.27,1.27,0,0,1,1.27-1.27H16.88A1.27,1.27,0,0,1,18.15,212Z"/><path class="cls-38" d="M20.46,226.79a3.94,3.94,0,1,1-3.94-3.93A3.94,3.94,0,0,1,20.46,226.79Z"/><path class="cls-39" d="M18.15,224.35a1.27,1.27,0,0,1-1.27,1.27H1.27A1.27,1.27,0,0,1,0,224.35H0a1.26,1.26,0,0,1,1.27-1.27H16.88a1.26,1.26,0,0,1,1.27,1.27Z"/><path class="cls-40" d="M18.15,229.23a1.27,1.27,0,0,1-1.27,1.28H1.27A1.27,1.27,0,0,1,0,229.23H0A1.27,1.27,0,0,1,1.27,228H16.88a1.27,1.27,0,0,1,1.27,1.27Z"/><path class="cls-41" d="M20.46,244.07a3.94,3.94,0,1,1-3.94-3.93A3.93,3.93,0,0,1,20.46,244.07Z"/><path class="cls-42" d="M18.15,241.62a1.27,1.27,0,0,1-1.27,1.28H1.27A1.27,1.27,0,0,1,0,241.62H0a1.27,1.27,0,0,1,1.27-1.27H16.88a1.27,1.27,0,0,1,1.27,1.27Z"/><path class="cls-43" d="M18.15,246.51a1.27,1.27,0,0,1-1.27,1.27H1.27A1.27,1.27,0,0,1,0,246.51H0a1.27,1.27,0,0,1,1.27-1.27H16.88a1.27,1.27,0,0,1,1.27,1.27Z"/><path class="cls-44" d="M20.46,261.35a3.94,3.94,0,1,1-3.94-3.93A3.93,3.93,0,0,1,20.46,261.35Z"/><path class="cls-45" d="M18.15,258.91a1.26,1.26,0,0,1-1.27,1.27H1.27A1.26,1.26,0,0,1,0,258.91H0a1.27,1.27,0,0,1,1.27-1.28H16.88a1.27,1.27,0,0,1,1.27,1.28Z"/><path class="cls-46" d="M18.15,263.79a1.27,1.27,0,0,1-1.27,1.28H1.27A1.27,1.27,0,0,1,0,263.79H0a1.27,1.27,0,0,1,1.27-1.27H16.88a1.27,1.27,0,0,1,1.27,1.27Z"/><path class="cls-47" d="M20.46,278.63a3.94,3.94,0,1,1-3.94-3.94A3.93,3.93,0,0,1,20.46,278.63Z"/><path class="cls-48" d="M18.15,276.19a1.27,1.27,0,0,1-1.27,1.27H1.27A1.27,1.27,0,0,1,0,276.19H0a1.27,1.27,0,0,1,1.27-1.28H16.88a1.27,1.27,0,0,1,1.27,1.28Z"/><path class="cls-49" d="M18.15,281.07a1.27,1.27,0,0,1-1.27,1.27H1.27A1.27,1.27,0,0,1,0,281.07H0a1.27,1.27,0,0,1,1.27-1.28H16.88a1.27,1.27,0,0,1,1.27,1.28Z"/><path class="cls-50" d="M20.46,295.9A3.94,3.94,0,1,1,16.52,292,3.93,3.93,0,0,1,20.46,295.9Z"/><path class="cls-51" d="M18.15,293.46a1.27,1.27,0,0,1-1.27,1.28H1.27A1.27,1.27,0,0,1,0,293.46H0a1.27,1.27,0,0,1,1.27-1.27H16.88a1.27,1.27,0,0,1,1.27,1.27Z"/><path class="cls-52" d="M18.15,298.35a1.27,1.27,0,0,1-1.27,1.27H1.27A1.27,1.27,0,0,1,0,298.35H0a1.27,1.27,0,0,1,1.27-1.28H16.88a1.27,1.27,0,0,1,1.27,1.28Z"/><path class="cls-53" d="M20.46,313.19a3.94,3.94,0,1,1-3.94-3.94A3.93,3.93,0,0,1,20.46,313.19Z"/><path class="cls-54" d="M18.15,310.75A1.27,1.27,0,0,1,16.88,312H1.27A1.27,1.27,0,0,1,0,310.75H0a1.27,1.27,0,0,1,1.27-1.28H16.88a1.27,1.27,0,0,1,1.27,1.28Z"/><path class="cls-55" d="M18.15,315.62a1.27,1.27,0,0,1-1.27,1.28H1.27A1.27,1.27,0,0,1,0,315.62H0a1.27,1.27,0,0,1,1.27-1.27H16.88a1.27,1.27,0,0,1,1.27,1.27Z"/><path class="cls-56" d="M20.46,330.46a3.94,3.94,0,1,1-3.94-3.93A3.93,3.93,0,0,1,20.46,330.46Z"/><path class="cls-57" d="M18.15,328a1.27,1.27,0,0,1-1.27,1.28H1.27A1.27,1.27,0,0,1,0,328H0a1.27,1.27,0,0,1,1.27-1.27H16.88A1.27,1.27,0,0,1,18.15,328Z"/><path class="cls-58" d="M18.15,332.9a1.27,1.27,0,0,1-1.27,1.28H1.27A1.27,1.27,0,0,1,0,332.9H0a1.27,1.27,0,0,1,1.27-1.27H16.88a1.27,1.27,0,0,1,1.27,1.27Z"/><path class="cls-59" d="M20.46,347.75a3.94,3.94,0,1,1-3.94-3.94A3.93,3.93,0,0,1,20.46,347.75Z"/><path class="cls-60" d="M18.15,345.3a1.27,1.27,0,0,1-1.27,1.28H1.27A1.27,1.27,0,0,1,0,345.3H0A1.27,1.27,0,0,1,1.27,344H16.88a1.27,1.27,0,0,1,1.27,1.27Z"/><path class="cls-61" d="M18.15,350.18a1.27,1.27,0,0,1-1.27,1.28H1.27A1.27,1.27,0,0,1,0,350.18H0a1.27,1.27,0,0,1,1.27-1.27H16.88a1.27,1.27,0,0,1,1.27,1.27Z"/></g></g></svg>