<svg xmlns="http://www.w3.org/2000/svg" viewBox="0 0 45.36 141.69"><defs><style>.cls-1{isolation:isolate;}.cls-2{fill:#e63182;}.cls-3{fill:#e56f9a;mix-blend-mode:multiply;}.cls-4{fill:none;stroke:#e63182;stroke-miterlimit:10;stroke-width:0.53px;}.cls-5{fill:#fff;mix-blend-mode:soft-light;opacity:0.8;}</style></defs><g class="cls-1"><g id="レイヤー_2" data-name="レイヤー 2"><g id="Capa_1" data-name="Capa 1"><path class="cls-2" d="M22.88,58s-2.71,2.57-1.94,4.4a7.34,7.34,0,0,0,5.39,0s.81-1.51-2.13-4.35Z"/><path class="cls-2" d="M45.36,34.72C45.36,51,35.2,58.81,22.68,58.81S0,50.46,0,34.22,10.15,0,22.68,0,45.36,18.48,45.36,34.72Z"/><path class="cls-3" d="M33,4.3c.48,1,.93,2.05,1.35,3.1,2.79,7,3,14.53,2.33,22A26.16,26.16,0,0,1,34,38.69a29.92,29.92,0,0,1-5,7.83c-4,4.11-9.36,7-15,7a19.28,19.28,0,0,1-7.45-1.06,22.19,22.19,0,0,0,16.15,6.32c12.52,0,22.68-7.85,22.68-24.09C45.36,23.28,40.32,10.72,33,4.3Z"/><path class="cls-4" d="M23.69,60.85a61.78,61.78,0,0,1-2.27,33c-5,13.64-2.24,34.93,6.7,47.71"/><path class="cls-5" d="M5.51,25.43c.2,2.24,3,3.7,4.81,3.8,4.93.25,7.87-2.58,10.38-6.25a15.51,15.51,0,0,0,2-13.55c-.44-1.27-1.45-3.77-3.2-3.64C12.31,6.31,4.62,15.46,5.51,25.43Z"/></g></g></g></svg>