<svg xmlns="http://www.w3.org/2000/svg" viewBox="0 0 45.47 142.04"><defs><style>.cls-1{isolation:isolate;}.cls-2{fill:#e63182;}.cls-3{fill:#e56f9a;mix-blend-mode:multiply;}.cls-4{fill:none;stroke:#e63182;stroke-miterlimit:10;stroke-width:0.53px;}.cls-5{fill:#fff;mix-blend-mode:soft-light;opacity:0.8;}</style></defs><g class="cls-1"><g id="レイヤー_2" data-name="レイヤー 2"><g id="Capa_1" data-name="Capa 1"><path class="cls-2" d="M22.94,58.11s-2.72,2.57-2,4.4a7.33,7.33,0,0,0,5.41,0s.81-1.51-2.14-4.36Z"/><path class="cls-2" d="M45.47,34.81C45.47,51.09,35.29,59,22.74,59S0,50.58,0,34.3,10.18,0,22.74,0,45.47,18.53,45.47,34.81Z"/><path class="cls-3" d="M33,4.31c.47,1,.92,2.06,1.34,3.1,2.8,7,3,14.58,2.34,22a26.13,26.13,0,0,1-2.63,9.35,30,30,0,0,1-5,7.84c-4,4.13-9.38,7-15,7a19.33,19.33,0,0,1-7.46-1.06C10.67,56.82,16.4,59,22.74,59c12.55,0,22.73-7.86,22.73-24.14C45.47,23.34,40.42,10.75,33,4.31Z"/><path class="cls-4" d="M23.75,61a61.9,61.9,0,0,1-2.28,33.05c-5,13.68-2.24,35,6.71,47.83"/><path class="cls-5" d="M5.52,25.5c.2,2.23,3,3.7,4.83,3.8,4.94.25,7.88-2.59,10.4-6.26a15.55,15.55,0,0,0,2-13.58c-.44-1.28-1.45-3.79-3.21-3.66C12.34,6.32,4.63,15.5,5.52,25.5Z"/></g></g></g></svg>