<svg xmlns="http://www.w3.org/2000/svg" viewBox="0 0 850.74 652.57"><defs><style>.cls-1{fill:#ffc900;}.cls-2{fill:#ffea00;}.cls-3{fill:#ff75d5;}.cls-4{fill:#f7d9af;}.cls-5{fill:#00ccf7;}.cls-6{fill:#00afd4;}.cls-7{fill:#0096c4;}.cls-8{fill:#6e7b99;}.cls-9{fill:#f255d1;}.cls-10{fill:#7f7ec2;}.cls-11{fill:#fff;}.cls-12{fill:#9a98eb;}.cls-13{fill:#ff8c00;}.cls-14{fill:#f76c00;}.cls-15{fill:#a68a77;}</style></defs><g id="レイヤー_2" data-name="レイヤー 2"><g id="Layer_1" data-name="Layer 1"><path class="cls-1" d="M596.45,137.13A115.52,115.52,0,0,0,369.72,92.7L346,88.05l-9.69,49.45,274.13,53.73,9.69-49.45Zm-178.85-35a66.73,66.73,0,0,1,131,25.67Z"/><path class="cls-2" d="M548.57,135.23a66.27,66.27,0,0,0,1-15.89,67.48,67.48,0,0,1-1,8.41l-131-25.67A69.34,69.34,0,0,0,416,109.4Z"/><path class="cls-2" d="M346,95.53l23.7,4.64a115.48,115.48,0,0,1,228.6,18.45A115.45,115.45,0,0,0,369.72,92.7L346,88.05l-9.69,49.45,1.41.27Z"/><path class="cls-2" d="M596.45,137.13c-.3,2.43-.52,4.61-1,7.05l23.27,4.8,1.41-7.2Z"/><polygon class="cls-3" points="0 428.36 63.06 652.57 794.1 561.48 679.66 315.08 0 428.36"/><polygon class="cls-4" points="298.33 78.08 251.03 73.85 280.9 110.77 284.54 112.71 301.97 80.02 298.33 78.08"/><polygon class="cls-5" points="425.75 160.01 425.92 146.11 298.33 78.08 297.61 84.69 292.52 88.98 425.75 160.01"/><polygon class="cls-6" points="419.94 170.91 425.75 160.01 292.52 88.98 291.8 95.59 286.71 99.87 419.94 170.91"/><polygon class="cls-7" points="408.49 178.8 419.94 170.91 286.71 99.87 285.99 106.48 280.9 110.77 408.49 178.8"/><polygon class="cls-8" points="263.2 74.94 251.03 73.85 258.72 83.36 263.2 74.94"/><polygon class="cls-9" points="50.75 419.9 40.91 463.17 705.44 370.58 679.66 315.08 50.75 419.9"/><polygon class="cls-10" points="546.53 139.91 651.63 364.13 63.06 434.19 108.61 195.96 546.53 139.91"/><path class="cls-11" d="M236.84,320.08c0,16-12.24,29.37-31.38,31.38l-36.28,3.81V251.58l36.71-3.86c17.27-1.81,28.07,10,28.07,24.41a30.47,30.47,0,0,1-13.1,24.71C230.94,300.53,236.84,309.13,236.84,320.08Zm-41.75-50.34V289.9l2.88-.3c6.77-.71,10.8-5.17,10.8-11.22s-4-9.65-10.8-8.94Zm16.56,49.39c0-6.62-4.18-10.37-11.52-9.6l-5,.53v21.6l5-.53C207.47,330.36,211.65,325.75,211.65,319.13Z"/><path class="cls-11" d="M309.57,326.84l-37.14,3.9-6.05,14.32L239,347.93l53.27-115,53.27,103.85-30.23,3.18Zm-9.07-20.65-8.93-20.52-9.5,22.46Z"/><path class="cls-11" d="M339.83,285.49c0-30.39,23.9-56.51,54.71-59.75,19.73-2.08,35.42,6.07,45.35,20.29l-20.3,16.53c-5.32-8.22-14.11-13.49-25-12.34-16.27,1.71-28.79,16-28.79,32.55s12.52,28.21,28.79,26.5c10.65-1.12,19.29-7.94,24.76-17.16L440,303.91c-10.07,16.32-25.76,27.76-45.49,29.84C363.73,337,339.83,315.88,339.83,285.49Z"/><path class="cls-11" d="M508.45,319.61l-29.52-42.69v45.79L453,325.44V221.75L478.93,219v40.33l26.64-43.13,31.68-3.33L503.41,265l36.71,51.3Z"/><polygon class="cls-6" points="577.01 204.94 651.05 364.13 850.74 337.98 827.97 122.39 577.01 204.94"/><path class="cls-11" d="M714,251.17l-13,1.36V300.2l-23,2.42V255L667.94,256V234.4L678,233.35V201.81l23-2.42v31.53l13-1.36Z"/><path class="cls-11" d="M719.07,263.75c0-20.74,16.27-38.44,37.44-40.66s37.43,12,37.43,32.79-16.28,38.43-37.43,40.65S719.07,284.48,719.07,263.75Zm51.83-5.45c0-8.22-6.2-13.76-14.39-12.89a16,16,0,0,0-14.41,15.91c0,8.21,6.2,13.75,14.41,12.89A16,16,0,0,0,770.9,258.3Z"/><path class="cls-11" d="M87.11,566.6l14.11-19.49s10.65,10.83,22.74,9.57c6.77-.72,9.94-5.09,9.94-9.84s-3.17-8-14.69-12.14c-18.86-6.66-28.5-15.29-28.5-31,0-17,13.24-30.91,34.84-33.18a45.65,45.65,0,0,1,31.38,8.08l-14.11,19.48a22.88,22.88,0,0,0-17-5.56c-6.18.65-9.21,4.14-9.21,8.17s2.59,7.37,13.39,11c19.44,6.45,29.8,14.29,29.8,31.28,0,17.72-13.39,33.39-35.41,35.7C99.92,581.23,87.11,566.6,87.11,566.6Z"/><path class="cls-11" d="M168.47,520c0-30.39,23.9-56.51,54.71-59.75,19.73-2.07,35.42,6.07,45.35,20.29l-20.3,16.53c-5.32-8.22-14.11-13.49-25-12.34-16.26,1.71-28.79,16-28.79,32.55s12.53,28.21,28.79,26.5c10.65-1.12,19.29-7.94,24.77-17.15l20.73,11.79c-10.08,16.32-25.77,27.77-45.5,29.84C192.37,571.52,168.47,550.41,168.47,520Z"/><path class="cls-11" d="M373.81,446.59V550.28L347.89,553V512l-40.31,4.24v41L281.66,560V456.28l25.92-2.73v38.17l40.31-4.24V449.32Z"/><path class="cls-11" d="M386.79,497.07c0-30.38,23.9-56.51,54.71-59.75s54.71,17.87,54.71,48.25-23.9,56.52-54.71,59.76S386.79,527.46,386.79,497.07Zm83.51-8.77c0-16.56-12.53-28.2-28.8-26.5s-28.79,16-28.79,32.55,12.52,28.21,28.79,26.5S470.3,504.86,470.3,488.3Z"/><path class="cls-11" d="M504.89,484.66c0-30.39,23.89-56.51,54.7-59.75s54.71,17.86,54.71,48.25-23.9,56.52-54.71,59.76S504.89,515.05,504.89,484.66Zm83.5-8.77c0-16.56-12.53-28.21-28.8-26.5s-28.79,16-28.79,32.55,12.52,28.21,28.79,26.5S588.39,492.45,588.39,475.89Z"/><path class="cls-11" d="M692.08,492.35v24.48l-64.79,6.81V420l25.91-2.72v79.21Z"/><polygon class="cls-5" points="577.01 204.94 827.97 122.39 829.82 139.91 577.01 204.94"/><polygon class="cls-12" points="108.61 195.96 546.53 139.91 554.17 156.2 106.89 204.94 108.61 195.96"/><polygon class="cls-4" points="160.81 127.88 94.72 149.96 156.56 182.08 162.6 182.55 166.85 128.36 160.81 127.88"/><polygon class="cls-1" points="380.28 163.31 372.35 144.51 160.81 127.88 163.72 137.2 159.4 145.95 380.28 163.31"/><polygon class="cls-13" points="378.86 181.37 380.28 163.31 159.4 145.95 162.31 155.27 157.97 164.01 378.86 181.37"/><polygon class="cls-14" points="368.09 198.7 378.86 181.37 157.97 164.01 160.89 173.33 156.56 182.08 368.09 198.7"/><polygon class="cls-15" points="111.73 144.28 94.72 149.96 110.64 158.23 111.73 144.28"/></g></g></svg>